G04 #@! TF.GenerationSoftware,KiCad,Pcbnew,8.0.8-8.0.8-0~ubuntu22.04.1*
G04 #@! TF.CreationDate,2025-01-23T11:36:05+09:00*
G04 #@! TF.ProjectId,vfdclock,76666463-6c6f-4636-9b2e-6b696361645f,1.1*
G04 #@! TF.SameCoordinates,PX6bf4b80PY716cdd8*
G04 #@! TF.FileFunction,Soldermask,Top*
G04 #@! TF.FilePolarity,Negative*
%FSLAX46Y46*%
G04 Gerber Fmt 4.6, Leading zero omitted, Abs format (unit mm)*
G04 Created by KiCad (PCBNEW 8.0.8-8.0.8-0~ubuntu22.04.1) date 2025-01-23 11:36:05*
%MOMM*%
%LPD*%
G01*
G04 APERTURE LIST*
G04 Aperture macros list*
%AMRoundRect*
0 Rectangle with rounded corners*
0 $1 Rounding radius*
0 $2 $3 $4 $5 $6 $7 $8 $9 X,Y pos of 4 corners*
0 Add a 4 corners polygon primitive as box body*
4,1,4,$2,$3,$4,$5,$6,$7,$8,$9,$2,$3,0*
0 Add four circle primitives for the rounded corners*
1,1,$1+$1,$2,$3*
1,1,$1+$1,$4,$5*
1,1,$1+$1,$6,$7*
1,1,$1+$1,$8,$9*
0 Add four rect primitives between the rounded corners*
20,1,$1+$1,$2,$3,$4,$5,0*
20,1,$1+$1,$4,$5,$6,$7,0*
20,1,$1+$1,$6,$7,$8,$9,0*
20,1,$1+$1,$8,$9,$2,$3,0*%
G04 Aperture macros list end*
%ADD10R,1.800000X1.800000*%
%ADD11O,1.800000X1.800000*%
%ADD12C,2.000000*%
%ADD13C,2.200000*%
%ADD14C,3.200000*%
%ADD15C,1.000000*%
%ADD16R,1.905000X2.000000*%
%ADD17O,1.905000X2.000000*%
%ADD18R,1.200000X1.200000*%
%ADD19C,1.200000*%
%ADD20R,1.600000X2.400000*%
%ADD21O,1.600000X2.400000*%
%ADD22R,1.700000X1.700000*%
%ADD23O,1.700000X1.700000*%
%ADD24C,1.600000*%
%ADD25C,2.400000*%
%ADD26O,2.400000X2.400000*%
%ADD27R,3.500000X3.500000*%
%ADD28RoundRect,0.750000X-0.750000X-1.000000X0.750000X-1.000000X0.750000X1.000000X-0.750000X1.000000X0*%
%ADD29RoundRect,0.875000X-0.875000X-0.875000X0.875000X-0.875000X0.875000X0.875000X-0.875000X0.875000X0*%
%ADD30O,1.200000X2.000000*%
%ADD31O,1.600000X1.600000*%
G04 APERTURE END LIST*
D10*
X16510000Y3175000D03*
D11*
X24130000Y3175000D03*
D12*
X2465000Y39080000D03*
X8965000Y39080000D03*
X2465000Y34580000D03*
X8965000Y34580000D03*
D13*
X68580000Y30560000D03*
X68580000Y35560000D03*
D14*
X69000000Y44000000D03*
D15*
X68265000Y28110000D03*
X70165000Y28110000D03*
D14*
X69000000Y3175000D03*
D16*
X31750000Y5715000D03*
D17*
X34290000Y5715000D03*
X36830000Y5715000D03*
D18*
X24130000Y8255000D03*
D19*
X24130000Y6255000D03*
D14*
X3000000Y44000000D03*
D20*
X12700000Y19665000D03*
D21*
X15240000Y19665000D03*
X17780000Y19665000D03*
X20320000Y19665000D03*
X22860000Y19665000D03*
X25400000Y19665000D03*
X27940000Y19665000D03*
X30480000Y19665000D03*
X33020000Y19665000D03*
X35560000Y19665000D03*
X38100000Y19665000D03*
X40640000Y19665000D03*
X43180000Y19665000D03*
X45720000Y19665000D03*
X48260000Y19665000D03*
X50800000Y19665000D03*
X53340000Y19665000D03*
X55880000Y19665000D03*
X58420000Y19665000D03*
X60960000Y19665000D03*
X63500000Y19665000D03*
X63500000Y34905000D03*
X60960000Y34905000D03*
X58420000Y34905000D03*
X55880000Y34905000D03*
X53340000Y34905000D03*
X50800000Y34905000D03*
X48260000Y34905000D03*
X45720000Y34905000D03*
X43180000Y34905000D03*
X40640000Y34905000D03*
X38100000Y34905000D03*
X35560000Y34905000D03*
X33020000Y34905000D03*
X30480000Y34905000D03*
X27940000Y34905000D03*
X25400000Y34905000D03*
X22860000Y34905000D03*
X20320000Y34905000D03*
X17780000Y34905000D03*
X15240000Y34905000D03*
X12700000Y34905000D03*
D18*
X43180000Y8592599D03*
D19*
X43180000Y6592599D03*
D22*
X58420000Y7620000D03*
D23*
X60960000Y7620000D03*
X63500000Y7620000D03*
D12*
X2465000Y22570000D03*
X8965000Y22570000D03*
X2465000Y18070000D03*
X8965000Y18070000D03*
D24*
X65405000Y15855000D03*
X65405000Y13355000D03*
D25*
X2540000Y13970000D03*
D26*
X15240000Y13970000D03*
D24*
X61000000Y38715000D03*
X66000000Y38715000D03*
D27*
X13885000Y7000000D03*
D28*
X7885000Y7000000D03*
D29*
X10885000Y2300000D03*
D30*
X17780000Y13710000D03*
X20320000Y13710000D03*
X22860000Y13710000D03*
X25400000Y13710000D03*
X27940000Y13710000D03*
X30480000Y13710000D03*
X33020000Y13710000D03*
X35560000Y13710000D03*
X38100000Y13710000D03*
X40640000Y13710000D03*
X43180000Y13710000D03*
X45720000Y13710000D03*
X48260000Y13710000D03*
X50800000Y13710000D03*
X53340000Y13710000D03*
X55880000Y13710000D03*
X58420000Y13710000D03*
X60960000Y13710000D03*
X58420000Y41250000D03*
X55880000Y41250000D03*
X53340000Y41250000D03*
X50800000Y41250000D03*
X48260000Y41250000D03*
X45720000Y41250000D03*
X43180000Y41250000D03*
X40640000Y41250000D03*
X38100000Y41250000D03*
X35560000Y41250000D03*
X33020000Y41250000D03*
X30480000Y41250000D03*
X27940000Y41250000D03*
X25400000Y41250000D03*
X22860000Y41250000D03*
X20320000Y41250000D03*
D24*
X49530000Y10795000D03*
D31*
X49530000Y3175000D03*
D22*
X58420000Y2540000D03*
D23*
X60960000Y2540000D03*
X63500000Y2540000D03*
D12*
X2465000Y30825000D03*
X8965000Y30825000D03*
X2465000Y26325000D03*
X8965000Y26325000D03*
M02*
