G04 #@! TF.GenerationSoftware,KiCad,Pcbnew,8.0.8-8.0.8-0~ubuntu22.04.1*
G04 #@! TF.CreationDate,2025-01-22T21:02:32+09:00*
G04 #@! TF.ProjectId,vfdclock,76666463-6c6f-4636-9b2e-6b696361645f,1.1*
G04 #@! TF.SameCoordinates,PX6bf4b80PY716cdd8*
G04 #@! TF.FileFunction,Legend,Top*
G04 #@! TF.FilePolarity,Positive*
%FSLAX46Y46*%
G04 Gerber Fmt 4.6, Leading zero omitted, Abs format (unit mm)*
G04 Created by KiCad (PCBNEW 8.0.8-8.0.8-0~ubuntu22.04.1) date 2025-01-22 21:02:32*
%MOMM*%
%LPD*%
G01*
G04 APERTURE LIST*
%ADD10C,0.200000*%
%ADD11C,0.100000*%
%ADD12C,0.300000*%
%ADD13C,0.150000*%
%ADD14C,0.120000*%
G04 APERTURE END LIST*
D10*
X1004673Y19817781D02*
X1004673Y20817781D01*
X1004673Y20817781D02*
X1338006Y20103496D01*
X1338006Y20103496D02*
X1671339Y20817781D01*
X1671339Y20817781D02*
X1671339Y19817781D01*
D11*
X33242381Y3048534D02*
X34004286Y3048534D01*
X34337619Y3667581D02*
X34670952Y2667581D01*
X34670952Y2667581D02*
X35004285Y3667581D01*
X35337619Y2667581D02*
X35337619Y3667581D01*
X35863884Y3048534D02*
X36625789Y3048534D01*
X36959122Y3667581D02*
X37292455Y2667581D01*
X37292455Y2667581D02*
X37625788Y3667581D01*
X38149598Y3667581D02*
X38340074Y3667581D01*
X38340074Y3667581D02*
X38435312Y3619962D01*
X38435312Y3619962D02*
X38530550Y3524724D01*
X38530550Y3524724D02*
X38578169Y3334248D01*
X38578169Y3334248D02*
X38578169Y3000915D01*
X38578169Y3000915D02*
X38530550Y2810439D01*
X38530550Y2810439D02*
X38435312Y2715200D01*
X38435312Y2715200D02*
X38340074Y2667581D01*
X38340074Y2667581D02*
X38149598Y2667581D01*
X38149598Y2667581D02*
X38054360Y2715200D01*
X38054360Y2715200D02*
X37959122Y2810439D01*
X37959122Y2810439D02*
X37911503Y3000915D01*
X37911503Y3000915D02*
X37911503Y3334248D01*
X37911503Y3334248D02*
X37959122Y3524724D01*
X37959122Y3524724D02*
X38054360Y3619962D01*
X38054360Y3619962D02*
X38149598Y3667581D01*
X31942693Y3619962D02*
X31847455Y3667581D01*
X31847455Y3667581D02*
X31704598Y3667581D01*
X31704598Y3667581D02*
X31561741Y3619962D01*
X31561741Y3619962D02*
X31466503Y3524724D01*
X31466503Y3524724D02*
X31418884Y3429486D01*
X31418884Y3429486D02*
X31371265Y3239010D01*
X31371265Y3239010D02*
X31371265Y3096153D01*
X31371265Y3096153D02*
X31418884Y2905677D01*
X31418884Y2905677D02*
X31466503Y2810439D01*
X31466503Y2810439D02*
X31561741Y2715200D01*
X31561741Y2715200D02*
X31704598Y2667581D01*
X31704598Y2667581D02*
X31799836Y2667581D01*
X31799836Y2667581D02*
X31942693Y2715200D01*
X31942693Y2715200D02*
X31990312Y2762820D01*
X31990312Y2762820D02*
X31990312Y3096153D01*
X31990312Y3096153D02*
X31799836Y3096153D01*
D10*
X1004673Y28072781D02*
X1004673Y29072781D01*
X1004673Y28596591D02*
X1576101Y28596591D01*
X1576101Y28072781D02*
X1576101Y29072781D01*
X957054Y36375400D02*
X1099911Y36327781D01*
X1099911Y36327781D02*
X1338006Y36327781D01*
X1338006Y36327781D02*
X1433244Y36375400D01*
X1433244Y36375400D02*
X1480863Y36423020D01*
X1480863Y36423020D02*
X1528482Y36518258D01*
X1528482Y36518258D02*
X1528482Y36613496D01*
X1528482Y36613496D02*
X1480863Y36708734D01*
X1480863Y36708734D02*
X1433244Y36756353D01*
X1433244Y36756353D02*
X1338006Y36803972D01*
X1338006Y36803972D02*
X1147530Y36851591D01*
X1147530Y36851591D02*
X1052292Y36899210D01*
X1052292Y36899210D02*
X1004673Y36946829D01*
X1004673Y36946829D02*
X957054Y37042067D01*
X957054Y37042067D02*
X957054Y37137305D01*
X957054Y37137305D02*
X1004673Y37232543D01*
X1004673Y37232543D02*
X1052292Y37280162D01*
X1052292Y37280162D02*
X1147530Y37327781D01*
X1147530Y37327781D02*
X1385625Y37327781D01*
X1385625Y37327781D02*
X1528482Y37280162D01*
D12*
X9230225Y45514172D02*
X9730225Y44014172D01*
X9730225Y44014172D02*
X10230225Y45514172D01*
X11230224Y44799886D02*
X10730224Y44799886D01*
X10730224Y44014172D02*
X10730224Y45514172D01*
X10730224Y45514172D02*
X11444510Y45514172D01*
X12015938Y44014172D02*
X12015938Y45514172D01*
X12015938Y45514172D02*
X12373081Y45514172D01*
X12373081Y45514172D02*
X12587367Y45442743D01*
X12587367Y45442743D02*
X12730224Y45299886D01*
X12730224Y45299886D02*
X12801653Y45157029D01*
X12801653Y45157029D02*
X12873081Y44871315D01*
X12873081Y44871315D02*
X12873081Y44657029D01*
X12873081Y44657029D02*
X12801653Y44371315D01*
X12801653Y44371315D02*
X12730224Y44228458D01*
X12730224Y44228458D02*
X12587367Y44085600D01*
X12587367Y44085600D02*
X12373081Y44014172D01*
X12373081Y44014172D02*
X12015938Y44014172D01*
X15515938Y44157029D02*
X15444510Y44085600D01*
X15444510Y44085600D02*
X15230224Y44014172D01*
X15230224Y44014172D02*
X15087367Y44014172D01*
X15087367Y44014172D02*
X14873081Y44085600D01*
X14873081Y44085600D02*
X14730224Y44228458D01*
X14730224Y44228458D02*
X14658795Y44371315D01*
X14658795Y44371315D02*
X14587367Y44657029D01*
X14587367Y44657029D02*
X14587367Y44871315D01*
X14587367Y44871315D02*
X14658795Y45157029D01*
X14658795Y45157029D02*
X14730224Y45299886D01*
X14730224Y45299886D02*
X14873081Y45442743D01*
X14873081Y45442743D02*
X15087367Y45514172D01*
X15087367Y45514172D02*
X15230224Y45514172D01*
X15230224Y45514172D02*
X15444510Y45442743D01*
X15444510Y45442743D02*
X15515938Y45371315D01*
X16373081Y44014172D02*
X16230224Y44085600D01*
X16230224Y44085600D02*
X16158795Y44228458D01*
X16158795Y44228458D02*
X16158795Y45514172D01*
X17158795Y44014172D02*
X17015938Y44085600D01*
X17015938Y44085600D02*
X16944509Y44157029D01*
X16944509Y44157029D02*
X16873081Y44299886D01*
X16873081Y44299886D02*
X16873081Y44728458D01*
X16873081Y44728458D02*
X16944509Y44871315D01*
X16944509Y44871315D02*
X17015938Y44942743D01*
X17015938Y44942743D02*
X17158795Y45014172D01*
X17158795Y45014172D02*
X17373081Y45014172D01*
X17373081Y45014172D02*
X17515938Y44942743D01*
X17515938Y44942743D02*
X17587367Y44871315D01*
X17587367Y44871315D02*
X17658795Y44728458D01*
X17658795Y44728458D02*
X17658795Y44299886D01*
X17658795Y44299886D02*
X17587367Y44157029D01*
X17587367Y44157029D02*
X17515938Y44085600D01*
X17515938Y44085600D02*
X17373081Y44014172D01*
X17373081Y44014172D02*
X17158795Y44014172D01*
X18944510Y44085600D02*
X18801652Y44014172D01*
X18801652Y44014172D02*
X18515938Y44014172D01*
X18515938Y44014172D02*
X18373081Y44085600D01*
X18373081Y44085600D02*
X18301652Y44157029D01*
X18301652Y44157029D02*
X18230224Y44299886D01*
X18230224Y44299886D02*
X18230224Y44728458D01*
X18230224Y44728458D02*
X18301652Y44871315D01*
X18301652Y44871315D02*
X18373081Y44942743D01*
X18373081Y44942743D02*
X18515938Y45014172D01*
X18515938Y45014172D02*
X18801652Y45014172D01*
X18801652Y45014172D02*
X18944510Y44942743D01*
X19587366Y44014172D02*
X19587366Y45514172D01*
X19730224Y44585600D02*
X20158795Y44014172D01*
X20158795Y45014172D02*
X19587366Y44442743D01*
X22801652Y44014172D02*
X22301652Y44728458D01*
X21944509Y44014172D02*
X21944509Y45514172D01*
X21944509Y45514172D02*
X22515938Y45514172D01*
X22515938Y45514172D02*
X22658795Y45442743D01*
X22658795Y45442743D02*
X22730224Y45371315D01*
X22730224Y45371315D02*
X22801652Y45228458D01*
X22801652Y45228458D02*
X22801652Y45014172D01*
X22801652Y45014172D02*
X22730224Y44871315D01*
X22730224Y44871315D02*
X22658795Y44799886D01*
X22658795Y44799886D02*
X22515938Y44728458D01*
X22515938Y44728458D02*
X21944509Y44728458D01*
X24015938Y44085600D02*
X23873081Y44014172D01*
X23873081Y44014172D02*
X23587367Y44014172D01*
X23587367Y44014172D02*
X23444509Y44085600D01*
X23444509Y44085600D02*
X23373081Y44228458D01*
X23373081Y44228458D02*
X23373081Y44799886D01*
X23373081Y44799886D02*
X23444509Y44942743D01*
X23444509Y44942743D02*
X23587367Y45014172D01*
X23587367Y45014172D02*
X23873081Y45014172D01*
X23873081Y45014172D02*
X24015938Y44942743D01*
X24015938Y44942743D02*
X24087367Y44799886D01*
X24087367Y44799886D02*
X24087367Y44657029D01*
X24087367Y44657029D02*
X23373081Y44514172D01*
X24587366Y45014172D02*
X24944509Y44014172D01*
X24944509Y44014172D02*
X25301652Y45014172D01*
X25873080Y44157029D02*
X25944509Y44085600D01*
X25944509Y44085600D02*
X25873080Y44014172D01*
X25873080Y44014172D02*
X25801652Y44085600D01*
X25801652Y44085600D02*
X25873080Y44157029D01*
X25873080Y44157029D02*
X25873080Y44014172D01*
X27373081Y44014172D02*
X26515938Y44014172D01*
X26944509Y44014172D02*
X26944509Y45514172D01*
X26944509Y45514172D02*
X26801652Y45299886D01*
X26801652Y45299886D02*
X26658795Y45157029D01*
X26658795Y45157029D02*
X26515938Y45085600D01*
X28015937Y44157029D02*
X28087366Y44085600D01*
X28087366Y44085600D02*
X28015937Y44014172D01*
X28015937Y44014172D02*
X27944509Y44085600D01*
X27944509Y44085600D02*
X28015937Y44157029D01*
X28015937Y44157029D02*
X28015937Y44014172D01*
X29515938Y44014172D02*
X28658795Y44014172D01*
X29087366Y44014172D02*
X29087366Y45514172D01*
X29087366Y45514172D02*
X28944509Y45299886D01*
X28944509Y45299886D02*
X28801652Y45157029D01*
X28801652Y45157029D02*
X28658795Y45085600D01*
X33373080Y44728458D02*
X33301651Y44799886D01*
X33301651Y44799886D02*
X33158794Y44871315D01*
X33158794Y44871315D02*
X33015937Y44871315D01*
X33015937Y44871315D02*
X32873080Y44799886D01*
X32873080Y44799886D02*
X32801651Y44728458D01*
X32801651Y44728458D02*
X32730223Y44585600D01*
X32730223Y44585600D02*
X32730223Y44442743D01*
X32730223Y44442743D02*
X32801651Y44299886D01*
X32801651Y44299886D02*
X32873080Y44228458D01*
X32873080Y44228458D02*
X33015937Y44157029D01*
X33015937Y44157029D02*
X33158794Y44157029D01*
X33158794Y44157029D02*
X33301651Y44228458D01*
X33301651Y44228458D02*
X33373080Y44299886D01*
X33373080Y44871315D02*
X33373080Y44299886D01*
X33373080Y44299886D02*
X33444508Y44228458D01*
X33444508Y44228458D02*
X33515937Y44228458D01*
X33515937Y44228458D02*
X33658794Y44299886D01*
X33658794Y44299886D02*
X33730223Y44442743D01*
X33730223Y44442743D02*
X33730223Y44799886D01*
X33730223Y44799886D02*
X33587366Y45014172D01*
X33587366Y45014172D02*
X33373080Y45157029D01*
X33373080Y45157029D02*
X33087366Y45228458D01*
X33087366Y45228458D02*
X32801651Y45157029D01*
X32801651Y45157029D02*
X32587366Y45014172D01*
X32587366Y45014172D02*
X32444508Y44799886D01*
X32444508Y44799886D02*
X32373080Y44514172D01*
X32373080Y44514172D02*
X32444508Y44228458D01*
X32444508Y44228458D02*
X32587366Y44014172D01*
X32587366Y44014172D02*
X32801651Y43871315D01*
X32801651Y43871315D02*
X33087366Y43799886D01*
X33087366Y43799886D02*
X33373080Y43871315D01*
X33373080Y43871315D02*
X33587366Y44014172D01*
X34373079Y44014172D02*
X34373079Y45514172D01*
X34515937Y44585600D02*
X34944508Y44014172D01*
X34944508Y45014172D02*
X34373079Y44442743D01*
X36230223Y44014172D02*
X36230223Y44799886D01*
X36230223Y44799886D02*
X36158794Y44942743D01*
X36158794Y44942743D02*
X36015937Y45014172D01*
X36015937Y45014172D02*
X35730223Y45014172D01*
X35730223Y45014172D02*
X35587365Y44942743D01*
X36230223Y44085600D02*
X36087365Y44014172D01*
X36087365Y44014172D02*
X35730223Y44014172D01*
X35730223Y44014172D02*
X35587365Y44085600D01*
X35587365Y44085600D02*
X35515937Y44228458D01*
X35515937Y44228458D02*
X35515937Y44371315D01*
X35515937Y44371315D02*
X35587365Y44514172D01*
X35587365Y44514172D02*
X35730223Y44585600D01*
X35730223Y44585600D02*
X36087365Y44585600D01*
X36087365Y44585600D02*
X36230223Y44657029D01*
X36944508Y45014172D02*
X36944508Y44014172D01*
X36944508Y44871315D02*
X37015937Y44942743D01*
X37015937Y44942743D02*
X37158794Y45014172D01*
X37158794Y45014172D02*
X37373080Y45014172D01*
X37373080Y45014172D02*
X37515937Y44942743D01*
X37515937Y44942743D02*
X37587366Y44799886D01*
X37587366Y44799886D02*
X37587366Y44014172D01*
X38301651Y45014172D02*
X38301651Y43514172D01*
X38301651Y44942743D02*
X38444509Y45014172D01*
X38444509Y45014172D02*
X38730223Y45014172D01*
X38730223Y45014172D02*
X38873080Y44942743D01*
X38873080Y44942743D02*
X38944509Y44871315D01*
X38944509Y44871315D02*
X39015937Y44728458D01*
X39015937Y44728458D02*
X39015937Y44299886D01*
X39015937Y44299886D02*
X38944509Y44157029D01*
X38944509Y44157029D02*
X38873080Y44085600D01*
X38873080Y44085600D02*
X38730223Y44014172D01*
X38730223Y44014172D02*
X38444509Y44014172D01*
X38444509Y44014172D02*
X38301651Y44085600D01*
X40301652Y44014172D02*
X40301652Y44799886D01*
X40301652Y44799886D02*
X40230223Y44942743D01*
X40230223Y44942743D02*
X40087366Y45014172D01*
X40087366Y45014172D02*
X39801652Y45014172D01*
X39801652Y45014172D02*
X39658794Y44942743D01*
X40301652Y44085600D02*
X40158794Y44014172D01*
X40158794Y44014172D02*
X39801652Y44014172D01*
X39801652Y44014172D02*
X39658794Y44085600D01*
X39658794Y44085600D02*
X39587366Y44228458D01*
X39587366Y44228458D02*
X39587366Y44371315D01*
X39587366Y44371315D02*
X39658794Y44514172D01*
X39658794Y44514172D02*
X39801652Y44585600D01*
X39801652Y44585600D02*
X40158794Y44585600D01*
X40158794Y44585600D02*
X40301652Y44657029D01*
X41015937Y45014172D02*
X41015937Y43514172D01*
X41015937Y44942743D02*
X41158795Y45014172D01*
X41158795Y45014172D02*
X41444509Y45014172D01*
X41444509Y45014172D02*
X41587366Y44942743D01*
X41587366Y44942743D02*
X41658795Y44871315D01*
X41658795Y44871315D02*
X41730223Y44728458D01*
X41730223Y44728458D02*
X41730223Y44299886D01*
X41730223Y44299886D02*
X41658795Y44157029D01*
X41658795Y44157029D02*
X41587366Y44085600D01*
X41587366Y44085600D02*
X41444509Y44014172D01*
X41444509Y44014172D02*
X41158795Y44014172D01*
X41158795Y44014172D02*
X41015937Y44085600D01*
X43015938Y44014172D02*
X43015938Y44799886D01*
X43015938Y44799886D02*
X42944509Y44942743D01*
X42944509Y44942743D02*
X42801652Y45014172D01*
X42801652Y45014172D02*
X42515938Y45014172D01*
X42515938Y45014172D02*
X42373080Y44942743D01*
X43015938Y44085600D02*
X42873080Y44014172D01*
X42873080Y44014172D02*
X42515938Y44014172D01*
X42515938Y44014172D02*
X42373080Y44085600D01*
X42373080Y44085600D02*
X42301652Y44228458D01*
X42301652Y44228458D02*
X42301652Y44371315D01*
X42301652Y44371315D02*
X42373080Y44514172D01*
X42373080Y44514172D02*
X42515938Y44585600D01*
X42515938Y44585600D02*
X42873080Y44585600D01*
X42873080Y44585600D02*
X43015938Y44657029D01*
X44801652Y45371315D02*
X44873080Y45442743D01*
X44873080Y45442743D02*
X45015938Y45514172D01*
X45015938Y45514172D02*
X45373080Y45514172D01*
X45373080Y45514172D02*
X45515938Y45442743D01*
X45515938Y45442743D02*
X45587366Y45371315D01*
X45587366Y45371315D02*
X45658795Y45228458D01*
X45658795Y45228458D02*
X45658795Y45085600D01*
X45658795Y45085600D02*
X45587366Y44871315D01*
X45587366Y44871315D02*
X44730223Y44014172D01*
X44730223Y44014172D02*
X45658795Y44014172D01*
X46587366Y45514172D02*
X46730223Y45514172D01*
X46730223Y45514172D02*
X46873080Y45442743D01*
X46873080Y45442743D02*
X46944509Y45371315D01*
X46944509Y45371315D02*
X47015937Y45228458D01*
X47015937Y45228458D02*
X47087366Y44942743D01*
X47087366Y44942743D02*
X47087366Y44585600D01*
X47087366Y44585600D02*
X47015937Y44299886D01*
X47015937Y44299886D02*
X46944509Y44157029D01*
X46944509Y44157029D02*
X46873080Y44085600D01*
X46873080Y44085600D02*
X46730223Y44014172D01*
X46730223Y44014172D02*
X46587366Y44014172D01*
X46587366Y44014172D02*
X46444509Y44085600D01*
X46444509Y44085600D02*
X46373080Y44157029D01*
X46373080Y44157029D02*
X46301651Y44299886D01*
X46301651Y44299886D02*
X46230223Y44585600D01*
X46230223Y44585600D02*
X46230223Y44942743D01*
X46230223Y44942743D02*
X46301651Y45228458D01*
X46301651Y45228458D02*
X46373080Y45371315D01*
X46373080Y45371315D02*
X46444509Y45442743D01*
X46444509Y45442743D02*
X46587366Y45514172D01*
X47658794Y45371315D02*
X47730222Y45442743D01*
X47730222Y45442743D02*
X47873080Y45514172D01*
X47873080Y45514172D02*
X48230222Y45514172D01*
X48230222Y45514172D02*
X48373080Y45442743D01*
X48373080Y45442743D02*
X48444508Y45371315D01*
X48444508Y45371315D02*
X48515937Y45228458D01*
X48515937Y45228458D02*
X48515937Y45085600D01*
X48515937Y45085600D02*
X48444508Y44871315D01*
X48444508Y44871315D02*
X47587365Y44014172D01*
X47587365Y44014172D02*
X48515937Y44014172D01*
X49873079Y45514172D02*
X49158793Y45514172D01*
X49158793Y45514172D02*
X49087365Y44799886D01*
X49087365Y44799886D02*
X49158793Y44871315D01*
X49158793Y44871315D02*
X49301651Y44942743D01*
X49301651Y44942743D02*
X49658793Y44942743D01*
X49658793Y44942743D02*
X49801651Y44871315D01*
X49801651Y44871315D02*
X49873079Y44799886D01*
X49873079Y44799886D02*
X49944508Y44657029D01*
X49944508Y44657029D02*
X49944508Y44299886D01*
X49944508Y44299886D02*
X49873079Y44157029D01*
X49873079Y44157029D02*
X49801651Y44085600D01*
X49801651Y44085600D02*
X49658793Y44014172D01*
X49658793Y44014172D02*
X49301651Y44014172D01*
X49301651Y44014172D02*
X49158793Y44085600D01*
X49158793Y44085600D02*
X49087365Y44157029D01*
X50587364Y44585600D02*
X51730222Y44585600D01*
X52730222Y45514172D02*
X52873079Y45514172D01*
X52873079Y45514172D02*
X53015936Y45442743D01*
X53015936Y45442743D02*
X53087365Y45371315D01*
X53087365Y45371315D02*
X53158793Y45228458D01*
X53158793Y45228458D02*
X53230222Y44942743D01*
X53230222Y44942743D02*
X53230222Y44585600D01*
X53230222Y44585600D02*
X53158793Y44299886D01*
X53158793Y44299886D02*
X53087365Y44157029D01*
X53087365Y44157029D02*
X53015936Y44085600D01*
X53015936Y44085600D02*
X52873079Y44014172D01*
X52873079Y44014172D02*
X52730222Y44014172D01*
X52730222Y44014172D02*
X52587365Y44085600D01*
X52587365Y44085600D02*
X52515936Y44157029D01*
X52515936Y44157029D02*
X52444507Y44299886D01*
X52444507Y44299886D02*
X52373079Y44585600D01*
X52373079Y44585600D02*
X52373079Y44942743D01*
X52373079Y44942743D02*
X52444507Y45228458D01*
X52444507Y45228458D02*
X52515936Y45371315D01*
X52515936Y45371315D02*
X52587365Y45442743D01*
X52587365Y45442743D02*
X52730222Y45514172D01*
X54658793Y44014172D02*
X53801650Y44014172D01*
X54230221Y44014172D02*
X54230221Y45514172D01*
X54230221Y45514172D02*
X54087364Y45299886D01*
X54087364Y45299886D02*
X53944507Y45157029D01*
X53944507Y45157029D02*
X53801650Y45085600D01*
X55301649Y44585600D02*
X56444507Y44585600D01*
X57087364Y45371315D02*
X57158792Y45442743D01*
X57158792Y45442743D02*
X57301650Y45514172D01*
X57301650Y45514172D02*
X57658792Y45514172D01*
X57658792Y45514172D02*
X57801650Y45442743D01*
X57801650Y45442743D02*
X57873078Y45371315D01*
X57873078Y45371315D02*
X57944507Y45228458D01*
X57944507Y45228458D02*
X57944507Y45085600D01*
X57944507Y45085600D02*
X57873078Y44871315D01*
X57873078Y44871315D02*
X57015935Y44014172D01*
X57015935Y44014172D02*
X57944507Y44014172D01*
X58515935Y45371315D02*
X58587363Y45442743D01*
X58587363Y45442743D02*
X58730221Y45514172D01*
X58730221Y45514172D02*
X59087363Y45514172D01*
X59087363Y45514172D02*
X59230221Y45442743D01*
X59230221Y45442743D02*
X59301649Y45371315D01*
X59301649Y45371315D02*
X59373078Y45228458D01*
X59373078Y45228458D02*
X59373078Y45085600D01*
X59373078Y45085600D02*
X59301649Y44871315D01*
X59301649Y44871315D02*
X58444506Y44014172D01*
X58444506Y44014172D02*
X59373078Y44014172D01*
D13*
X19581905Y5190181D02*
X19581905Y6190181D01*
X19581905Y6190181D02*
X19820000Y6190181D01*
X19820000Y6190181D02*
X19962857Y6142562D01*
X19962857Y6142562D02*
X20058095Y6047324D01*
X20058095Y6047324D02*
X20105714Y5952086D01*
X20105714Y5952086D02*
X20153333Y5761610D01*
X20153333Y5761610D02*
X20153333Y5618753D01*
X20153333Y5618753D02*
X20105714Y5428277D01*
X20105714Y5428277D02*
X20058095Y5333039D01*
X20058095Y5333039D02*
X19962857Y5237800D01*
X19962857Y5237800D02*
X19820000Y5190181D01*
X19820000Y5190181D02*
X19581905Y5190181D01*
X21105714Y5190181D02*
X20534286Y5190181D01*
X20820000Y5190181D02*
X20820000Y6190181D01*
X20820000Y6190181D02*
X20724762Y6047324D01*
X20724762Y6047324D02*
X20629524Y5952086D01*
X20629524Y5952086D02*
X20534286Y5904467D01*
X16248095Y4620181D02*
X16248095Y5620181D01*
X16819523Y4620181D02*
X16390952Y5191610D01*
X16819523Y5620181D02*
X16248095Y5048753D01*
X4381667Y36422800D02*
X4524524Y36375181D01*
X4524524Y36375181D02*
X4762619Y36375181D01*
X4762619Y36375181D02*
X4857857Y36422800D01*
X4857857Y36422800D02*
X4905476Y36470420D01*
X4905476Y36470420D02*
X4953095Y36565658D01*
X4953095Y36565658D02*
X4953095Y36660896D01*
X4953095Y36660896D02*
X4905476Y36756134D01*
X4905476Y36756134D02*
X4857857Y36803753D01*
X4857857Y36803753D02*
X4762619Y36851372D01*
X4762619Y36851372D02*
X4572143Y36898991D01*
X4572143Y36898991D02*
X4476905Y36946610D01*
X4476905Y36946610D02*
X4429286Y36994229D01*
X4429286Y36994229D02*
X4381667Y37089467D01*
X4381667Y37089467D02*
X4381667Y37184705D01*
X4381667Y37184705D02*
X4429286Y37279943D01*
X4429286Y37279943D02*
X4476905Y37327562D01*
X4476905Y37327562D02*
X4572143Y37375181D01*
X4572143Y37375181D02*
X4810238Y37375181D01*
X4810238Y37375181D02*
X4953095Y37327562D01*
X5286429Y37375181D02*
X5524524Y36375181D01*
X5524524Y36375181D02*
X5715000Y37089467D01*
X5715000Y37089467D02*
X5905476Y36375181D01*
X5905476Y36375181D02*
X6143572Y37375181D01*
X7048333Y36375181D02*
X6476905Y36375181D01*
X6762619Y36375181D02*
X6762619Y37375181D01*
X6762619Y37375181D02*
X6667381Y37232324D01*
X6667381Y37232324D02*
X6572143Y37137086D01*
X6572143Y37137086D02*
X6476905Y37089467D01*
X70844580Y36663334D02*
X70892200Y36615715D01*
X70892200Y36615715D02*
X70939819Y36472858D01*
X70939819Y36472858D02*
X70939819Y36377620D01*
X70939819Y36377620D02*
X70892200Y36234763D01*
X70892200Y36234763D02*
X70796961Y36139525D01*
X70796961Y36139525D02*
X70701723Y36091906D01*
X70701723Y36091906D02*
X70511247Y36044287D01*
X70511247Y36044287D02*
X70368390Y36044287D01*
X70368390Y36044287D02*
X70177914Y36091906D01*
X70177914Y36091906D02*
X70082676Y36139525D01*
X70082676Y36139525D02*
X69987438Y36234763D01*
X69987438Y36234763D02*
X69939819Y36377620D01*
X69939819Y36377620D02*
X69939819Y36472858D01*
X69939819Y36472858D02*
X69987438Y36615715D01*
X69987438Y36615715D02*
X70035057Y36663334D01*
X70939819Y37615715D02*
X70939819Y37044287D01*
X70939819Y37330001D02*
X69939819Y37330001D01*
X69939819Y37330001D02*
X70082676Y37234763D01*
X70082676Y37234763D02*
X70177914Y37139525D01*
X70177914Y37139525D02*
X70225533Y37044287D01*
X66653628Y23168810D02*
X67129819Y23168810D01*
X66129819Y22835477D02*
X66653628Y23168810D01*
X66653628Y23168810D02*
X66129819Y23502143D01*
X66225057Y23787858D02*
X66177438Y23835477D01*
X66177438Y23835477D02*
X66129819Y23930715D01*
X66129819Y23930715D02*
X66129819Y24168810D01*
X66129819Y24168810D02*
X66177438Y24264048D01*
X66177438Y24264048D02*
X66225057Y24311667D01*
X66225057Y24311667D02*
X66320295Y24359286D01*
X66320295Y24359286D02*
X66415533Y24359286D01*
X66415533Y24359286D02*
X66558390Y24311667D01*
X66558390Y24311667D02*
X67129819Y23740239D01*
X67129819Y23740239D02*
X67129819Y24359286D01*
X33528095Y10427681D02*
X33528095Y9618158D01*
X33528095Y9618158D02*
X33575714Y9522920D01*
X33575714Y9522920D02*
X33623333Y9475300D01*
X33623333Y9475300D02*
X33718571Y9427681D01*
X33718571Y9427681D02*
X33909047Y9427681D01*
X33909047Y9427681D02*
X34004285Y9475300D01*
X34004285Y9475300D02*
X34051904Y9522920D01*
X34051904Y9522920D02*
X34099523Y9618158D01*
X34099523Y9618158D02*
X34099523Y10427681D01*
X34480476Y10427681D02*
X35099523Y10427681D01*
X35099523Y10427681D02*
X34766190Y10046729D01*
X34766190Y10046729D02*
X34909047Y10046729D01*
X34909047Y10046729D02*
X35004285Y9999110D01*
X35004285Y9999110D02*
X35051904Y9951491D01*
X35051904Y9951491D02*
X35099523Y9856253D01*
X35099523Y9856253D02*
X35099523Y9618158D01*
X35099523Y9618158D02*
X35051904Y9522920D01*
X35051904Y9522920D02*
X35004285Y9475300D01*
X35004285Y9475300D02*
X34909047Y9427681D01*
X34909047Y9427681D02*
X34623333Y9427681D01*
X34623333Y9427681D02*
X34528095Y9475300D01*
X34528095Y9475300D02*
X34480476Y9522920D01*
X21423333Y9165420D02*
X21375714Y9117800D01*
X21375714Y9117800D02*
X21232857Y9070181D01*
X21232857Y9070181D02*
X21137619Y9070181D01*
X21137619Y9070181D02*
X20994762Y9117800D01*
X20994762Y9117800D02*
X20899524Y9213039D01*
X20899524Y9213039D02*
X20851905Y9308277D01*
X20851905Y9308277D02*
X20804286Y9498753D01*
X20804286Y9498753D02*
X20804286Y9641610D01*
X20804286Y9641610D02*
X20851905Y9832086D01*
X20851905Y9832086D02*
X20899524Y9927324D01*
X20899524Y9927324D02*
X20994762Y10022562D01*
X20994762Y10022562D02*
X21137619Y10070181D01*
X21137619Y10070181D02*
X21232857Y10070181D01*
X21232857Y10070181D02*
X21375714Y10022562D01*
X21375714Y10022562D02*
X21423333Y9974943D01*
X22280476Y9736848D02*
X22280476Y9070181D01*
X22042381Y10117800D02*
X21804286Y9403515D01*
X21804286Y9403515D02*
X22423333Y9403515D01*
X9824819Y26523096D02*
X10634342Y26523096D01*
X10634342Y26523096D02*
X10729580Y26570715D01*
X10729580Y26570715D02*
X10777200Y26618334D01*
X10777200Y26618334D02*
X10824819Y26713572D01*
X10824819Y26713572D02*
X10824819Y26904048D01*
X10824819Y26904048D02*
X10777200Y26999286D01*
X10777200Y26999286D02*
X10729580Y27046905D01*
X10729580Y27046905D02*
X10634342Y27094524D01*
X10634342Y27094524D02*
X9824819Y27094524D01*
X10824819Y28094524D02*
X10824819Y27523096D01*
X10824819Y27808810D02*
X9824819Y27808810D01*
X9824819Y27808810D02*
X9967676Y27713572D01*
X9967676Y27713572D02*
X10062914Y27618334D01*
X10062914Y27618334D02*
X10110533Y27523096D01*
X45553333Y9503019D02*
X45505714Y9455399D01*
X45505714Y9455399D02*
X45362857Y9407780D01*
X45362857Y9407780D02*
X45267619Y9407780D01*
X45267619Y9407780D02*
X45124762Y9455399D01*
X45124762Y9455399D02*
X45029524Y9550638D01*
X45029524Y9550638D02*
X44981905Y9645876D01*
X44981905Y9645876D02*
X44934286Y9836352D01*
X44934286Y9836352D02*
X44934286Y9979209D01*
X44934286Y9979209D02*
X44981905Y10169685D01*
X44981905Y10169685D02*
X45029524Y10264923D01*
X45029524Y10264923D02*
X45124762Y10360161D01*
X45124762Y10360161D02*
X45267619Y10407780D01*
X45267619Y10407780D02*
X45362857Y10407780D01*
X45362857Y10407780D02*
X45505714Y10360161D01*
X45505714Y10360161D02*
X45553333Y10312542D01*
X45886667Y10407780D02*
X46505714Y10407780D01*
X46505714Y10407780D02*
X46172381Y10026828D01*
X46172381Y10026828D02*
X46315238Y10026828D01*
X46315238Y10026828D02*
X46410476Y9979209D01*
X46410476Y9979209D02*
X46458095Y9931590D01*
X46458095Y9931590D02*
X46505714Y9836352D01*
X46505714Y9836352D02*
X46505714Y9598257D01*
X46505714Y9598257D02*
X46458095Y9503019D01*
X46458095Y9503019D02*
X46410476Y9455399D01*
X46410476Y9455399D02*
X46315238Y9407780D01*
X46315238Y9407780D02*
X46029524Y9407780D01*
X46029524Y9407780D02*
X45934286Y9455399D01*
X45934286Y9455399D02*
X45886667Y9503019D01*
X59626667Y9752800D02*
X59769524Y9705181D01*
X59769524Y9705181D02*
X60007619Y9705181D01*
X60007619Y9705181D02*
X60102857Y9752800D01*
X60102857Y9752800D02*
X60150476Y9800420D01*
X60150476Y9800420D02*
X60198095Y9895658D01*
X60198095Y9895658D02*
X60198095Y9990896D01*
X60198095Y9990896D02*
X60150476Y10086134D01*
X60150476Y10086134D02*
X60102857Y10133753D01*
X60102857Y10133753D02*
X60007619Y10181372D01*
X60007619Y10181372D02*
X59817143Y10228991D01*
X59817143Y10228991D02*
X59721905Y10276610D01*
X59721905Y10276610D02*
X59674286Y10324229D01*
X59674286Y10324229D02*
X59626667Y10419467D01*
X59626667Y10419467D02*
X59626667Y10514705D01*
X59626667Y10514705D02*
X59674286Y10609943D01*
X59674286Y10609943D02*
X59721905Y10657562D01*
X59721905Y10657562D02*
X59817143Y10705181D01*
X59817143Y10705181D02*
X60055238Y10705181D01*
X60055238Y10705181D02*
X60198095Y10657562D01*
X60531429Y10705181D02*
X60769524Y9705181D01*
X60769524Y9705181D02*
X60960000Y10419467D01*
X60960000Y10419467D02*
X61150476Y9705181D01*
X61150476Y9705181D02*
X61388572Y10705181D01*
X62198095Y10371848D02*
X62198095Y9705181D01*
X61960000Y10752800D02*
X61721905Y10038515D01*
X61721905Y10038515D02*
X62340952Y10038515D01*
X4381667Y19912800D02*
X4524524Y19865181D01*
X4524524Y19865181D02*
X4762619Y19865181D01*
X4762619Y19865181D02*
X4857857Y19912800D01*
X4857857Y19912800D02*
X4905476Y19960420D01*
X4905476Y19960420D02*
X4953095Y20055658D01*
X4953095Y20055658D02*
X4953095Y20150896D01*
X4953095Y20150896D02*
X4905476Y20246134D01*
X4905476Y20246134D02*
X4857857Y20293753D01*
X4857857Y20293753D02*
X4762619Y20341372D01*
X4762619Y20341372D02*
X4572143Y20388991D01*
X4572143Y20388991D02*
X4476905Y20436610D01*
X4476905Y20436610D02*
X4429286Y20484229D01*
X4429286Y20484229D02*
X4381667Y20579467D01*
X4381667Y20579467D02*
X4381667Y20674705D01*
X4381667Y20674705D02*
X4429286Y20769943D01*
X4429286Y20769943D02*
X4476905Y20817562D01*
X4476905Y20817562D02*
X4572143Y20865181D01*
X4572143Y20865181D02*
X4810238Y20865181D01*
X4810238Y20865181D02*
X4953095Y20817562D01*
X5286429Y20865181D02*
X5524524Y19865181D01*
X5524524Y19865181D02*
X5715000Y20579467D01*
X5715000Y20579467D02*
X5905476Y19865181D01*
X5905476Y19865181D02*
X6143572Y20865181D01*
X6429286Y20865181D02*
X7048333Y20865181D01*
X7048333Y20865181D02*
X6715000Y20484229D01*
X6715000Y20484229D02*
X6857857Y20484229D01*
X6857857Y20484229D02*
X6953095Y20436610D01*
X6953095Y20436610D02*
X7000714Y20388991D01*
X7000714Y20388991D02*
X7048333Y20293753D01*
X7048333Y20293753D02*
X7048333Y20055658D01*
X7048333Y20055658D02*
X7000714Y19960420D01*
X7000714Y19960420D02*
X6953095Y19912800D01*
X6953095Y19912800D02*
X6857857Y19865181D01*
X6857857Y19865181D02*
X6572143Y19865181D01*
X6572143Y19865181D02*
X6476905Y19912800D01*
X6476905Y19912800D02*
X6429286Y19960420D01*
X66399580Y18248334D02*
X66447200Y18200715D01*
X66447200Y18200715D02*
X66494819Y18057858D01*
X66494819Y18057858D02*
X66494819Y17962620D01*
X66494819Y17962620D02*
X66447200Y17819763D01*
X66447200Y17819763D02*
X66351961Y17724525D01*
X66351961Y17724525D02*
X66256723Y17676906D01*
X66256723Y17676906D02*
X66066247Y17629287D01*
X66066247Y17629287D02*
X65923390Y17629287D01*
X65923390Y17629287D02*
X65732914Y17676906D01*
X65732914Y17676906D02*
X65637676Y17724525D01*
X65637676Y17724525D02*
X65542438Y17819763D01*
X65542438Y17819763D02*
X65494819Y17962620D01*
X65494819Y17962620D02*
X65494819Y18057858D01*
X65494819Y18057858D02*
X65542438Y18200715D01*
X65542438Y18200715D02*
X65590057Y18248334D01*
X65494819Y19153096D02*
X65494819Y18676906D01*
X65494819Y18676906D02*
X65971009Y18629287D01*
X65971009Y18629287D02*
X65923390Y18676906D01*
X65923390Y18676906D02*
X65875771Y18772144D01*
X65875771Y18772144D02*
X65875771Y19010239D01*
X65875771Y19010239D02*
X65923390Y19105477D01*
X65923390Y19105477D02*
X65971009Y19153096D01*
X65971009Y19153096D02*
X66066247Y19200715D01*
X66066247Y19200715D02*
X66304342Y19200715D01*
X66304342Y19200715D02*
X66399580Y19153096D01*
X66399580Y19153096D02*
X66447200Y19105477D01*
X66447200Y19105477D02*
X66494819Y19010239D01*
X66494819Y19010239D02*
X66494819Y18772144D01*
X66494819Y18772144D02*
X66447200Y18676906D01*
X66447200Y18676906D02*
X66399580Y18629287D01*
X8723333Y13515181D02*
X8390000Y13991372D01*
X8151905Y13515181D02*
X8151905Y14515181D01*
X8151905Y14515181D02*
X8532857Y14515181D01*
X8532857Y14515181D02*
X8628095Y14467562D01*
X8628095Y14467562D02*
X8675714Y14419943D01*
X8675714Y14419943D02*
X8723333Y14324705D01*
X8723333Y14324705D02*
X8723333Y14181848D01*
X8723333Y14181848D02*
X8675714Y14086610D01*
X8675714Y14086610D02*
X8628095Y14038991D01*
X8628095Y14038991D02*
X8532857Y13991372D01*
X8532857Y13991372D02*
X8151905Y13991372D01*
X9675714Y13515181D02*
X9104286Y13515181D01*
X9390000Y13515181D02*
X9390000Y14515181D01*
X9390000Y14515181D02*
X9294762Y14372324D01*
X9294762Y14372324D02*
X9199524Y14277086D01*
X9199524Y14277086D02*
X9104286Y14229467D01*
X63293333Y40915420D02*
X63245714Y40867800D01*
X63245714Y40867800D02*
X63102857Y40820181D01*
X63102857Y40820181D02*
X63007619Y40820181D01*
X63007619Y40820181D02*
X62864762Y40867800D01*
X62864762Y40867800D02*
X62769524Y40963039D01*
X62769524Y40963039D02*
X62721905Y41058277D01*
X62721905Y41058277D02*
X62674286Y41248753D01*
X62674286Y41248753D02*
X62674286Y41391610D01*
X62674286Y41391610D02*
X62721905Y41582086D01*
X62721905Y41582086D02*
X62769524Y41677324D01*
X62769524Y41677324D02*
X62864762Y41772562D01*
X62864762Y41772562D02*
X63007619Y41820181D01*
X63007619Y41820181D02*
X63102857Y41820181D01*
X63102857Y41820181D02*
X63245714Y41772562D01*
X63245714Y41772562D02*
X63293333Y41724943D01*
X63674286Y41724943D02*
X63721905Y41772562D01*
X63721905Y41772562D02*
X63817143Y41820181D01*
X63817143Y41820181D02*
X64055238Y41820181D01*
X64055238Y41820181D02*
X64150476Y41772562D01*
X64150476Y41772562D02*
X64198095Y41724943D01*
X64198095Y41724943D02*
X64245714Y41629705D01*
X64245714Y41629705D02*
X64245714Y41534467D01*
X64245714Y41534467D02*
X64198095Y41391610D01*
X64198095Y41391610D02*
X63626667Y40820181D01*
X63626667Y40820181D02*
X64245714Y40820181D01*
X5101666Y1795181D02*
X5101666Y1080896D01*
X5101666Y1080896D02*
X5054047Y938039D01*
X5054047Y938039D02*
X4958809Y842800D01*
X4958809Y842800D02*
X4815952Y795181D01*
X4815952Y795181D02*
X4720714Y795181D01*
X6101666Y795181D02*
X5530238Y795181D01*
X5815952Y795181D02*
X5815952Y1795181D01*
X5815952Y1795181D02*
X5720714Y1652324D01*
X5720714Y1652324D02*
X5625476Y1557086D01*
X5625476Y1557086D02*
X5530238Y1509467D01*
X61468095Y44340181D02*
X61468095Y43530658D01*
X61468095Y43530658D02*
X61515714Y43435420D01*
X61515714Y43435420D02*
X61563333Y43387800D01*
X61563333Y43387800D02*
X61658571Y43340181D01*
X61658571Y43340181D02*
X61849047Y43340181D01*
X61849047Y43340181D02*
X61944285Y43387800D01*
X61944285Y43387800D02*
X61991904Y43435420D01*
X61991904Y43435420D02*
X62039523Y43530658D01*
X62039523Y43530658D02*
X62039523Y44340181D01*
X62468095Y44244943D02*
X62515714Y44292562D01*
X62515714Y44292562D02*
X62610952Y44340181D01*
X62610952Y44340181D02*
X62849047Y44340181D01*
X62849047Y44340181D02*
X62944285Y44292562D01*
X62944285Y44292562D02*
X62991904Y44244943D01*
X62991904Y44244943D02*
X63039523Y44149705D01*
X63039523Y44149705D02*
X63039523Y44054467D01*
X63039523Y44054467D02*
X62991904Y43911610D01*
X62991904Y43911610D02*
X62420476Y43340181D01*
X62420476Y43340181D02*
X63039523Y43340181D01*
X47444819Y6818334D02*
X46968628Y6485001D01*
X47444819Y6246906D02*
X46444819Y6246906D01*
X46444819Y6246906D02*
X46444819Y6627858D01*
X46444819Y6627858D02*
X46492438Y6723096D01*
X46492438Y6723096D02*
X46540057Y6770715D01*
X46540057Y6770715D02*
X46635295Y6818334D01*
X46635295Y6818334D02*
X46778152Y6818334D01*
X46778152Y6818334D02*
X46873390Y6770715D01*
X46873390Y6770715D02*
X46921009Y6723096D01*
X46921009Y6723096D02*
X46968628Y6627858D01*
X46968628Y6627858D02*
X46968628Y6246906D01*
X46540057Y7199287D02*
X46492438Y7246906D01*
X46492438Y7246906D02*
X46444819Y7342144D01*
X46444819Y7342144D02*
X46444819Y7580239D01*
X46444819Y7580239D02*
X46492438Y7675477D01*
X46492438Y7675477D02*
X46540057Y7723096D01*
X46540057Y7723096D02*
X46635295Y7770715D01*
X46635295Y7770715D02*
X46730533Y7770715D01*
X46730533Y7770715D02*
X46873390Y7723096D01*
X46873390Y7723096D02*
X47444819Y7151668D01*
X47444819Y7151668D02*
X47444819Y7770715D01*
X59626667Y4437800D02*
X59769524Y4390181D01*
X59769524Y4390181D02*
X60007619Y4390181D01*
X60007619Y4390181D02*
X60102857Y4437800D01*
X60102857Y4437800D02*
X60150476Y4485420D01*
X60150476Y4485420D02*
X60198095Y4580658D01*
X60198095Y4580658D02*
X60198095Y4675896D01*
X60198095Y4675896D02*
X60150476Y4771134D01*
X60150476Y4771134D02*
X60102857Y4818753D01*
X60102857Y4818753D02*
X60007619Y4866372D01*
X60007619Y4866372D02*
X59817143Y4913991D01*
X59817143Y4913991D02*
X59721905Y4961610D01*
X59721905Y4961610D02*
X59674286Y5009229D01*
X59674286Y5009229D02*
X59626667Y5104467D01*
X59626667Y5104467D02*
X59626667Y5199705D01*
X59626667Y5199705D02*
X59674286Y5294943D01*
X59674286Y5294943D02*
X59721905Y5342562D01*
X59721905Y5342562D02*
X59817143Y5390181D01*
X59817143Y5390181D02*
X60055238Y5390181D01*
X60055238Y5390181D02*
X60198095Y5342562D01*
X60531429Y5390181D02*
X60769524Y4390181D01*
X60769524Y4390181D02*
X60960000Y5104467D01*
X60960000Y5104467D02*
X61150476Y4390181D01*
X61150476Y4390181D02*
X61388572Y5390181D01*
X62245714Y5390181D02*
X61769524Y5390181D01*
X61769524Y5390181D02*
X61721905Y4913991D01*
X61721905Y4913991D02*
X61769524Y4961610D01*
X61769524Y4961610D02*
X61864762Y5009229D01*
X61864762Y5009229D02*
X62102857Y5009229D01*
X62102857Y5009229D02*
X62198095Y4961610D01*
X62198095Y4961610D02*
X62245714Y4913991D01*
X62245714Y4913991D02*
X62293333Y4818753D01*
X62293333Y4818753D02*
X62293333Y4580658D01*
X62293333Y4580658D02*
X62245714Y4485420D01*
X62245714Y4485420D02*
X62198095Y4437800D01*
X62198095Y4437800D02*
X62102857Y4390181D01*
X62102857Y4390181D02*
X61864762Y4390181D01*
X61864762Y4390181D02*
X61769524Y4437800D01*
X61769524Y4437800D02*
X61721905Y4485420D01*
X4381667Y28167800D02*
X4524524Y28120181D01*
X4524524Y28120181D02*
X4762619Y28120181D01*
X4762619Y28120181D02*
X4857857Y28167800D01*
X4857857Y28167800D02*
X4905476Y28215420D01*
X4905476Y28215420D02*
X4953095Y28310658D01*
X4953095Y28310658D02*
X4953095Y28405896D01*
X4953095Y28405896D02*
X4905476Y28501134D01*
X4905476Y28501134D02*
X4857857Y28548753D01*
X4857857Y28548753D02*
X4762619Y28596372D01*
X4762619Y28596372D02*
X4572143Y28643991D01*
X4572143Y28643991D02*
X4476905Y28691610D01*
X4476905Y28691610D02*
X4429286Y28739229D01*
X4429286Y28739229D02*
X4381667Y28834467D01*
X4381667Y28834467D02*
X4381667Y28929705D01*
X4381667Y28929705D02*
X4429286Y29024943D01*
X4429286Y29024943D02*
X4476905Y29072562D01*
X4476905Y29072562D02*
X4572143Y29120181D01*
X4572143Y29120181D02*
X4810238Y29120181D01*
X4810238Y29120181D02*
X4953095Y29072562D01*
X5286429Y29120181D02*
X5524524Y28120181D01*
X5524524Y28120181D02*
X5715000Y28834467D01*
X5715000Y28834467D02*
X5905476Y28120181D01*
X5905476Y28120181D02*
X6143572Y29120181D01*
X6476905Y29024943D02*
X6524524Y29072562D01*
X6524524Y29072562D02*
X6619762Y29120181D01*
X6619762Y29120181D02*
X6857857Y29120181D01*
X6857857Y29120181D02*
X6953095Y29072562D01*
X6953095Y29072562D02*
X7000714Y29024943D01*
X7000714Y29024943D02*
X7048333Y28929705D01*
X7048333Y28929705D02*
X7048333Y28834467D01*
X7048333Y28834467D02*
X7000714Y28691610D01*
X7000714Y28691610D02*
X6429286Y28120181D01*
X6429286Y28120181D02*
X7048333Y28120181D01*
D14*
X17600000Y4645000D02*
X23040000Y4645000D01*
X17600000Y4315000D02*
X17600000Y4645000D01*
X17600000Y2035000D02*
X17600000Y1705000D01*
X17600000Y1705000D02*
X23040000Y1705000D01*
X18380000Y4645000D02*
X18380000Y1705000D01*
X18500000Y4645000D02*
X18500000Y1705000D01*
X18620000Y4645000D02*
X18620000Y1705000D01*
X23040000Y4645000D02*
X23040000Y4315000D01*
X23040000Y1705000D02*
X23040000Y2035000D01*
X2215000Y37580000D02*
X2215000Y36080000D01*
X3465000Y33580000D02*
X7965000Y33580000D01*
X7965000Y40080000D02*
X3465000Y40080000D01*
X9215000Y36080000D02*
X9215000Y37580000D01*
D11*
X67280000Y30260001D02*
G75*
G02*
X67349105Y35891059I1300000J2799999D01*
G01*
X69799399Y35800289D02*
G75*
G02*
X69880000Y30360000I-1319399J-2740289D01*
G01*
D14*
X67515000Y25810000D02*
X67515000Y17410000D01*
X67515000Y17410000D02*
X70915000Y17410000D01*
X68265000Y26960000D02*
X68265000Y27410000D01*
X68670000Y25810000D02*
X68265000Y26960000D01*
X69760000Y25810000D02*
X70165000Y26960000D01*
X70165000Y26960000D02*
X70165000Y27410000D01*
X70915000Y25810000D02*
X67515000Y25810000D01*
X70915000Y17410000D02*
X70915000Y25810000D01*
X29040000Y8883000D02*
X29040000Y3942000D01*
X29040000Y8883000D02*
X39540000Y8883000D01*
X29040000Y6123000D02*
X30647000Y6123000D01*
X29040000Y3942000D02*
X39540000Y3942000D01*
X32440000Y8883000D02*
X32440000Y6865000D01*
X32853000Y6123000D02*
X33188000Y6123000D01*
X35393000Y6123000D02*
X35728000Y6123000D01*
X36141000Y8883000D02*
X36141000Y6865000D01*
X37933000Y6123000D02*
X39540000Y6123000D01*
X39540000Y8883000D02*
X39540000Y3942000D01*
X23290000Y7055000D02*
X22059000Y7055000D01*
X23290000Y7015000D02*
X22063000Y7015000D01*
X23290000Y6975000D02*
X22068000Y6975000D01*
X23290000Y6935000D02*
X22074000Y6935000D01*
X23290000Y6895000D02*
X22080000Y6895000D01*
X23290000Y6855000D02*
X22088000Y6855000D01*
X23290000Y6815000D02*
X22096000Y6815000D01*
X23290000Y6775000D02*
X22105000Y6775000D01*
X23290000Y6735000D02*
X22114000Y6735000D01*
X23290000Y6695000D02*
X22125000Y6695000D01*
X23290000Y6655000D02*
X22136000Y6655000D01*
X23290000Y6615000D02*
X22148000Y6615000D01*
X23290000Y6575000D02*
X22162000Y6575000D01*
X23290000Y6534000D02*
X22176000Y6534000D01*
X23290000Y6494000D02*
X22190000Y6494000D01*
X23290000Y6454000D02*
X22206000Y6454000D01*
X23290000Y6414000D02*
X22223000Y6414000D01*
X23290000Y6374000D02*
X22241000Y6374000D01*
X23290000Y6334000D02*
X22260000Y6334000D01*
X23290000Y6294000D02*
X22279000Y6294000D01*
X23290000Y6254000D02*
X22300000Y6254000D01*
X23290000Y6214000D02*
X22322000Y6214000D01*
X23290000Y6174000D02*
X22345000Y6174000D01*
X23290000Y6134000D02*
X22370000Y6134000D01*
X23290000Y6094000D02*
X22395000Y6094000D01*
X23290000Y6054000D02*
X22422000Y6054000D01*
X23290000Y6014000D02*
X22450000Y6014000D01*
X23290000Y5974000D02*
X22480000Y5974000D01*
X23290000Y5934000D02*
X22511000Y5934000D01*
X23290000Y5894000D02*
X22543000Y5894000D01*
X23290000Y5854000D02*
X22578000Y5854000D01*
X23290000Y5814000D02*
X22614000Y5814000D01*
X23290000Y5774000D02*
X22652000Y5774000D01*
X23290000Y5734000D02*
X22692000Y5734000D01*
X23290000Y5694000D02*
X22734000Y5694000D01*
X23290000Y5654000D02*
X22779000Y5654000D01*
X23290000Y5614000D02*
X22826000Y5614000D01*
X23290000Y5574000D02*
X22876000Y5574000D01*
X23290000Y5534000D02*
X22930000Y5534000D01*
X23290000Y5494000D02*
X22988000Y5494000D01*
X23290000Y5454000D02*
X23050000Y5454000D01*
X24500000Y5174000D02*
X23760000Y5174000D01*
X24667000Y5214000D02*
X23593000Y5214000D01*
X24794000Y5254000D02*
X23466000Y5254000D01*
X24898000Y5294000D02*
X23362000Y5294000D01*
X24989000Y5334000D02*
X23271000Y5334000D01*
X25070000Y5374000D02*
X23190000Y5374000D01*
X25143000Y5414000D02*
X23117000Y5414000D01*
X25210000Y5454000D02*
X24970000Y5454000D01*
X25272000Y5494000D02*
X24970000Y5494000D01*
X25325000Y9524801D02*
X25325000Y9124801D01*
X25330000Y5534000D02*
X24970000Y5534000D01*
X25384000Y5574000D02*
X24970000Y5574000D01*
X25434000Y5614000D02*
X24970000Y5614000D01*
X25481000Y5654000D02*
X24970000Y5654000D01*
X25525000Y9324801D02*
X25125000Y9324801D01*
X25526000Y5694000D02*
X24970000Y5694000D01*
X25568000Y5734000D02*
X24970000Y5734000D01*
X25608000Y5774000D02*
X24970000Y5774000D01*
X25646000Y5814000D02*
X24970000Y5814000D01*
X25682000Y5854000D02*
X24970000Y5854000D01*
X25717000Y5894000D02*
X24970000Y5894000D01*
X25749000Y5934000D02*
X24970000Y5934000D01*
X25780000Y5974000D02*
X24970000Y5974000D01*
X25810000Y6014000D02*
X24970000Y6014000D01*
X25838000Y6054000D02*
X24970000Y6054000D01*
X25865000Y6094000D02*
X24970000Y6094000D01*
X25890000Y6134000D02*
X24970000Y6134000D01*
X25915000Y6174000D02*
X24970000Y6174000D01*
X25938000Y6214000D02*
X24970000Y6214000D01*
X25960000Y6254000D02*
X24970000Y6254000D01*
X25981000Y6294000D02*
X24970000Y6294000D01*
X26000000Y6334000D02*
X24970000Y6334000D01*
X26019000Y6374000D02*
X24970000Y6374000D01*
X26037000Y6414000D02*
X24970000Y6414000D01*
X26054000Y6454000D02*
X24970000Y6454000D01*
X26070000Y6494000D02*
X24970000Y6494000D01*
X26084000Y6534000D02*
X24970000Y6534000D01*
X26098000Y6575000D02*
X24970000Y6575000D01*
X26112000Y6615000D02*
X24970000Y6615000D01*
X26124000Y6655000D02*
X24970000Y6655000D01*
X26135000Y6695000D02*
X24970000Y6695000D01*
X26146000Y6735000D02*
X24970000Y6735000D01*
X26155000Y6775000D02*
X24970000Y6775000D01*
X26164000Y6815000D02*
X24970000Y6815000D01*
X26172000Y6855000D02*
X24970000Y6855000D01*
X26180000Y6895000D02*
X24970000Y6895000D01*
X26186000Y6935000D02*
X24970000Y6935000D01*
X26192000Y6975000D02*
X24970000Y6975000D01*
X26197000Y7015000D02*
X24970000Y7015000D01*
X26201000Y7055000D02*
X24970000Y7055000D01*
X26204000Y7095000D02*
X22056000Y7095000D01*
X26207000Y7135000D02*
X22053000Y7135000D01*
X26209000Y7175000D02*
X22051000Y7175000D01*
X26210000Y7255000D02*
X22050000Y7255000D01*
X26210000Y7215000D02*
X22050000Y7215000D01*
X26250000Y7255000D02*
G75*
G02*
X22010000Y7255000I-2120000J0D01*
G01*
X22010000Y7255000D02*
G75*
G02*
X26250000Y7255000I2120000J0D01*
G01*
X11370000Y33345000D02*
X11370000Y28285000D01*
X11370000Y26285000D02*
X11370000Y21225000D01*
X11370000Y21225000D02*
X64830000Y21225000D01*
X64830000Y33345000D02*
X11370000Y33345000D01*
X64830000Y21225000D02*
X64830000Y33345000D01*
X11370000Y28285000D02*
G75*
G02*
X11370000Y26285000I0J-1000000D01*
G01*
X42340000Y7392599D02*
X41109000Y7392599D01*
X42340000Y7352599D02*
X41113000Y7352599D01*
X42340000Y7312599D02*
X41118000Y7312599D01*
X42340000Y7272599D02*
X41124000Y7272599D01*
X42340000Y7232599D02*
X41130000Y7232599D01*
X42340000Y7192599D02*
X41138000Y7192599D01*
X42340000Y7152599D02*
X41146000Y7152599D01*
X42340000Y7112599D02*
X41155000Y7112599D01*
X42340000Y7072599D02*
X41164000Y7072599D01*
X42340000Y7032599D02*
X41175000Y7032599D01*
X42340000Y6992599D02*
X41186000Y6992599D01*
X42340000Y6952599D02*
X41198000Y6952599D01*
X42340000Y6912599D02*
X41212000Y6912599D01*
X42340000Y6871599D02*
X41226000Y6871599D01*
X42340000Y6831599D02*
X41240000Y6831599D01*
X42340000Y6791599D02*
X41256000Y6791599D01*
X42340000Y6751599D02*
X41273000Y6751599D01*
X42340000Y6711599D02*
X41291000Y6711599D01*
X42340000Y6671599D02*
X41310000Y6671599D01*
X42340000Y6631599D02*
X41329000Y6631599D01*
X42340000Y6591599D02*
X41350000Y6591599D01*
X42340000Y6551599D02*
X41372000Y6551599D01*
X42340000Y6511599D02*
X41395000Y6511599D01*
X42340000Y6471599D02*
X41420000Y6471599D01*
X42340000Y6431599D02*
X41445000Y6431599D01*
X42340000Y6391599D02*
X41472000Y6391599D01*
X42340000Y6351599D02*
X41500000Y6351599D01*
X42340000Y6311599D02*
X41530000Y6311599D01*
X42340000Y6271599D02*
X41561000Y6271599D01*
X42340000Y6231599D02*
X41593000Y6231599D01*
X42340000Y6191599D02*
X41628000Y6191599D01*
X42340000Y6151599D02*
X41664000Y6151599D01*
X42340000Y6111599D02*
X41702000Y6111599D01*
X42340000Y6071599D02*
X41742000Y6071599D01*
X42340000Y6031599D02*
X41784000Y6031599D01*
X42340000Y5991599D02*
X41829000Y5991599D01*
X42340000Y5951599D02*
X41876000Y5951599D01*
X42340000Y5911599D02*
X41926000Y5911599D01*
X42340000Y5871599D02*
X41980000Y5871599D01*
X42340000Y5831599D02*
X42038000Y5831599D01*
X42340000Y5791599D02*
X42100000Y5791599D01*
X43550000Y5511599D02*
X42810000Y5511599D01*
X43717000Y5551599D02*
X42643000Y5551599D01*
X43844000Y5591599D02*
X42516000Y5591599D01*
X43948000Y5631599D02*
X42412000Y5631599D01*
X44039000Y5671599D02*
X42321000Y5671599D01*
X44120000Y5711599D02*
X42240000Y5711599D01*
X44193000Y5751599D02*
X42167000Y5751599D01*
X44260000Y5791599D02*
X44020000Y5791599D01*
X44322000Y5831599D02*
X44020000Y5831599D01*
X44375000Y9862400D02*
X44375000Y9462400D01*
X44380000Y5871599D02*
X44020000Y5871599D01*
X44434000Y5911599D02*
X44020000Y5911599D01*
X44484000Y5951599D02*
X44020000Y5951599D01*
X44531000Y5991599D02*
X44020000Y5991599D01*
X44575000Y9662400D02*
X44175000Y9662400D01*
X44576000Y6031599D02*
X44020000Y6031599D01*
X44618000Y6071599D02*
X44020000Y6071599D01*
X44658000Y6111599D02*
X44020000Y6111599D01*
X44696000Y6151599D02*
X44020000Y6151599D01*
X44732000Y6191599D02*
X44020000Y6191599D01*
X44767000Y6231599D02*
X44020000Y6231599D01*
X44799000Y6271599D02*
X44020000Y6271599D01*
X44830000Y6311599D02*
X44020000Y6311599D01*
X44860000Y6351599D02*
X44020000Y6351599D01*
X44888000Y6391599D02*
X44020000Y6391599D01*
X44915000Y6431599D02*
X44020000Y6431599D01*
X44940000Y6471599D02*
X44020000Y6471599D01*
X44965000Y6511599D02*
X44020000Y6511599D01*
X44988000Y6551599D02*
X44020000Y6551599D01*
X45010000Y6591599D02*
X44020000Y6591599D01*
X45031000Y6631599D02*
X44020000Y6631599D01*
X45050000Y6671599D02*
X44020000Y6671599D01*
X45069000Y6711599D02*
X44020000Y6711599D01*
X45087000Y6751599D02*
X44020000Y6751599D01*
X45104000Y6791599D02*
X44020000Y6791599D01*
X45120000Y6831599D02*
X44020000Y6831599D01*
X45134000Y6871599D02*
X44020000Y6871599D01*
X45148000Y6912599D02*
X44020000Y6912599D01*
X45162000Y6952599D02*
X44020000Y6952599D01*
X45174000Y6992599D02*
X44020000Y6992599D01*
X45185000Y7032599D02*
X44020000Y7032599D01*
X45196000Y7072599D02*
X44020000Y7072599D01*
X45205000Y7112599D02*
X44020000Y7112599D01*
X45214000Y7152599D02*
X44020000Y7152599D01*
X45222000Y7192599D02*
X44020000Y7192599D01*
X45230000Y7232599D02*
X44020000Y7232599D01*
X45236000Y7272599D02*
X44020000Y7272599D01*
X45242000Y7312599D02*
X44020000Y7312599D01*
X45247000Y7352599D02*
X44020000Y7352599D01*
X45251000Y7392599D02*
X44020000Y7392599D01*
X45254000Y7432599D02*
X41106000Y7432599D01*
X45257000Y7472599D02*
X41103000Y7472599D01*
X45259000Y7512599D02*
X41101000Y7512599D01*
X45260000Y7592599D02*
X41100000Y7592599D01*
X45260000Y7552599D02*
X41100000Y7552599D01*
X45300000Y7592599D02*
G75*
G02*
X41060000Y7592599I-2120000J0D01*
G01*
X41060000Y7592599D02*
G75*
G02*
X45300000Y7592599I2120000J0D01*
G01*
X57090000Y6290000D02*
X57090000Y7620000D01*
X58420000Y6290000D02*
X57090000Y6290000D01*
X59690000Y8950000D02*
X64830000Y8950000D01*
X59690000Y6290000D02*
X59690000Y8950000D01*
X59690000Y6290000D02*
X64830000Y6290000D01*
X64830000Y6290000D02*
X64830000Y8950000D01*
X2215000Y21070000D02*
X2215000Y19570000D01*
X3465000Y17070000D02*
X7965000Y17070000D01*
X7965000Y23570000D02*
X3465000Y23570000D01*
X9215000Y19570000D02*
X9215000Y21070000D01*
X64285000Y16225000D02*
X64285000Y12985000D01*
X64350000Y16225000D02*
X64285000Y16225000D01*
X64350000Y12985000D02*
X64285000Y12985000D01*
X66525000Y16225000D02*
X66460000Y16225000D01*
X66525000Y16225000D02*
X66525000Y12985000D01*
X66525000Y12985000D02*
X66460000Y12985000D01*
X3820000Y15890000D02*
X13960000Y15890000D01*
X3820000Y15410000D02*
X3820000Y15890000D01*
X3820000Y12530000D02*
X3820000Y12050000D01*
X3820000Y12050000D02*
X13960000Y12050000D01*
X13960000Y15890000D02*
X13960000Y15410000D01*
X13960000Y12050000D02*
X13960000Y12530000D01*
X61030000Y40085000D02*
X61030000Y39770000D01*
X61030000Y40085000D02*
X65970000Y40085000D01*
X61030000Y37660000D02*
X61030000Y37345000D01*
X61030000Y37345000D02*
X65970000Y37345000D01*
X65970000Y40085000D02*
X65970000Y39770000D01*
X65970000Y37660000D02*
X65970000Y37345000D01*
X85000Y11600000D02*
X14785000Y11600000D01*
X85000Y2400000D02*
X85000Y11600000D01*
X8885000Y2400000D02*
X85000Y2400000D01*
X13935000Y11800000D02*
X14985000Y11800000D01*
X14785000Y11600000D02*
X14785000Y9000000D01*
X14785000Y5100000D02*
X14785000Y2400000D01*
X14785000Y2400000D02*
X12885000Y2400000D01*
X14985000Y10750000D02*
X14985000Y11800000D01*
X11270000Y42770000D02*
X11270000Y12080000D01*
X11270000Y12080000D02*
X67370000Y12180000D01*
X67370000Y42749999D02*
X11270000Y42770000D01*
X67370000Y12180000D02*
X67370000Y42749999D01*
X48160000Y10255000D02*
X48160000Y3715000D01*
X48160000Y3715000D02*
X48490000Y3715000D01*
X48490000Y10255000D02*
X48160000Y10255000D01*
X50570000Y10255000D02*
X50900000Y10255000D01*
X50900000Y10255000D02*
X50900000Y3715000D01*
X50900000Y3715000D02*
X50570000Y3715000D01*
X57090000Y1210000D02*
X57090000Y2540000D01*
X58420000Y1210000D02*
X57090000Y1210000D01*
X59690000Y3870000D02*
X64830000Y3870000D01*
X59690000Y1210000D02*
X59690000Y3870000D01*
X59690000Y1210000D02*
X64830000Y1210000D01*
X64830000Y1210000D02*
X64830000Y3870000D01*
X2215000Y29325000D02*
X2215000Y27825000D01*
X3465000Y25325000D02*
X7965000Y25325000D01*
X7965000Y31825000D02*
X3465000Y31825000D01*
X9215000Y27825000D02*
X9215000Y29325000D01*
M02*
