G04 #@! TF.GenerationSoftware,KiCad,Pcbnew,8.0.8-8.0.8-0~ubuntu22.04.1*
G04 #@! TF.CreationDate,2025-01-23T11:36:05+09:00*
G04 #@! TF.ProjectId,vfdclock,76666463-6c6f-4636-9b2e-6b696361645f,1.1*
G04 #@! TF.SameCoordinates,PX6bf4b80PY716cdd8*
G04 #@! TF.FileFunction,Copper,L1,Top*
G04 #@! TF.FilePolarity,Positive*
%FSLAX46Y46*%
G04 Gerber Fmt 4.6, Leading zero omitted, Abs format (unit mm)*
G04 Created by KiCad (PCBNEW 8.0.8-8.0.8-0~ubuntu22.04.1) date 2025-01-23 11:36:05*
%MOMM*%
%LPD*%
G01*
G04 APERTURE LIST*
G04 Aperture macros list*
%AMRoundRect*
0 Rectangle with rounded corners*
0 $1 Rounding radius*
0 $2 $3 $4 $5 $6 $7 $8 $9 X,Y pos of 4 corners*
0 Add a 4 corners polygon primitive as box body*
4,1,4,$2,$3,$4,$5,$6,$7,$8,$9,$2,$3,0*
0 Add four circle primitives for the rounded corners*
1,1,$1+$1,$2,$3*
1,1,$1+$1,$4,$5*
1,1,$1+$1,$6,$7*
1,1,$1+$1,$8,$9*
0 Add four rect primitives between the rounded corners*
20,1,$1+$1,$2,$3,$4,$5,0*
20,1,$1+$1,$4,$5,$6,$7,0*
20,1,$1+$1,$6,$7,$8,$9,0*
20,1,$1+$1,$8,$9,$2,$3,0*%
G04 Aperture macros list end*
G04 #@! TA.AperFunction,ComponentPad*
%ADD10R,1.800000X1.800000*%
G04 #@! TD*
G04 #@! TA.AperFunction,ComponentPad*
%ADD11O,1.800000X1.800000*%
G04 #@! TD*
G04 #@! TA.AperFunction,ComponentPad*
%ADD12C,2.000000*%
G04 #@! TD*
G04 #@! TA.AperFunction,ComponentPad*
%ADD13C,2.200000*%
G04 #@! TD*
G04 #@! TA.AperFunction,ComponentPad*
%ADD14C,1.000000*%
G04 #@! TD*
G04 #@! TA.AperFunction,ComponentPad*
%ADD15R,1.905000X2.000000*%
G04 #@! TD*
G04 #@! TA.AperFunction,ComponentPad*
%ADD16O,1.905000X2.000000*%
G04 #@! TD*
G04 #@! TA.AperFunction,ComponentPad*
%ADD17R,1.200000X1.200000*%
G04 #@! TD*
G04 #@! TA.AperFunction,ComponentPad*
%ADD18C,1.200000*%
G04 #@! TD*
G04 #@! TA.AperFunction,ComponentPad*
%ADD19R,1.600000X2.400000*%
G04 #@! TD*
G04 #@! TA.AperFunction,ComponentPad*
%ADD20O,1.600000X2.400000*%
G04 #@! TD*
G04 #@! TA.AperFunction,ComponentPad*
%ADD21R,1.700000X1.700000*%
G04 #@! TD*
G04 #@! TA.AperFunction,ComponentPad*
%ADD22O,1.700000X1.700000*%
G04 #@! TD*
G04 #@! TA.AperFunction,ComponentPad*
%ADD23C,1.600000*%
G04 #@! TD*
G04 #@! TA.AperFunction,ComponentPad*
%ADD24C,2.400000*%
G04 #@! TD*
G04 #@! TA.AperFunction,ComponentPad*
%ADD25O,2.400000X2.400000*%
G04 #@! TD*
G04 #@! TA.AperFunction,ComponentPad*
%ADD26R,3.500000X3.500000*%
G04 #@! TD*
G04 #@! TA.AperFunction,ComponentPad*
%ADD27RoundRect,0.750000X-0.750000X-1.000000X0.750000X-1.000000X0.750000X1.000000X-0.750000X1.000000X0*%
G04 #@! TD*
G04 #@! TA.AperFunction,ComponentPad*
%ADD28RoundRect,0.875000X-0.875000X-0.875000X0.875000X-0.875000X0.875000X0.875000X-0.875000X0.875000X0*%
G04 #@! TD*
G04 #@! TA.AperFunction,ComponentPad*
%ADD29O,1.200000X2.000000*%
G04 #@! TD*
G04 #@! TA.AperFunction,ComponentPad*
%ADD30O,1.600000X1.600000*%
G04 #@! TD*
G04 #@! TA.AperFunction,ViaPad*
%ADD31C,0.609600*%
G04 #@! TD*
G04 #@! TA.AperFunction,Conductor*
%ADD32C,0.200000*%
G04 #@! TD*
G04 #@! TA.AperFunction,Conductor*
%ADD33C,0.152400*%
G04 #@! TD*
G04 #@! TA.AperFunction,Conductor*
%ADD34C,1.000000*%
G04 #@! TD*
G04 APERTURE END LIST*
D10*
X16510000Y3175000D03*
D11*
X24130000Y3175000D03*
D12*
X2465000Y39080000D03*
X8965000Y39080000D03*
X2465000Y34580000D03*
X8965000Y34580000D03*
D13*
X68580000Y30560000D03*
X68580000Y35560000D03*
D14*
X68265000Y28110000D03*
X70165000Y28110000D03*
D15*
X31750000Y5715000D03*
D16*
X34290000Y5715000D03*
X36830000Y5715000D03*
D17*
X24130000Y8255000D03*
D18*
X24130000Y6255000D03*
D19*
X12700000Y19665000D03*
D20*
X15240000Y19665000D03*
X17780000Y19665000D03*
X20320000Y19665000D03*
X22860000Y19665000D03*
X25400000Y19665000D03*
X27940000Y19665000D03*
X30480000Y19665000D03*
X33020000Y19665000D03*
X35560000Y19665000D03*
X38100000Y19665000D03*
X40640000Y19665000D03*
X43180000Y19665000D03*
X45720000Y19665000D03*
X48260000Y19665000D03*
X50800000Y19665000D03*
X53340000Y19665000D03*
X55880000Y19665000D03*
X58420000Y19665000D03*
X60960000Y19665000D03*
X63500000Y19665000D03*
X63500000Y34905000D03*
X60960000Y34905000D03*
X58420000Y34905000D03*
X55880000Y34905000D03*
X53340000Y34905000D03*
X50800000Y34905000D03*
X48260000Y34905000D03*
X45720000Y34905000D03*
X43180000Y34905000D03*
X40640000Y34905000D03*
X38100000Y34905000D03*
X35560000Y34905000D03*
X33020000Y34905000D03*
X30480000Y34905000D03*
X27940000Y34905000D03*
X25400000Y34905000D03*
X22860000Y34905000D03*
X20320000Y34905000D03*
X17780000Y34905000D03*
X15240000Y34905000D03*
X12700000Y34905000D03*
D17*
X43180000Y8592599D03*
D18*
X43180000Y6592599D03*
D21*
X58420000Y7620000D03*
D22*
X60960000Y7620000D03*
X63500000Y7620000D03*
D12*
X2465000Y22570000D03*
X8965000Y22570000D03*
X2465000Y18070000D03*
X8965000Y18070000D03*
D23*
X65405000Y15855000D03*
X65405000Y13355000D03*
D24*
X2540000Y13970000D03*
D25*
X15240000Y13970000D03*
D23*
X61000000Y38715000D03*
X66000000Y38715000D03*
D26*
X13885000Y7000000D03*
D27*
X7885000Y7000000D03*
D28*
X10885000Y2300000D03*
D29*
X17780000Y13710000D03*
X20320000Y13710000D03*
X22860000Y13710000D03*
X25400000Y13710000D03*
X27940000Y13710000D03*
X30480000Y13710000D03*
X33020000Y13710000D03*
X35560000Y13710000D03*
X38100000Y13710000D03*
X40640000Y13710000D03*
X43180000Y13710000D03*
X45720000Y13710000D03*
X48260000Y13710000D03*
X50800000Y13710000D03*
X53340000Y13710000D03*
X55880000Y13710000D03*
X58420000Y13710000D03*
X60960000Y13710000D03*
X58420000Y41250000D03*
X55880000Y41250000D03*
X53340000Y41250000D03*
X50800000Y41250000D03*
X48260000Y41250000D03*
X45720000Y41250000D03*
X43180000Y41250000D03*
X40640000Y41250000D03*
X38100000Y41250000D03*
X35560000Y41250000D03*
X33020000Y41250000D03*
X30480000Y41250000D03*
X27940000Y41250000D03*
X25400000Y41250000D03*
X22860000Y41250000D03*
X20320000Y41250000D03*
D23*
X49530000Y10795000D03*
D30*
X49530000Y3175000D03*
D21*
X58420000Y2540000D03*
D22*
X60960000Y2540000D03*
X63500000Y2540000D03*
D12*
X2465000Y30825000D03*
X8965000Y30825000D03*
X2465000Y26325000D03*
X8965000Y26325000D03*
D31*
X68580000Y9525000D03*
X18500000Y27920000D03*
X55330000Y27920000D03*
X14605000Y41890000D03*
X37550000Y27920000D03*
D32*
X62215000Y30560000D02*
X62310000Y30560000D01*
X58420000Y34900000D02*
X58420000Y34355000D01*
X68580000Y30560000D02*
X62310000Y30560000D01*
X58420000Y34355000D02*
X62215000Y30560000D01*
X68265000Y28150000D02*
X68265000Y30245000D01*
X68265000Y30245000D02*
X68580000Y30560000D01*
X60960000Y34905000D02*
X63500000Y32365000D01*
X63500000Y32365000D02*
X69235000Y32365000D01*
X61000000Y38715000D02*
X61000000Y34945000D01*
D33*
X61000000Y34945000D02*
X60960000Y34905000D01*
D32*
X70165000Y31435000D02*
X70165000Y28150000D01*
X69235000Y32365000D02*
X70165000Y31435000D01*
D34*
X31750000Y5715000D02*
X31750000Y8255000D01*
X43180000Y8592599D02*
X32087599Y8592599D01*
X32087599Y8592599D02*
X31750000Y8255000D01*
X14832500Y8255000D02*
X24130000Y8255000D01*
X13885000Y8340000D02*
X13885000Y7615000D01*
X31750000Y8255000D02*
X24130000Y8255000D01*
X8255000Y13970000D02*
X13885000Y8340000D01*
X53302599Y8592599D02*
X58420000Y13710000D01*
X13885000Y7307500D02*
X14832500Y8255000D01*
X2540000Y13970000D02*
X8255000Y13970000D01*
X43180000Y8592599D02*
X53302599Y8592599D01*
D32*
X13885000Y7307500D02*
X13885000Y7615000D01*
D34*
X52705000Y5080000D02*
X60960000Y13335000D01*
X60960000Y13335000D02*
X60960000Y13710000D01*
X34290000Y2540000D02*
X34290000Y5715000D01*
X34290000Y2540000D02*
X46355000Y2540000D01*
X24765000Y2540000D02*
X34290000Y2540000D01*
X24130000Y6255000D02*
X24130000Y3175000D01*
X46355000Y2540000D02*
X48895000Y5080000D01*
X48895000Y5080000D02*
X52705000Y5080000D01*
X24130000Y3175000D02*
X24765000Y2540000D01*
X7885000Y7615000D02*
X7885000Y5915000D01*
X10885000Y2915000D02*
X16250000Y2915000D01*
X16250000Y2915000D02*
X16510000Y3175000D01*
X7885000Y5915000D02*
X10885000Y2915000D01*
X15500000Y13710000D02*
X17780000Y13710000D01*
X15240000Y13970000D02*
X15500000Y13710000D01*
D32*
X2465000Y39080000D02*
X8965000Y39080000D01*
X17780000Y32730000D02*
X15875000Y30825000D01*
X15875000Y30825000D02*
X2465000Y30825000D01*
X17780000Y34900000D02*
X17780000Y32730000D01*
X2465000Y22570000D02*
X8965000Y22570000D01*
X62230000Y20935000D02*
X62230000Y8890000D01*
X17780000Y19860000D02*
X19490000Y21570000D01*
X62230000Y8890000D02*
X60960000Y7620000D01*
X19490000Y21570000D02*
X61595000Y21570000D01*
X61595000Y21570000D02*
X62230000Y20935000D01*
G04 #@! TA.AperFunction,Conductor*
G36*
X71443039Y46480315D02*
G01*
X71488794Y46427511D01*
X71500000Y46376000D01*
X71500000Y624000D01*
X71480315Y556961D01*
X71427511Y511206D01*
X71376000Y500000D01*
X13028574Y500000D01*
X12961535Y519685D01*
X12915780Y572489D01*
X12905836Y641647D01*
X12921628Y686758D01*
X12928803Y698986D01*
X13005574Y829810D01*
X13088245Y1048874D01*
X13132705Y1278759D01*
X13135500Y1331378D01*
X13135500Y1790500D01*
X13155185Y1857539D01*
X13207989Y1903294D01*
X13259500Y1914500D01*
X15215128Y1914500D01*
X15282167Y1894815D01*
X15289438Y1889768D01*
X15367669Y1831204D01*
X15367670Y1831204D01*
X15367671Y1831203D01*
X15502517Y1780909D01*
X15502516Y1780909D01*
X15509444Y1780165D01*
X15562127Y1774500D01*
X17457872Y1774501D01*
X17517483Y1780909D01*
X17652331Y1831204D01*
X17767546Y1917454D01*
X17853796Y2032669D01*
X17904091Y2167517D01*
X17910500Y2227127D01*
X17910499Y4122872D01*
X17904091Y4182483D01*
X17900031Y4193368D01*
X17853797Y4317329D01*
X17853793Y4317336D01*
X17767547Y4432545D01*
X17767544Y4432548D01*
X17652335Y4518794D01*
X17652328Y4518798D01*
X17517482Y4569092D01*
X17517483Y4569092D01*
X17457883Y4575499D01*
X17457881Y4575500D01*
X17457873Y4575500D01*
X17457865Y4575500D01*
X15940654Y4575500D01*
X15873615Y4595185D01*
X15827860Y4647989D01*
X15817916Y4717147D01*
X15846941Y4780703D01*
X15870894Y4800002D01*
X15870231Y4800888D01*
X15950136Y4860707D01*
X15992546Y4892454D01*
X16078796Y5007669D01*
X16129091Y5142517D01*
X16135500Y5202127D01*
X16135499Y7130501D01*
X16155184Y7197539D01*
X16207987Y7243294D01*
X16259499Y7254500D01*
X23188561Y7254500D01*
X23255600Y7234815D01*
X23262872Y7229767D01*
X23287669Y7211204D01*
X23287671Y7211204D01*
X23295454Y7206953D01*
X23293755Y7203843D01*
X23336124Y7172173D01*
X23360588Y7106726D01*
X23345784Y7038442D01*
X23320452Y7006158D01*
X23313236Y6999581D01*
X23190327Y6836822D01*
X23099422Y6654261D01*
X23099417Y6654248D01*
X23043602Y6458083D01*
X23024785Y6255001D01*
X23024785Y6255000D01*
X23043602Y6051918D01*
X23099417Y5855753D01*
X23099424Y5855736D01*
X23116499Y5821446D01*
X23129500Y5766173D01*
X23129500Y4204379D01*
X23109815Y4137340D01*
X23096730Y4120397D01*
X23021022Y4038156D01*
X23021020Y4038154D01*
X22894075Y3843849D01*
X22800842Y3631301D01*
X22743866Y3406309D01*
X22743864Y3406298D01*
X22724700Y3175007D01*
X22724700Y3174994D01*
X22743864Y2943703D01*
X22743866Y2943692D01*
X22800842Y2718700D01*
X22894075Y2506152D01*
X23021016Y2311853D01*
X23021019Y2311849D01*
X23021021Y2311847D01*
X23178216Y2141087D01*
X23178219Y2141085D01*
X23178222Y2141082D01*
X23361365Y1998536D01*
X23361371Y1998532D01*
X23361374Y1998530D01*
X23507928Y1919219D01*
X23552059Y1895336D01*
X23565497Y1888064D01*
X23664262Y1854158D01*
X23785015Y1812703D01*
X23785017Y1812703D01*
X23785019Y1812702D01*
X24013951Y1774500D01*
X24072183Y1774500D01*
X24139222Y1754815D01*
X24141074Y1753602D01*
X24291079Y1653372D01*
X24291088Y1653367D01*
X24318224Y1642127D01*
X24473165Y1577948D01*
X24666455Y1539500D01*
X24666458Y1539499D01*
X24666460Y1539499D01*
X24869655Y1539499D01*
X24869675Y1539500D01*
X46453542Y1539500D01*
X46472870Y1543345D01*
X46550188Y1558725D01*
X46646836Y1577949D01*
X46700165Y1600039D01*
X46828914Y1653368D01*
X46992782Y1762861D01*
X47132139Y1902218D01*
X47132139Y1902220D01*
X47142347Y1912427D01*
X47142348Y1912430D01*
X48078523Y2848604D01*
X48139842Y2882086D01*
X48209534Y2877102D01*
X48265467Y2835230D01*
X48285975Y2793014D01*
X48303259Y2728510D01*
X48303261Y2728503D01*
X48399431Y2522268D01*
X48399432Y2522266D01*
X48529954Y2335859D01*
X48690858Y2174955D01*
X48690861Y2174953D01*
X48877266Y2044432D01*
X49083504Y1948261D01*
X49303308Y1889365D01*
X49465230Y1875199D01*
X49529998Y1869532D01*
X49530000Y1869532D01*
X49530002Y1869532D01*
X49586673Y1874491D01*
X49756692Y1889365D01*
X49976496Y1948261D01*
X50182734Y2044432D01*
X50369139Y2174953D01*
X50530047Y2335861D01*
X50660568Y2522266D01*
X50756739Y2728504D01*
X50815635Y2948308D01*
X50832634Y3142616D01*
X50835468Y3174999D01*
X50835468Y3175002D01*
X50824569Y3299576D01*
X50815635Y3401692D01*
X50805943Y3437865D01*
X57069500Y3437865D01*
X57069500Y1642130D01*
X57069501Y1642124D01*
X57075908Y1582517D01*
X57126202Y1447672D01*
X57126206Y1447665D01*
X57212452Y1332456D01*
X57212455Y1332453D01*
X57327664Y1246207D01*
X57327671Y1246203D01*
X57462517Y1195909D01*
X57462516Y1195909D01*
X57469444Y1195165D01*
X57522127Y1189500D01*
X59317872Y1189501D01*
X59377483Y1195909D01*
X59512331Y1246204D01*
X59627546Y1332454D01*
X59713796Y1447669D01*
X59762810Y1579084D01*
X59804681Y1635016D01*
X59870145Y1659434D01*
X59938418Y1644583D01*
X59966673Y1623431D01*
X60088599Y1501505D01*
X60185384Y1433735D01*
X60282165Y1365968D01*
X60282167Y1365967D01*
X60282170Y1365965D01*
X60496337Y1266097D01*
X60724592Y1204937D01*
X60901034Y1189500D01*
X60959999Y1184341D01*
X60960000Y1184341D01*
X60960001Y1184341D01*
X61018966Y1189500D01*
X61195408Y1204937D01*
X61423663Y1266097D01*
X61637830Y1365965D01*
X61831401Y1501505D01*
X61998495Y1668599D01*
X62128425Y1854158D01*
X62183002Y1897783D01*
X62252500Y1904977D01*
X62314855Y1873454D01*
X62331575Y1854158D01*
X62461500Y1668605D01*
X62461505Y1668599D01*
X62628599Y1501505D01*
X62725384Y1433735D01*
X62822165Y1365968D01*
X62822167Y1365967D01*
X62822170Y1365965D01*
X63036337Y1266097D01*
X63264592Y1204937D01*
X63441034Y1189500D01*
X63499999Y1184341D01*
X63500000Y1184341D01*
X63500001Y1184341D01*
X63558966Y1189500D01*
X63735408Y1204937D01*
X63963663Y1266097D01*
X64177830Y1365965D01*
X64371401Y1501505D01*
X64538495Y1668599D01*
X64674035Y1862170D01*
X64773903Y2076337D01*
X64835063Y2304592D01*
X64855659Y2540000D01*
X64835063Y2775408D01*
X64773903Y3003663D01*
X64674035Y3217829D01*
X64668425Y3225842D01*
X64616808Y3299559D01*
X67099500Y3299559D01*
X67099500Y3050442D01*
X67099501Y3050425D01*
X67132017Y2803439D01*
X67196498Y2562793D01*
X67291830Y2332639D01*
X67291837Y2332624D01*
X67416400Y2116874D01*
X67568060Y1919226D01*
X67568066Y1919219D01*
X67744218Y1743067D01*
X67744225Y1743061D01*
X67941873Y1591401D01*
X68157623Y1466838D01*
X68157638Y1466831D01*
X68256825Y1425747D01*
X68387793Y1371498D01*
X68628435Y1307018D01*
X68875435Y1274500D01*
X68875442Y1274500D01*
X69124558Y1274500D01*
X69124565Y1274500D01*
X69371565Y1307018D01*
X69612207Y1371498D01*
X69842373Y1466836D01*
X70058127Y1591401D01*
X70255776Y1743062D01*
X70431938Y1919224D01*
X70583599Y2116873D01*
X70708164Y2332627D01*
X70803502Y2562793D01*
X70867982Y2803435D01*
X70900500Y3050435D01*
X70900500Y3299565D01*
X70867982Y3546565D01*
X70803502Y3787207D01*
X70745720Y3926706D01*
X70708169Y4017362D01*
X70708162Y4017377D01*
X70583599Y4233127D01*
X70431939Y4430775D01*
X70431933Y4430782D01*
X70255781Y4606934D01*
X70255774Y4606940D01*
X70058126Y4758600D01*
X69842376Y4883163D01*
X69842361Y4883170D01*
X69612207Y4978502D01*
X69503369Y5007665D01*
X69371565Y5042982D01*
X69371564Y5042983D01*
X69371561Y5042983D01*
X69124575Y5075499D01*
X69124570Y5075500D01*
X69124565Y5075500D01*
X68875435Y5075500D01*
X68875429Y5075500D01*
X68875424Y5075499D01*
X68628438Y5042983D01*
X68387792Y4978502D01*
X68157638Y4883170D01*
X68157623Y4883163D01*
X67941873Y4758600D01*
X67744225Y4606940D01*
X67744218Y4606934D01*
X67568066Y4430782D01*
X67568060Y4430775D01*
X67416400Y4233127D01*
X67291837Y4017377D01*
X67291830Y4017362D01*
X67196498Y3787208D01*
X67132017Y3546562D01*
X67099501Y3299576D01*
X67099500Y3299559D01*
X64616808Y3299559D01*
X64538494Y3411403D01*
X64371402Y3578494D01*
X64371395Y3578499D01*
X64177834Y3714033D01*
X64177830Y3714035D01*
X64168868Y3718214D01*
X63963663Y3813903D01*
X63963659Y3813904D01*
X63963655Y3813906D01*
X63735413Y3875062D01*
X63735403Y3875064D01*
X63500001Y3895659D01*
X63499999Y3895659D01*
X63264596Y3875064D01*
X63264586Y3875062D01*
X63036344Y3813906D01*
X63036335Y3813902D01*
X62822171Y3714036D01*
X62822169Y3714035D01*
X62628597Y3578495D01*
X62461505Y3411403D01*
X62331575Y3225842D01*
X62276998Y3182217D01*
X62207500Y3175023D01*
X62145145Y3206546D01*
X62128425Y3225842D01*
X61998494Y3411403D01*
X61831402Y3578494D01*
X61831395Y3578499D01*
X61637834Y3714033D01*
X61637830Y3714035D01*
X61628868Y3718214D01*
X61423663Y3813903D01*
X61423659Y3813904D01*
X61423655Y3813906D01*
X61195413Y3875062D01*
X61195403Y3875064D01*
X60960001Y3895659D01*
X60959999Y3895659D01*
X60724596Y3875064D01*
X60724586Y3875062D01*
X60496344Y3813906D01*
X60496335Y3813902D01*
X60282171Y3714036D01*
X60282169Y3714035D01*
X60088600Y3578497D01*
X59966673Y3456570D01*
X59905350Y3423086D01*
X59835658Y3428070D01*
X59779725Y3469942D01*
X59762810Y3500919D01*
X59713797Y3632329D01*
X59713793Y3632336D01*
X59627547Y3747545D01*
X59627544Y3747548D01*
X59512335Y3833794D01*
X59512328Y3833798D01*
X59377482Y3884092D01*
X59377483Y3884092D01*
X59317883Y3890499D01*
X59317881Y3890500D01*
X59317873Y3890500D01*
X59317864Y3890500D01*
X57522129Y3890500D01*
X57522123Y3890499D01*
X57462516Y3884092D01*
X57327671Y3833798D01*
X57327664Y3833794D01*
X57212455Y3747548D01*
X57212452Y3747545D01*
X57126206Y3632336D01*
X57126202Y3632329D01*
X57075908Y3497483D01*
X57069501Y3437884D01*
X57069500Y3437865D01*
X50805943Y3437865D01*
X50768261Y3578495D01*
X50756741Y3621489D01*
X50756738Y3621498D01*
X50751687Y3632329D01*
X50660568Y3827734D01*
X50620905Y3884379D01*
X50598579Y3950583D01*
X50615589Y4018350D01*
X50666537Y4066163D01*
X50722481Y4079500D01*
X52803542Y4079500D01*
X52822870Y4083345D01*
X52900188Y4098725D01*
X52996836Y4117949D01*
X53050165Y4140039D01*
X53178914Y4193368D01*
X53342782Y4302861D01*
X53482139Y4442218D01*
X53482140Y4442221D01*
X53489206Y4449286D01*
X53489209Y4449290D01*
X56857821Y7817903D01*
X56919142Y7851386D01*
X56988834Y7846402D01*
X57044767Y7804530D01*
X57069184Y7739066D01*
X57069500Y7730220D01*
X57069500Y6722130D01*
X57069501Y6722124D01*
X57075908Y6662517D01*
X57126202Y6527672D01*
X57126206Y6527665D01*
X57212452Y6412456D01*
X57212455Y6412453D01*
X57327664Y6326207D01*
X57327671Y6326203D01*
X57462517Y6275909D01*
X57462516Y6275909D01*
X57469444Y6275165D01*
X57522127Y6269500D01*
X59317872Y6269501D01*
X59377483Y6275909D01*
X59512331Y6326204D01*
X59627546Y6412454D01*
X59713796Y6527669D01*
X59762810Y6659084D01*
X59804681Y6715016D01*
X59870145Y6739434D01*
X59938418Y6724583D01*
X59966673Y6703431D01*
X60088599Y6581505D01*
X60170670Y6524038D01*
X60282165Y6445968D01*
X60282167Y6445967D01*
X60282170Y6445965D01*
X60496337Y6346097D01*
X60724592Y6284937D01*
X60901034Y6269500D01*
X60959999Y6264341D01*
X60960000Y6264341D01*
X60960001Y6264341D01*
X61018966Y6269500D01*
X61195408Y6284937D01*
X61423663Y6346097D01*
X61637830Y6445965D01*
X61831401Y6581505D01*
X61998495Y6748599D01*
X62128425Y6934158D01*
X62183002Y6977783D01*
X62252500Y6984977D01*
X62314855Y6953454D01*
X62331575Y6934158D01*
X62461500Y6748605D01*
X62461505Y6748599D01*
X62628599Y6581505D01*
X62710670Y6524038D01*
X62822165Y6445968D01*
X62822167Y6445967D01*
X62822170Y6445965D01*
X63036337Y6346097D01*
X63264592Y6284937D01*
X63441034Y6269500D01*
X63499999Y6264341D01*
X63500000Y6264341D01*
X63500001Y6264341D01*
X63558966Y6269500D01*
X63735408Y6284937D01*
X63963663Y6346097D01*
X64177830Y6445965D01*
X64371401Y6581505D01*
X64538495Y6748599D01*
X64674035Y6942170D01*
X64773903Y7156337D01*
X64835063Y7384592D01*
X64855659Y7620000D01*
X64852803Y7652638D01*
X64838558Y7815460D01*
X64835063Y7855408D01*
X64779114Y8064216D01*
X64773905Y8083656D01*
X64773904Y8083657D01*
X64773903Y8083663D01*
X64674035Y8297829D01*
X64592214Y8414683D01*
X64538494Y8491403D01*
X64371402Y8658494D01*
X64371395Y8658499D01*
X64177834Y8794033D01*
X64177830Y8794035D01*
X64155075Y8804646D01*
X63963663Y8893903D01*
X63963659Y8893904D01*
X63963655Y8893906D01*
X63735413Y8955062D01*
X63735403Y8955064D01*
X63500001Y8975659D01*
X63499999Y8975659D01*
X63264596Y8955064D01*
X63264586Y8955062D01*
X63036344Y8893906D01*
X63036335Y8893902D01*
X63006903Y8880178D01*
X62937826Y8869687D01*
X62874042Y8898208D01*
X62835803Y8956685D01*
X62830500Y8992561D01*
X62830500Y15855002D01*
X64099532Y15855002D01*
X64099532Y15854999D01*
X64119364Y15628314D01*
X64119366Y15628303D01*
X64178258Y15408512D01*
X64178261Y15408503D01*
X64274431Y15202268D01*
X64274432Y15202266D01*
X64404954Y15015859D01*
X64565858Y14854955D01*
X64565861Y14854953D01*
X64752266Y14724432D01*
X64767975Y14717107D01*
X64820414Y14670936D01*
X64839567Y14603743D01*
X64819352Y14536862D01*
X64767979Y14492344D01*
X64752514Y14485133D01*
X64752512Y14485132D01*
X64679526Y14434027D01*
X64679526Y14434026D01*
X65358553Y13755000D01*
X65352339Y13755000D01*
X65250606Y13727741D01*
X65159394Y13675080D01*
X65084920Y13600606D01*
X65032259Y13509394D01*
X65005000Y13407661D01*
X65005000Y13401448D01*
X64325974Y14080474D01*
X64325973Y14080474D01*
X64274868Y14007488D01*
X64274866Y14007484D01*
X64178734Y13801327D01*
X64178730Y13801318D01*
X64119860Y13581611D01*
X64119858Y13581600D01*
X64100034Y13355003D01*
X64100034Y13354998D01*
X64119858Y13128401D01*
X64119860Y13128390D01*
X64178730Y12908683D01*
X64178735Y12908669D01*
X64274863Y12702522D01*
X64325974Y12629528D01*
X65005000Y13308554D01*
X65005000Y13302339D01*
X65032259Y13200606D01*
X65084920Y13109394D01*
X65159394Y13034920D01*
X65250606Y12982259D01*
X65352339Y12955000D01*
X65358553Y12955000D01*
X64679526Y12275975D01*
X64752513Y12224868D01*
X64752521Y12224864D01*
X64958668Y12128736D01*
X64958682Y12128731D01*
X65178389Y12069861D01*
X65178400Y12069859D01*
X65404998Y12050034D01*
X65405002Y12050034D01*
X65631599Y12069859D01*
X65631610Y12069861D01*
X65851317Y12128731D01*
X65851331Y12128736D01*
X66057478Y12224864D01*
X66130471Y12275976D01*
X65451447Y12955000D01*
X65457661Y12955000D01*
X65559394Y12982259D01*
X65650606Y13034920D01*
X65725080Y13109394D01*
X65777741Y13200606D01*
X65805000Y13302339D01*
X65805000Y13308553D01*
X66484024Y12629529D01*
X66535136Y12702522D01*
X66631264Y12908669D01*
X66631269Y12908683D01*
X66690139Y13128390D01*
X66690141Y13128401D01*
X66709966Y13354998D01*
X66709966Y13355003D01*
X66690141Y13581600D01*
X66690139Y13581611D01*
X66631269Y13801318D01*
X66631264Y13801332D01*
X66535136Y14007479D01*
X66535132Y14007487D01*
X66484025Y14080474D01*
X65805000Y13401449D01*
X65805000Y13407661D01*
X65777741Y13509394D01*
X65725080Y13600606D01*
X65650606Y13675080D01*
X65559394Y13727741D01*
X65457661Y13755000D01*
X65451445Y13755000D01*
X66130472Y14434026D01*
X66057480Y14485136D01*
X66042024Y14492343D01*
X65989585Y14538516D01*
X65970433Y14605710D01*
X65990649Y14672591D01*
X66042023Y14717107D01*
X66057734Y14724432D01*
X66244139Y14854953D01*
X66405047Y15015861D01*
X66535568Y15202266D01*
X66631739Y15408504D01*
X66690635Y15628308D01*
X66710468Y15855000D01*
X66690635Y16081692D01*
X66631739Y16301496D01*
X66535568Y16507734D01*
X66405047Y16694139D01*
X66405045Y16694142D01*
X66244141Y16855046D01*
X66057734Y16985568D01*
X66057732Y16985569D01*
X65851497Y17081739D01*
X65851488Y17081742D01*
X65631697Y17140634D01*
X65631693Y17140635D01*
X65631692Y17140635D01*
X65631691Y17140636D01*
X65631686Y17140636D01*
X65405002Y17160468D01*
X65404998Y17160468D01*
X65178313Y17140636D01*
X65178302Y17140634D01*
X64958511Y17081742D01*
X64958502Y17081739D01*
X64752267Y16985569D01*
X64752265Y16985568D01*
X64565858Y16855046D01*
X64404954Y16694142D01*
X64274432Y16507735D01*
X64274431Y16507733D01*
X64178261Y16301498D01*
X64178258Y16301489D01*
X64119366Y16081698D01*
X64119364Y16081687D01*
X64099532Y15855002D01*
X62830500Y15855002D01*
X62830500Y17944734D01*
X62850185Y18011773D01*
X62902989Y18057528D01*
X62972147Y18067472D01*
X62996029Y18060920D01*
X62996148Y18061286D01*
X63000777Y18059782D01*
X63000781Y18059780D01*
X63119506Y18021204D01*
X63195465Y17996523D01*
X63296557Y17980512D01*
X63397648Y17964500D01*
X63397649Y17964500D01*
X63602351Y17964500D01*
X63602352Y17964500D01*
X63804534Y17996523D01*
X63999219Y18059780D01*
X64181610Y18152713D01*
X64277901Y18222672D01*
X64347213Y18273029D01*
X64347215Y18273032D01*
X64347219Y18273034D01*
X64491966Y18417781D01*
X64491968Y18417785D01*
X64491971Y18417787D01*
X64559046Y18510110D01*
X64612287Y18583390D01*
X64705220Y18765781D01*
X64768477Y18960466D01*
X64800500Y19162648D01*
X64800500Y20167352D01*
X64768477Y20369534D01*
X64705220Y20564219D01*
X64705218Y20564222D01*
X64705218Y20564224D01*
X64659515Y20653920D01*
X64612287Y20746610D01*
X64604556Y20757251D01*
X64491971Y20912214D01*
X64347213Y21056972D01*
X64181613Y21177285D01*
X64181612Y21177286D01*
X64181610Y21177287D01*
X64103712Y21216978D01*
X63999223Y21270219D01*
X63804534Y21333478D01*
X63629995Y21361122D01*
X63602352Y21365500D01*
X63397648Y21365500D01*
X63373329Y21361649D01*
X63195465Y21333478D01*
X63043759Y21284185D01*
X63000781Y21270220D01*
X63000778Y21270219D01*
X63000776Y21270218D01*
X62896287Y21216978D01*
X62827617Y21204082D01*
X62762877Y21230358D01*
X62732605Y21265462D01*
X62710520Y21303716D01*
X62082589Y21931646D01*
X62082588Y21931648D01*
X61963717Y22050519D01*
X61963716Y22050520D01*
X61876904Y22100640D01*
X61876904Y22100641D01*
X61876900Y22100642D01*
X61826785Y22129577D01*
X61674057Y22170501D01*
X61515943Y22170501D01*
X61508347Y22170501D01*
X61508331Y22170500D01*
X19569057Y22170500D01*
X19410942Y22170500D01*
X19258215Y22129577D01*
X19258214Y22129577D01*
X19258212Y22129576D01*
X19258209Y22129575D01*
X19208096Y22100641D01*
X19208095Y22100640D01*
X19164689Y22075580D01*
X19121285Y22050521D01*
X19121282Y22050519D01*
X19009478Y21938714D01*
X18379568Y21308805D01*
X18318245Y21275320D01*
X18253569Y21278555D01*
X18084537Y21333477D01*
X17922810Y21359092D01*
X17882352Y21365500D01*
X17677648Y21365500D01*
X17653329Y21361649D01*
X17475465Y21333478D01*
X17280776Y21270219D01*
X17098386Y21177285D01*
X16932786Y21056972D01*
X16788028Y20912214D01*
X16667715Y20746614D01*
X16620485Y20653920D01*
X16572510Y20603124D01*
X16504689Y20586329D01*
X16438554Y20608866D01*
X16399515Y20653920D01*
X16398883Y20655160D01*
X16352287Y20746610D01*
X16344556Y20757251D01*
X16231971Y20912214D01*
X16087213Y21056972D01*
X15921613Y21177285D01*
X15921612Y21177286D01*
X15921610Y21177287D01*
X15843712Y21216978D01*
X15739223Y21270219D01*
X15544534Y21333478D01*
X15369995Y21361122D01*
X15342352Y21365500D01*
X15137648Y21365500D01*
X15113329Y21361649D01*
X14935465Y21333478D01*
X14740776Y21270219D01*
X14558386Y21177285D01*
X14392786Y21056972D01*
X14248032Y20912218D01*
X14221668Y20875930D01*
X14166338Y20833265D01*
X14096724Y20827286D01*
X14034929Y20859892D01*
X14000572Y20920731D01*
X13998060Y20935562D01*
X13997640Y20939467D01*
X13994091Y20972483D01*
X13943796Y21107331D01*
X13943795Y21107332D01*
X13943793Y21107336D01*
X13857547Y21222545D01*
X13857544Y21222548D01*
X13742335Y21308794D01*
X13742328Y21308798D01*
X13607482Y21359092D01*
X13607483Y21359092D01*
X13547883Y21365499D01*
X13547881Y21365500D01*
X13547873Y21365500D01*
X13547864Y21365500D01*
X11852129Y21365500D01*
X11852123Y21365499D01*
X11792516Y21359092D01*
X11657671Y21308798D01*
X11657664Y21308794D01*
X11542455Y21222548D01*
X11542452Y21222545D01*
X11456206Y21107336D01*
X11456202Y21107329D01*
X11405908Y20972483D01*
X11399501Y20912884D01*
X11399500Y20912865D01*
X11399500Y18417130D01*
X11399501Y18417124D01*
X11405908Y18357517D01*
X11456202Y18222672D01*
X11456206Y18222665D01*
X11542452Y18107456D01*
X11542455Y18107453D01*
X11657664Y18021207D01*
X11657671Y18021203D01*
X11792517Y17970909D01*
X11792516Y17970909D01*
X11799444Y17970165D01*
X11852127Y17964500D01*
X13547872Y17964501D01*
X13607483Y17970909D01*
X13742331Y18021204D01*
X13857546Y18107454D01*
X13943796Y18222669D01*
X13994091Y18357517D01*
X13998061Y18394444D01*
X14024796Y18458989D01*
X14082188Y18498839D01*
X14152013Y18501334D01*
X14212102Y18465683D01*
X14221667Y18454071D01*
X14248032Y18417783D01*
X14392786Y18273029D01*
X14547749Y18160444D01*
X14558390Y18152713D01*
X14647212Y18107456D01*
X14740776Y18059782D01*
X14740778Y18059782D01*
X14740781Y18059780D01*
X14815535Y18035491D01*
X14935465Y17996523D01*
X15036557Y17980512D01*
X15137648Y17964500D01*
X15137649Y17964500D01*
X15342351Y17964500D01*
X15342352Y17964500D01*
X15544534Y17996523D01*
X15739219Y18059780D01*
X15921610Y18152713D01*
X16017901Y18222672D01*
X16087213Y18273029D01*
X16087215Y18273032D01*
X16087219Y18273034D01*
X16231966Y18417781D01*
X16231968Y18417785D01*
X16231971Y18417787D01*
X16352284Y18583386D01*
X16352285Y18583387D01*
X16352287Y18583390D01*
X16399516Y18676083D01*
X16447489Y18726877D01*
X16515310Y18743672D01*
X16581445Y18721135D01*
X16620485Y18676081D01*
X16667715Y18583386D01*
X16788028Y18417787D01*
X16932786Y18273029D01*
X17087749Y18160444D01*
X17098390Y18152713D01*
X17187212Y18107456D01*
X17280776Y18059782D01*
X17280778Y18059782D01*
X17280781Y18059780D01*
X17355535Y18035491D01*
X17475465Y17996523D01*
X17576557Y17980512D01*
X17677648Y17964500D01*
X17677649Y17964500D01*
X17882351Y17964500D01*
X17882352Y17964500D01*
X18084534Y17996523D01*
X18279219Y18059780D01*
X18461610Y18152713D01*
X18557901Y18222672D01*
X18627213Y18273029D01*
X18627215Y18273032D01*
X18627219Y18273034D01*
X18771966Y18417781D01*
X18771968Y18417785D01*
X18771971Y18417787D01*
X18892284Y18583386D01*
X18892285Y18583387D01*
X18892287Y18583390D01*
X18939516Y18676083D01*
X18987489Y18726877D01*
X19055310Y18743672D01*
X19121445Y18721135D01*
X19160485Y18676081D01*
X19207715Y18583386D01*
X19328028Y18417787D01*
X19472786Y18273029D01*
X19627749Y18160444D01*
X19638390Y18152713D01*
X19727212Y18107456D01*
X19820776Y18059782D01*
X19820778Y18059782D01*
X19820781Y18059780D01*
X19895535Y18035491D01*
X20015465Y17996523D01*
X20116557Y17980512D01*
X20217648Y17964500D01*
X20217649Y17964500D01*
X20422351Y17964500D01*
X20422352Y17964500D01*
X20624534Y17996523D01*
X20819219Y18059780D01*
X21001610Y18152713D01*
X21097901Y18222672D01*
X21167213Y18273029D01*
X21167215Y18273032D01*
X21167219Y18273034D01*
X21311966Y18417781D01*
X21311968Y18417785D01*
X21311971Y18417787D01*
X21432284Y18583386D01*
X21432285Y18583387D01*
X21432287Y18583390D01*
X21479516Y18676083D01*
X21527489Y18726877D01*
X21595310Y18743672D01*
X21661445Y18721135D01*
X21700485Y18676081D01*
X21747715Y18583386D01*
X21868028Y18417787D01*
X22012786Y18273029D01*
X22167749Y18160444D01*
X22178390Y18152713D01*
X22267212Y18107456D01*
X22360776Y18059782D01*
X22360778Y18059782D01*
X22360781Y18059780D01*
X22435535Y18035491D01*
X22555465Y17996523D01*
X22656557Y17980512D01*
X22757648Y17964500D01*
X22757649Y17964500D01*
X22962351Y17964500D01*
X22962352Y17964500D01*
X23164534Y17996523D01*
X23359219Y18059780D01*
X23541610Y18152713D01*
X23637901Y18222672D01*
X23707213Y18273029D01*
X23707215Y18273032D01*
X23707219Y18273034D01*
X23851966Y18417781D01*
X23851968Y18417785D01*
X23851971Y18417787D01*
X23972284Y18583386D01*
X23972285Y18583387D01*
X23972287Y18583390D01*
X24019516Y18676083D01*
X24067489Y18726877D01*
X24135310Y18743672D01*
X24201445Y18721135D01*
X24240485Y18676081D01*
X24287715Y18583386D01*
X24408028Y18417787D01*
X24552786Y18273029D01*
X24707749Y18160444D01*
X24718390Y18152713D01*
X24807212Y18107456D01*
X24900776Y18059782D01*
X24900778Y18059782D01*
X24900781Y18059780D01*
X24975535Y18035491D01*
X25095465Y17996523D01*
X25196557Y17980512D01*
X25297648Y17964500D01*
X25297649Y17964500D01*
X25502351Y17964500D01*
X25502352Y17964500D01*
X25704534Y17996523D01*
X25899219Y18059780D01*
X26081610Y18152713D01*
X26177901Y18222672D01*
X26247213Y18273029D01*
X26247215Y18273032D01*
X26247219Y18273034D01*
X26391966Y18417781D01*
X26391968Y18417785D01*
X26391971Y18417787D01*
X26512284Y18583386D01*
X26512285Y18583387D01*
X26512287Y18583390D01*
X26559516Y18676083D01*
X26607489Y18726877D01*
X26675310Y18743672D01*
X26741445Y18721135D01*
X26780485Y18676081D01*
X26827715Y18583386D01*
X26948028Y18417787D01*
X27092786Y18273029D01*
X27247749Y18160444D01*
X27258390Y18152713D01*
X27347212Y18107456D01*
X27440776Y18059782D01*
X27440778Y18059782D01*
X27440781Y18059780D01*
X27515535Y18035491D01*
X27635465Y17996523D01*
X27736557Y17980512D01*
X27837648Y17964500D01*
X27837649Y17964500D01*
X28042351Y17964500D01*
X28042352Y17964500D01*
X28244534Y17996523D01*
X28439219Y18059780D01*
X28621610Y18152713D01*
X28717901Y18222672D01*
X28787213Y18273029D01*
X28787215Y18273032D01*
X28787219Y18273034D01*
X28931966Y18417781D01*
X28931968Y18417785D01*
X28931971Y18417787D01*
X29052284Y18583386D01*
X29052285Y18583387D01*
X29052287Y18583390D01*
X29099516Y18676083D01*
X29147489Y18726877D01*
X29215310Y18743672D01*
X29281445Y18721135D01*
X29320485Y18676081D01*
X29367715Y18583386D01*
X29488028Y18417787D01*
X29632786Y18273029D01*
X29787749Y18160444D01*
X29798390Y18152713D01*
X29887212Y18107456D01*
X29980776Y18059782D01*
X29980778Y18059782D01*
X29980781Y18059780D01*
X30055535Y18035491D01*
X30175465Y17996523D01*
X30276557Y17980512D01*
X30377648Y17964500D01*
X30377649Y17964500D01*
X30582351Y17964500D01*
X30582352Y17964500D01*
X30784534Y17996523D01*
X30979219Y18059780D01*
X31161610Y18152713D01*
X31257901Y18222672D01*
X31327213Y18273029D01*
X31327215Y18273032D01*
X31327219Y18273034D01*
X31471966Y18417781D01*
X31471968Y18417785D01*
X31471971Y18417787D01*
X31592284Y18583386D01*
X31592285Y18583387D01*
X31592287Y18583390D01*
X31639516Y18676083D01*
X31687489Y18726877D01*
X31755310Y18743672D01*
X31821445Y18721135D01*
X31860485Y18676081D01*
X31907715Y18583386D01*
X32028028Y18417787D01*
X32172786Y18273029D01*
X32327749Y18160444D01*
X32338390Y18152713D01*
X32427212Y18107456D01*
X32520776Y18059782D01*
X32520778Y18059782D01*
X32520781Y18059780D01*
X32595535Y18035491D01*
X32715465Y17996523D01*
X32816557Y17980512D01*
X32917648Y17964500D01*
X32917649Y17964500D01*
X33122351Y17964500D01*
X33122352Y17964500D01*
X33324534Y17996523D01*
X33519219Y18059780D01*
X33701610Y18152713D01*
X33797901Y18222672D01*
X33867213Y18273029D01*
X33867215Y18273032D01*
X33867219Y18273034D01*
X34011966Y18417781D01*
X34011968Y18417785D01*
X34011971Y18417787D01*
X34132284Y18583386D01*
X34132285Y18583387D01*
X34132287Y18583390D01*
X34179516Y18676083D01*
X34227489Y18726877D01*
X34295310Y18743672D01*
X34361445Y18721135D01*
X34400485Y18676081D01*
X34447715Y18583386D01*
X34568028Y18417787D01*
X34712786Y18273029D01*
X34867749Y18160444D01*
X34878390Y18152713D01*
X34967212Y18107456D01*
X35060776Y18059782D01*
X35060778Y18059782D01*
X35060781Y18059780D01*
X35135535Y18035491D01*
X35255465Y17996523D01*
X35356557Y17980512D01*
X35457648Y17964500D01*
X35457649Y17964500D01*
X35662351Y17964500D01*
X35662352Y17964500D01*
X35864534Y17996523D01*
X36059219Y18059780D01*
X36241610Y18152713D01*
X36337901Y18222672D01*
X36407213Y18273029D01*
X36407215Y18273032D01*
X36407219Y18273034D01*
X36551966Y18417781D01*
X36551968Y18417785D01*
X36551971Y18417787D01*
X36672284Y18583386D01*
X36672285Y18583387D01*
X36672287Y18583390D01*
X36719516Y18676083D01*
X36767489Y18726877D01*
X36835310Y18743672D01*
X36901445Y18721135D01*
X36940485Y18676081D01*
X36987715Y18583386D01*
X37108028Y18417787D01*
X37252786Y18273029D01*
X37407749Y18160444D01*
X37418390Y18152713D01*
X37507212Y18107456D01*
X37600776Y18059782D01*
X37600778Y18059782D01*
X37600781Y18059780D01*
X37675535Y18035491D01*
X37795465Y17996523D01*
X37896557Y17980512D01*
X37997648Y17964500D01*
X37997649Y17964500D01*
X38202351Y17964500D01*
X38202352Y17964500D01*
X38404534Y17996523D01*
X38599219Y18059780D01*
X38781610Y18152713D01*
X38877901Y18222672D01*
X38947213Y18273029D01*
X38947215Y18273032D01*
X38947219Y18273034D01*
X39091966Y18417781D01*
X39091968Y18417785D01*
X39091971Y18417787D01*
X39212284Y18583386D01*
X39212285Y18583387D01*
X39212287Y18583390D01*
X39259516Y18676083D01*
X39307489Y18726877D01*
X39375310Y18743672D01*
X39441445Y18721135D01*
X39480485Y18676081D01*
X39527715Y18583386D01*
X39648028Y18417787D01*
X39792786Y18273029D01*
X39947749Y18160444D01*
X39958390Y18152713D01*
X40047212Y18107456D01*
X40140776Y18059782D01*
X40140778Y18059782D01*
X40140781Y18059780D01*
X40215535Y18035491D01*
X40335465Y17996523D01*
X40436557Y17980512D01*
X40537648Y17964500D01*
X40537649Y17964500D01*
X40742351Y17964500D01*
X40742352Y17964500D01*
X40944534Y17996523D01*
X41139219Y18059780D01*
X41321610Y18152713D01*
X41417901Y18222672D01*
X41487213Y18273029D01*
X41487215Y18273032D01*
X41487219Y18273034D01*
X41631966Y18417781D01*
X41631968Y18417785D01*
X41631971Y18417787D01*
X41752284Y18583386D01*
X41752285Y18583387D01*
X41752287Y18583390D01*
X41799516Y18676083D01*
X41847489Y18726877D01*
X41915310Y18743672D01*
X41981445Y18721135D01*
X42020485Y18676081D01*
X42067715Y18583386D01*
X42188028Y18417787D01*
X42332786Y18273029D01*
X42487749Y18160444D01*
X42498390Y18152713D01*
X42587212Y18107456D01*
X42680776Y18059782D01*
X42680778Y18059782D01*
X42680781Y18059780D01*
X42755535Y18035491D01*
X42875465Y17996523D01*
X42976557Y17980512D01*
X43077648Y17964500D01*
X43077649Y17964500D01*
X43282351Y17964500D01*
X43282352Y17964500D01*
X43484534Y17996523D01*
X43679219Y18059780D01*
X43861610Y18152713D01*
X43957901Y18222672D01*
X44027213Y18273029D01*
X44027215Y18273032D01*
X44027219Y18273034D01*
X44171966Y18417781D01*
X44171968Y18417785D01*
X44171971Y18417787D01*
X44292284Y18583386D01*
X44292285Y18583387D01*
X44292287Y18583390D01*
X44339516Y18676083D01*
X44387489Y18726877D01*
X44455310Y18743672D01*
X44521445Y18721135D01*
X44560485Y18676081D01*
X44607715Y18583386D01*
X44728028Y18417787D01*
X44872786Y18273029D01*
X45027749Y18160444D01*
X45038390Y18152713D01*
X45127212Y18107456D01*
X45220776Y18059782D01*
X45220778Y18059782D01*
X45220781Y18059780D01*
X45295535Y18035491D01*
X45415465Y17996523D01*
X45516557Y17980512D01*
X45617648Y17964500D01*
X45617649Y17964500D01*
X45822351Y17964500D01*
X45822352Y17964500D01*
X46024534Y17996523D01*
X46219219Y18059780D01*
X46401610Y18152713D01*
X46497901Y18222672D01*
X46567213Y18273029D01*
X46567215Y18273032D01*
X46567219Y18273034D01*
X46711966Y18417781D01*
X46711968Y18417785D01*
X46711971Y18417787D01*
X46832284Y18583386D01*
X46832285Y18583387D01*
X46832287Y18583390D01*
X46879516Y18676083D01*
X46927489Y18726877D01*
X46995310Y18743672D01*
X47061445Y18721135D01*
X47100485Y18676081D01*
X47147715Y18583386D01*
X47268028Y18417787D01*
X47412786Y18273029D01*
X47567749Y18160444D01*
X47578390Y18152713D01*
X47667212Y18107456D01*
X47760776Y18059782D01*
X47760778Y18059782D01*
X47760781Y18059780D01*
X47835535Y18035491D01*
X47955465Y17996523D01*
X48056557Y17980512D01*
X48157648Y17964500D01*
X48157649Y17964500D01*
X48362351Y17964500D01*
X48362352Y17964500D01*
X48564534Y17996523D01*
X48759219Y18059780D01*
X48941610Y18152713D01*
X49037901Y18222672D01*
X49107213Y18273029D01*
X49107215Y18273032D01*
X49107219Y18273034D01*
X49251966Y18417781D01*
X49251968Y18417785D01*
X49251971Y18417787D01*
X49372284Y18583386D01*
X49372285Y18583387D01*
X49372287Y18583390D01*
X49419516Y18676083D01*
X49467489Y18726877D01*
X49535310Y18743672D01*
X49601445Y18721135D01*
X49640485Y18676081D01*
X49687715Y18583386D01*
X49808028Y18417787D01*
X49952786Y18273029D01*
X50107749Y18160444D01*
X50118390Y18152713D01*
X50207212Y18107456D01*
X50300776Y18059782D01*
X50300778Y18059782D01*
X50300781Y18059780D01*
X50375535Y18035491D01*
X50495465Y17996523D01*
X50596557Y17980512D01*
X50697648Y17964500D01*
X50697649Y17964500D01*
X50902351Y17964500D01*
X50902352Y17964500D01*
X51104534Y17996523D01*
X51299219Y18059780D01*
X51481610Y18152713D01*
X51577901Y18222672D01*
X51647213Y18273029D01*
X51647215Y18273032D01*
X51647219Y18273034D01*
X51791966Y18417781D01*
X51791968Y18417785D01*
X51791971Y18417787D01*
X51912284Y18583386D01*
X51912285Y18583387D01*
X51912287Y18583390D01*
X51959516Y18676083D01*
X52007489Y18726877D01*
X52075310Y18743672D01*
X52141445Y18721135D01*
X52180485Y18676081D01*
X52227715Y18583386D01*
X52348028Y18417787D01*
X52492786Y18273029D01*
X52647749Y18160444D01*
X52658390Y18152713D01*
X52747212Y18107456D01*
X52840776Y18059782D01*
X52840778Y18059782D01*
X52840781Y18059780D01*
X52915535Y18035491D01*
X53035465Y17996523D01*
X53136557Y17980512D01*
X53237648Y17964500D01*
X53237649Y17964500D01*
X53442351Y17964500D01*
X53442352Y17964500D01*
X53644534Y17996523D01*
X53839219Y18059780D01*
X54021610Y18152713D01*
X54117901Y18222672D01*
X54187213Y18273029D01*
X54187215Y18273032D01*
X54187219Y18273034D01*
X54331966Y18417781D01*
X54331968Y18417785D01*
X54331971Y18417787D01*
X54452284Y18583386D01*
X54452285Y18583387D01*
X54452287Y18583390D01*
X54499516Y18676083D01*
X54547489Y18726877D01*
X54615310Y18743672D01*
X54681445Y18721135D01*
X54720485Y18676081D01*
X54767715Y18583386D01*
X54888028Y18417787D01*
X55032786Y18273029D01*
X55187749Y18160444D01*
X55198390Y18152713D01*
X55287212Y18107456D01*
X55380776Y18059782D01*
X55380778Y18059782D01*
X55380781Y18059780D01*
X55455535Y18035491D01*
X55575465Y17996523D01*
X55676557Y17980512D01*
X55777648Y17964500D01*
X55777649Y17964500D01*
X55982351Y17964500D01*
X55982352Y17964500D01*
X56184534Y17996523D01*
X56379219Y18059780D01*
X56561610Y18152713D01*
X56657901Y18222672D01*
X56727213Y18273029D01*
X56727215Y18273032D01*
X56727219Y18273034D01*
X56871966Y18417781D01*
X56871968Y18417785D01*
X56871971Y18417787D01*
X56992284Y18583386D01*
X56992285Y18583387D01*
X56992287Y18583390D01*
X57039516Y18676083D01*
X57087489Y18726877D01*
X57155310Y18743672D01*
X57221445Y18721135D01*
X57260485Y18676081D01*
X57307715Y18583386D01*
X57428028Y18417787D01*
X57572786Y18273029D01*
X57727749Y18160444D01*
X57738390Y18152713D01*
X57827212Y18107456D01*
X57920776Y18059782D01*
X57920778Y18059782D01*
X57920781Y18059780D01*
X57995535Y18035491D01*
X58115465Y17996523D01*
X58216557Y17980512D01*
X58317648Y17964500D01*
X58317649Y17964500D01*
X58522351Y17964500D01*
X58522352Y17964500D01*
X58724534Y17996523D01*
X58919219Y18059780D01*
X59101610Y18152713D01*
X59197901Y18222672D01*
X59267213Y18273029D01*
X59267215Y18273032D01*
X59267219Y18273034D01*
X59411966Y18417781D01*
X59411968Y18417785D01*
X59411971Y18417787D01*
X59532284Y18583386D01*
X59532285Y18583387D01*
X59532287Y18583390D01*
X59579516Y18676083D01*
X59627489Y18726877D01*
X59695310Y18743672D01*
X59761445Y18721135D01*
X59800485Y18676081D01*
X59847715Y18583386D01*
X59968028Y18417787D01*
X60112786Y18273029D01*
X60267749Y18160444D01*
X60278390Y18152713D01*
X60367212Y18107456D01*
X60460776Y18059782D01*
X60460778Y18059782D01*
X60460781Y18059780D01*
X60535535Y18035491D01*
X60655465Y17996523D01*
X60756557Y17980512D01*
X60857648Y17964500D01*
X60857649Y17964500D01*
X61062351Y17964500D01*
X61062352Y17964500D01*
X61264534Y17996523D01*
X61459219Y18059780D01*
X61459222Y18059782D01*
X61463852Y18061286D01*
X61464281Y18059965D01*
X61527514Y18066764D01*
X61589994Y18035491D01*
X61625648Y17975403D01*
X61629500Y17944734D01*
X61629500Y15206343D01*
X61609815Y15139304D01*
X61557011Y15093549D01*
X61487853Y15083605D01*
X61449206Y15095858D01*
X61382450Y15129871D01*
X61382447Y15129872D01*
X61382445Y15129873D01*
X61217701Y15183402D01*
X61217699Y15183403D01*
X61217698Y15183403D01*
X61072857Y15206343D01*
X61046611Y15210500D01*
X60873389Y15210500D01*
X60847143Y15206343D01*
X60702302Y15183403D01*
X60702299Y15183402D01*
X60537574Y15129879D01*
X60537552Y15129872D01*
X60383211Y15051232D01*
X60336353Y15017187D01*
X60243072Y14949414D01*
X60243070Y14949412D01*
X60243069Y14949412D01*
X60120588Y14826931D01*
X60120588Y14826930D01*
X60120586Y14826928D01*
X60092026Y14787618D01*
X60018768Y14686789D01*
X59940128Y14532448D01*
X59886597Y14367698D01*
X59859500Y14196611D01*
X59859500Y13700782D01*
X59839815Y13633743D01*
X59823181Y13613101D01*
X59732181Y13522101D01*
X59670858Y13488616D01*
X59601166Y13493600D01*
X59545233Y13535472D01*
X59520816Y13600936D01*
X59520500Y13609782D01*
X59520500Y14196611D01*
X59493402Y14367698D01*
X59493402Y14367701D01*
X59439873Y14532445D01*
X59361232Y14686788D01*
X59259414Y14826928D01*
X59136928Y14949414D01*
X58996788Y15051232D01*
X58933252Y15083605D01*
X58842447Y15129872D01*
X58842446Y15129873D01*
X58842445Y15129873D01*
X58677701Y15183402D01*
X58677699Y15183403D01*
X58677698Y15183403D01*
X58532857Y15206343D01*
X58506611Y15210500D01*
X58333389Y15210500D01*
X58307143Y15206343D01*
X58162302Y15183403D01*
X58162299Y15183402D01*
X57997574Y15129879D01*
X57997552Y15129872D01*
X57843211Y15051232D01*
X57796353Y15017187D01*
X57703072Y14949414D01*
X57703070Y14949412D01*
X57703069Y14949412D01*
X57580588Y14826931D01*
X57580588Y14826930D01*
X57580586Y14826928D01*
X57552026Y14787618D01*
X57478768Y14686789D01*
X57400128Y14532448D01*
X57346597Y14367698D01*
X57319500Y14196611D01*
X57319500Y14075782D01*
X57299815Y14008743D01*
X57283181Y13988101D01*
X57192181Y13897101D01*
X57130858Y13863616D01*
X57061166Y13868600D01*
X57005233Y13910472D01*
X56980816Y13975936D01*
X56980500Y13984782D01*
X56980500Y14196611D01*
X56953402Y14367698D01*
X56953402Y14367701D01*
X56899873Y14532445D01*
X56821232Y14686788D01*
X56719414Y14826928D01*
X56596928Y14949414D01*
X56456788Y15051232D01*
X56393252Y15083605D01*
X56302447Y15129872D01*
X56302446Y15129873D01*
X56302445Y15129873D01*
X56137701Y15183402D01*
X56137699Y15183403D01*
X56137698Y15183403D01*
X55992857Y15206343D01*
X55966611Y15210500D01*
X55793389Y15210500D01*
X55767143Y15206343D01*
X55622302Y15183403D01*
X55622299Y15183402D01*
X55457574Y15129879D01*
X55457552Y15129872D01*
X55303211Y15051232D01*
X55256353Y15017187D01*
X55163072Y14949414D01*
X55163070Y14949412D01*
X55163069Y14949412D01*
X55040588Y14826931D01*
X55040588Y14826930D01*
X55040586Y14826928D01*
X55012026Y14787618D01*
X54938768Y14686789D01*
X54860128Y14532448D01*
X54806597Y14367698D01*
X54779500Y14196611D01*
X54779500Y13223389D01*
X54787677Y13171761D01*
X54794544Y13128401D01*
X54806598Y13052299D01*
X54860127Y12887555D01*
X54938768Y12733212D01*
X55040586Y12593072D01*
X55163072Y12470586D01*
X55268177Y12394223D01*
X55303213Y12368767D01*
X55390048Y12324523D01*
X55440845Y12276549D01*
X55457640Y12208728D01*
X55435103Y12142593D01*
X55421435Y12126357D01*
X52924498Y9629418D01*
X52863175Y9595933D01*
X52836817Y9593099D01*
X50466648Y9593099D01*
X50399609Y9612784D01*
X50353854Y9665588D01*
X50343910Y9734746D01*
X50372935Y9798302D01*
X50378967Y9804780D01*
X50530045Y9955859D01*
X50530047Y9955861D01*
X50660568Y10142266D01*
X50756739Y10348504D01*
X50815635Y10568308D01*
X50835468Y10795000D01*
X50815635Y11021692D01*
X50756739Y11241496D01*
X50660568Y11447734D01*
X50530047Y11634139D01*
X50530045Y11634142D01*
X50369141Y11795046D01*
X50182734Y11925568D01*
X50182732Y11925569D01*
X49976497Y12021739D01*
X49976488Y12021742D01*
X49756697Y12080634D01*
X49756693Y12080635D01*
X49756692Y12080635D01*
X49756691Y12080636D01*
X49756686Y12080636D01*
X49530002Y12100468D01*
X49529998Y12100468D01*
X49303313Y12080636D01*
X49303302Y12080634D01*
X49083511Y12021742D01*
X49083502Y12021739D01*
X48877267Y11925569D01*
X48877265Y11925568D01*
X48690858Y11795046D01*
X48529954Y11634142D01*
X48399432Y11447735D01*
X48399431Y11447733D01*
X48303261Y11241498D01*
X48303258Y11241489D01*
X48244366Y11021698D01*
X48244364Y11021687D01*
X48224532Y10795002D01*
X48224532Y10794999D01*
X48244364Y10568314D01*
X48244366Y10568303D01*
X48303258Y10348512D01*
X48303261Y10348503D01*
X48399431Y10142268D01*
X48399432Y10142266D01*
X48529954Y9955859D01*
X48681033Y9804780D01*
X48714518Y9743457D01*
X48709534Y9673765D01*
X48667662Y9617832D01*
X48602198Y9593415D01*
X48593352Y9593099D01*
X44121439Y9593099D01*
X44054400Y9612784D01*
X44047128Y9617832D01*
X44022331Y9636395D01*
X44022328Y9636397D01*
X43887482Y9686691D01*
X43887483Y9686691D01*
X43827883Y9693098D01*
X43827881Y9693099D01*
X43827873Y9693099D01*
X43827864Y9693099D01*
X42532129Y9693099D01*
X42532123Y9693098D01*
X42472516Y9686691D01*
X42337671Y9636397D01*
X42337668Y9636395D01*
X42312872Y9617832D01*
X42247408Y9593415D01*
X42238561Y9593099D01*
X31989054Y9593099D01*
X31892411Y9573875D01*
X31795766Y9554652D01*
X31795760Y9554650D01*
X31742433Y9532562D01*
X31742433Y9532561D01*
X31696914Y9513707D01*
X31613688Y9479233D01*
X31613678Y9479228D01*
X31449818Y9369740D01*
X31429171Y9349092D01*
X31371896Y9291818D01*
X31310576Y9258334D01*
X31284217Y9255500D01*
X25071439Y9255500D01*
X25004400Y9275185D01*
X24997128Y9280233D01*
X24972331Y9298796D01*
X24972328Y9298798D01*
X24837482Y9349092D01*
X24837483Y9349092D01*
X24777883Y9355499D01*
X24777881Y9355500D01*
X24777873Y9355500D01*
X24777864Y9355500D01*
X23482129Y9355500D01*
X23482123Y9355499D01*
X23422516Y9349092D01*
X23287671Y9298798D01*
X23287668Y9298796D01*
X23262872Y9280233D01*
X23197408Y9255816D01*
X23188561Y9255500D01*
X14733959Y9255500D01*
X14720796Y9252882D01*
X14696607Y9250500D01*
X14440783Y9250500D01*
X14373744Y9270185D01*
X14353102Y9286819D01*
X9669915Y13970005D01*
X13534732Y13970005D01*
X13534732Y13969996D01*
X13553777Y13715846D01*
X13604503Y13493600D01*
X13610492Y13467363D01*
X13703607Y13230112D01*
X13831041Y13009388D01*
X13989950Y12810123D01*
X14176783Y12636768D01*
X14387366Y12493195D01*
X14387371Y12493193D01*
X14387372Y12493192D01*
X14387373Y12493191D01*
X14505867Y12436128D01*
X14616992Y12382613D01*
X14616993Y12382613D01*
X14616996Y12382611D01*
X14860542Y12307487D01*
X15112565Y12269500D01*
X15367435Y12269500D01*
X15619458Y12307487D01*
X15863004Y12382611D01*
X16092634Y12493195D01*
X16303217Y12636768D01*
X16345929Y12676400D01*
X16408462Y12707567D01*
X16430270Y12709500D01*
X16792815Y12709500D01*
X16859854Y12689815D01*
X16893131Y12658388D01*
X16940586Y12593072D01*
X17063072Y12470586D01*
X17203212Y12368768D01*
X17357555Y12290127D01*
X17522299Y12236598D01*
X17693389Y12209500D01*
X17693390Y12209500D01*
X17866610Y12209500D01*
X17866611Y12209500D01*
X18037701Y12236598D01*
X18202445Y12290127D01*
X18356788Y12368768D01*
X18496928Y12470586D01*
X18619414Y12593072D01*
X18721232Y12733212D01*
X18799873Y12887555D01*
X18853402Y13052299D01*
X18880500Y13223389D01*
X18880500Y14196611D01*
X19219500Y14196611D01*
X19219500Y13223389D01*
X19227677Y13171761D01*
X19234544Y13128401D01*
X19246598Y13052299D01*
X19300127Y12887555D01*
X19378768Y12733212D01*
X19480586Y12593072D01*
X19603072Y12470586D01*
X19743212Y12368768D01*
X19897555Y12290127D01*
X20062299Y12236598D01*
X20233389Y12209500D01*
X20233390Y12209500D01*
X20406610Y12209500D01*
X20406611Y12209500D01*
X20577701Y12236598D01*
X20742445Y12290127D01*
X20896788Y12368768D01*
X21036928Y12470586D01*
X21159414Y12593072D01*
X21261232Y12733212D01*
X21339873Y12887555D01*
X21393402Y13052299D01*
X21420500Y13223389D01*
X21420500Y14196611D01*
X21759500Y14196611D01*
X21759500Y13223389D01*
X21767677Y13171761D01*
X21774544Y13128401D01*
X21786598Y13052299D01*
X21840127Y12887555D01*
X21918768Y12733212D01*
X22020586Y12593072D01*
X22143072Y12470586D01*
X22283212Y12368768D01*
X22437555Y12290127D01*
X22602299Y12236598D01*
X22773389Y12209500D01*
X22773390Y12209500D01*
X22946610Y12209500D01*
X22946611Y12209500D01*
X23117701Y12236598D01*
X23282445Y12290127D01*
X23436788Y12368768D01*
X23576928Y12470586D01*
X23699414Y12593072D01*
X23801232Y12733212D01*
X23879873Y12887555D01*
X23933402Y13052299D01*
X23960500Y13223389D01*
X23960500Y14196611D01*
X24299500Y14196611D01*
X24299500Y13223389D01*
X24307677Y13171761D01*
X24314544Y13128401D01*
X24326598Y13052299D01*
X24380127Y12887555D01*
X24458768Y12733212D01*
X24560586Y12593072D01*
X24683072Y12470586D01*
X24823212Y12368768D01*
X24977555Y12290127D01*
X25142299Y12236598D01*
X25313389Y12209500D01*
X25313390Y12209500D01*
X25486610Y12209500D01*
X25486611Y12209500D01*
X25657701Y12236598D01*
X25822445Y12290127D01*
X25976788Y12368768D01*
X26116928Y12470586D01*
X26239414Y12593072D01*
X26341232Y12733212D01*
X26419873Y12887555D01*
X26473402Y13052299D01*
X26500500Y13223389D01*
X26500500Y14196611D01*
X26839500Y14196611D01*
X26839500Y13223389D01*
X26847677Y13171761D01*
X26854544Y13128401D01*
X26866598Y13052299D01*
X26920127Y12887555D01*
X26998768Y12733212D01*
X27100586Y12593072D01*
X27223072Y12470586D01*
X27363212Y12368768D01*
X27517555Y12290127D01*
X27682299Y12236598D01*
X27853389Y12209500D01*
X27853390Y12209500D01*
X28026610Y12209500D01*
X28026611Y12209500D01*
X28197701Y12236598D01*
X28362445Y12290127D01*
X28516788Y12368768D01*
X28656928Y12470586D01*
X28779414Y12593072D01*
X28881232Y12733212D01*
X28959873Y12887555D01*
X29013402Y13052299D01*
X29040500Y13223389D01*
X29040500Y14196611D01*
X29379500Y14196611D01*
X29379500Y13223389D01*
X29387677Y13171761D01*
X29394544Y13128401D01*
X29406598Y13052299D01*
X29460127Y12887555D01*
X29538768Y12733212D01*
X29640586Y12593072D01*
X29763072Y12470586D01*
X29903212Y12368768D01*
X30057555Y12290127D01*
X30222299Y12236598D01*
X30393389Y12209500D01*
X30393390Y12209500D01*
X30566610Y12209500D01*
X30566611Y12209500D01*
X30737701Y12236598D01*
X30902445Y12290127D01*
X31056788Y12368768D01*
X31196928Y12470586D01*
X31319414Y12593072D01*
X31421232Y12733212D01*
X31499873Y12887555D01*
X31553402Y13052299D01*
X31580500Y13223389D01*
X31580500Y14196611D01*
X31919500Y14196611D01*
X31919500Y13223389D01*
X31927677Y13171761D01*
X31934544Y13128401D01*
X31946598Y13052299D01*
X32000127Y12887555D01*
X32078768Y12733212D01*
X32180586Y12593072D01*
X32303072Y12470586D01*
X32443212Y12368768D01*
X32597555Y12290127D01*
X32762299Y12236598D01*
X32933389Y12209500D01*
X32933390Y12209500D01*
X33106610Y12209500D01*
X33106611Y12209500D01*
X33277701Y12236598D01*
X33442445Y12290127D01*
X33596788Y12368768D01*
X33736928Y12470586D01*
X33859414Y12593072D01*
X33961232Y12733212D01*
X34039873Y12887555D01*
X34093402Y13052299D01*
X34120500Y13223389D01*
X34120500Y14196611D01*
X34459500Y14196611D01*
X34459500Y13223389D01*
X34467677Y13171761D01*
X34474544Y13128401D01*
X34486598Y13052299D01*
X34540127Y12887555D01*
X34618768Y12733212D01*
X34720586Y12593072D01*
X34843072Y12470586D01*
X34983212Y12368768D01*
X35137555Y12290127D01*
X35302299Y12236598D01*
X35473389Y12209500D01*
X35473390Y12209500D01*
X35646610Y12209500D01*
X35646611Y12209500D01*
X35817701Y12236598D01*
X35982445Y12290127D01*
X36136788Y12368768D01*
X36276928Y12470586D01*
X36399414Y12593072D01*
X36501232Y12733212D01*
X36579873Y12887555D01*
X36633402Y13052299D01*
X36660500Y13223389D01*
X36660500Y14196611D01*
X36999500Y14196611D01*
X36999500Y13223389D01*
X37007677Y13171761D01*
X37014544Y13128401D01*
X37026598Y13052299D01*
X37080127Y12887555D01*
X37158768Y12733212D01*
X37260586Y12593072D01*
X37383072Y12470586D01*
X37523212Y12368768D01*
X37677555Y12290127D01*
X37842299Y12236598D01*
X38013389Y12209500D01*
X38013390Y12209500D01*
X38186610Y12209500D01*
X38186611Y12209500D01*
X38357701Y12236598D01*
X38522445Y12290127D01*
X38676788Y12368768D01*
X38816928Y12470586D01*
X38939414Y12593072D01*
X39041232Y12733212D01*
X39119873Y12887555D01*
X39173402Y13052299D01*
X39200500Y13223389D01*
X39200500Y14196611D01*
X39539500Y14196611D01*
X39539500Y13223389D01*
X39547677Y13171761D01*
X39554544Y13128401D01*
X39566598Y13052299D01*
X39620127Y12887555D01*
X39698768Y12733212D01*
X39800586Y12593072D01*
X39923072Y12470586D01*
X40063212Y12368768D01*
X40217555Y12290127D01*
X40382299Y12236598D01*
X40553389Y12209500D01*
X40553390Y12209500D01*
X40726610Y12209500D01*
X40726611Y12209500D01*
X40897701Y12236598D01*
X41062445Y12290127D01*
X41216788Y12368768D01*
X41356928Y12470586D01*
X41479414Y12593072D01*
X41581232Y12733212D01*
X41659873Y12887555D01*
X41713402Y13052299D01*
X41740500Y13223389D01*
X41740500Y14196611D01*
X42079500Y14196611D01*
X42079500Y13223389D01*
X42087677Y13171761D01*
X42094544Y13128401D01*
X42106598Y13052299D01*
X42160127Y12887555D01*
X42238768Y12733212D01*
X42340586Y12593072D01*
X42463072Y12470586D01*
X42603212Y12368768D01*
X42757555Y12290127D01*
X42922299Y12236598D01*
X43093389Y12209500D01*
X43093390Y12209500D01*
X43266610Y12209500D01*
X43266611Y12209500D01*
X43437701Y12236598D01*
X43602445Y12290127D01*
X43756788Y12368768D01*
X43896928Y12470586D01*
X44019414Y12593072D01*
X44121232Y12733212D01*
X44199873Y12887555D01*
X44253402Y13052299D01*
X44280500Y13223389D01*
X44280500Y14196611D01*
X44619500Y14196611D01*
X44619500Y13223389D01*
X44627677Y13171761D01*
X44634544Y13128401D01*
X44646598Y13052299D01*
X44700127Y12887555D01*
X44778768Y12733212D01*
X44880586Y12593072D01*
X45003072Y12470586D01*
X45143212Y12368768D01*
X45297555Y12290127D01*
X45462299Y12236598D01*
X45633389Y12209500D01*
X45633390Y12209500D01*
X45806610Y12209500D01*
X45806611Y12209500D01*
X45977701Y12236598D01*
X46142445Y12290127D01*
X46296788Y12368768D01*
X46436928Y12470586D01*
X46559414Y12593072D01*
X46661232Y12733212D01*
X46739873Y12887555D01*
X46793402Y13052299D01*
X46820500Y13223389D01*
X46820500Y14196611D01*
X47159500Y14196611D01*
X47159500Y13223389D01*
X47167677Y13171761D01*
X47174544Y13128401D01*
X47186598Y13052299D01*
X47240127Y12887555D01*
X47318768Y12733212D01*
X47420586Y12593072D01*
X47543072Y12470586D01*
X47683212Y12368768D01*
X47837555Y12290127D01*
X48002299Y12236598D01*
X48173389Y12209500D01*
X48173390Y12209500D01*
X48346610Y12209500D01*
X48346611Y12209500D01*
X48517701Y12236598D01*
X48682445Y12290127D01*
X48836788Y12368768D01*
X48976928Y12470586D01*
X49099414Y12593072D01*
X49201232Y12733212D01*
X49279873Y12887555D01*
X49333402Y13052299D01*
X49360500Y13223389D01*
X49360500Y14196611D01*
X49699500Y14196611D01*
X49699500Y13223389D01*
X49707677Y13171761D01*
X49714544Y13128401D01*
X49726598Y13052299D01*
X49780127Y12887555D01*
X49858768Y12733212D01*
X49960586Y12593072D01*
X50083072Y12470586D01*
X50223212Y12368768D01*
X50377555Y12290127D01*
X50542299Y12236598D01*
X50713389Y12209500D01*
X50713390Y12209500D01*
X50886610Y12209500D01*
X50886611Y12209500D01*
X51057701Y12236598D01*
X51222445Y12290127D01*
X51376788Y12368768D01*
X51516928Y12470586D01*
X51639414Y12593072D01*
X51741232Y12733212D01*
X51819873Y12887555D01*
X51873402Y13052299D01*
X51900500Y13223389D01*
X51900500Y14196611D01*
X52239500Y14196611D01*
X52239500Y13223389D01*
X52247677Y13171761D01*
X52254544Y13128401D01*
X52266598Y13052299D01*
X52320127Y12887555D01*
X52398768Y12733212D01*
X52500586Y12593072D01*
X52623072Y12470586D01*
X52763212Y12368768D01*
X52917555Y12290127D01*
X53082299Y12236598D01*
X53253389Y12209500D01*
X53253390Y12209500D01*
X53426610Y12209500D01*
X53426611Y12209500D01*
X53597701Y12236598D01*
X53762445Y12290127D01*
X53916788Y12368768D01*
X54056928Y12470586D01*
X54179414Y12593072D01*
X54281232Y12733212D01*
X54359873Y12887555D01*
X54413402Y13052299D01*
X54440500Y13223389D01*
X54440500Y14196611D01*
X54413402Y14367701D01*
X54359873Y14532445D01*
X54281232Y14686788D01*
X54179414Y14826928D01*
X54056928Y14949414D01*
X53916788Y15051232D01*
X53853252Y15083605D01*
X53762447Y15129872D01*
X53762446Y15129873D01*
X53762445Y15129873D01*
X53597701Y15183402D01*
X53597699Y15183403D01*
X53597698Y15183403D01*
X53452857Y15206343D01*
X53426611Y15210500D01*
X53253389Y15210500D01*
X53227143Y15206343D01*
X53082302Y15183403D01*
X53082299Y15183402D01*
X52917574Y15129879D01*
X52917552Y15129872D01*
X52763211Y15051232D01*
X52716353Y15017187D01*
X52623072Y14949414D01*
X52623070Y14949412D01*
X52623069Y14949412D01*
X52500588Y14826931D01*
X52500588Y14826930D01*
X52500586Y14826928D01*
X52472026Y14787618D01*
X52398768Y14686789D01*
X52320128Y14532448D01*
X52266597Y14367698D01*
X52239500Y14196611D01*
X51900500Y14196611D01*
X51873402Y14367701D01*
X51819873Y14532445D01*
X51741232Y14686788D01*
X51639414Y14826928D01*
X51516928Y14949414D01*
X51376788Y15051232D01*
X51313252Y15083605D01*
X51222447Y15129872D01*
X51222446Y15129873D01*
X51222445Y15129873D01*
X51057701Y15183402D01*
X51057699Y15183403D01*
X51057698Y15183403D01*
X50912857Y15206343D01*
X50886611Y15210500D01*
X50713389Y15210500D01*
X50687143Y15206343D01*
X50542302Y15183403D01*
X50542299Y15183402D01*
X50377574Y15129879D01*
X50377552Y15129872D01*
X50223211Y15051232D01*
X50176353Y15017187D01*
X50083072Y14949414D01*
X50083070Y14949412D01*
X50083069Y14949412D01*
X49960588Y14826931D01*
X49960588Y14826930D01*
X49960586Y14826928D01*
X49932026Y14787618D01*
X49858768Y14686789D01*
X49780128Y14532448D01*
X49726597Y14367698D01*
X49699500Y14196611D01*
X49360500Y14196611D01*
X49333402Y14367701D01*
X49279873Y14532445D01*
X49201232Y14686788D01*
X49099414Y14826928D01*
X48976928Y14949414D01*
X48836788Y15051232D01*
X48773252Y15083605D01*
X48682447Y15129872D01*
X48682446Y15129873D01*
X48682445Y15129873D01*
X48517701Y15183402D01*
X48517699Y15183403D01*
X48517698Y15183403D01*
X48372857Y15206343D01*
X48346611Y15210500D01*
X48173389Y15210500D01*
X48147143Y15206343D01*
X48002302Y15183403D01*
X48002299Y15183402D01*
X47837574Y15129879D01*
X47837552Y15129872D01*
X47683211Y15051232D01*
X47636353Y15017187D01*
X47543072Y14949414D01*
X47543070Y14949412D01*
X47543069Y14949412D01*
X47420588Y14826931D01*
X47420588Y14826930D01*
X47420586Y14826928D01*
X47392026Y14787618D01*
X47318768Y14686789D01*
X47240128Y14532448D01*
X47186597Y14367698D01*
X47159500Y14196611D01*
X46820500Y14196611D01*
X46793402Y14367701D01*
X46739873Y14532445D01*
X46661232Y14686788D01*
X46559414Y14826928D01*
X46436928Y14949414D01*
X46296788Y15051232D01*
X46233252Y15083605D01*
X46142447Y15129872D01*
X46142446Y15129873D01*
X46142445Y15129873D01*
X45977701Y15183402D01*
X45977699Y15183403D01*
X45977698Y15183403D01*
X45832857Y15206343D01*
X45806611Y15210500D01*
X45633389Y15210500D01*
X45607143Y15206343D01*
X45462302Y15183403D01*
X45462299Y15183402D01*
X45297574Y15129879D01*
X45297552Y15129872D01*
X45143211Y15051232D01*
X45096353Y15017187D01*
X45003072Y14949414D01*
X45003070Y14949412D01*
X45003069Y14949412D01*
X44880588Y14826931D01*
X44880588Y14826930D01*
X44880586Y14826928D01*
X44852026Y14787618D01*
X44778768Y14686789D01*
X44700128Y14532448D01*
X44646597Y14367698D01*
X44619500Y14196611D01*
X44280500Y14196611D01*
X44253402Y14367701D01*
X44199873Y14532445D01*
X44121232Y14686788D01*
X44019414Y14826928D01*
X43896928Y14949414D01*
X43756788Y15051232D01*
X43693252Y15083605D01*
X43602447Y15129872D01*
X43602446Y15129873D01*
X43602445Y15129873D01*
X43437701Y15183402D01*
X43437699Y15183403D01*
X43437698Y15183403D01*
X43292857Y15206343D01*
X43266611Y15210500D01*
X43093389Y15210500D01*
X43067143Y15206343D01*
X42922302Y15183403D01*
X42922299Y15183402D01*
X42757574Y15129879D01*
X42757552Y15129872D01*
X42603211Y15051232D01*
X42556353Y15017187D01*
X42463072Y14949414D01*
X42463070Y14949412D01*
X42463069Y14949412D01*
X42340588Y14826931D01*
X42340588Y14826930D01*
X42340586Y14826928D01*
X42312026Y14787618D01*
X42238768Y14686789D01*
X42160128Y14532448D01*
X42106597Y14367698D01*
X42079500Y14196611D01*
X41740500Y14196611D01*
X41713402Y14367701D01*
X41659873Y14532445D01*
X41581232Y14686788D01*
X41479414Y14826928D01*
X41356928Y14949414D01*
X41216788Y15051232D01*
X41153252Y15083605D01*
X41062447Y15129872D01*
X41062446Y15129873D01*
X41062445Y15129873D01*
X40897701Y15183402D01*
X40897699Y15183403D01*
X40897698Y15183403D01*
X40752857Y15206343D01*
X40726611Y15210500D01*
X40553389Y15210500D01*
X40527143Y15206343D01*
X40382302Y15183403D01*
X40382299Y15183402D01*
X40217574Y15129879D01*
X40217552Y15129872D01*
X40063211Y15051232D01*
X40016353Y15017187D01*
X39923072Y14949414D01*
X39923070Y14949412D01*
X39923069Y14949412D01*
X39800588Y14826931D01*
X39800588Y14826930D01*
X39800586Y14826928D01*
X39772026Y14787618D01*
X39698768Y14686789D01*
X39620128Y14532448D01*
X39566597Y14367698D01*
X39539500Y14196611D01*
X39200500Y14196611D01*
X39173402Y14367701D01*
X39119873Y14532445D01*
X39041232Y14686788D01*
X38939414Y14826928D01*
X38816928Y14949414D01*
X38676788Y15051232D01*
X38613252Y15083605D01*
X38522447Y15129872D01*
X38522446Y15129873D01*
X38522445Y15129873D01*
X38357701Y15183402D01*
X38357699Y15183403D01*
X38357698Y15183403D01*
X38212857Y15206343D01*
X38186611Y15210500D01*
X38013389Y15210500D01*
X37987143Y15206343D01*
X37842302Y15183403D01*
X37842299Y15183402D01*
X37677574Y15129879D01*
X37677552Y15129872D01*
X37523211Y15051232D01*
X37476353Y15017187D01*
X37383072Y14949414D01*
X37383070Y14949412D01*
X37383069Y14949412D01*
X37260588Y14826931D01*
X37260588Y14826930D01*
X37260586Y14826928D01*
X37232026Y14787618D01*
X37158768Y14686789D01*
X37080128Y14532448D01*
X37026597Y14367698D01*
X36999500Y14196611D01*
X36660500Y14196611D01*
X36633402Y14367701D01*
X36579873Y14532445D01*
X36501232Y14686788D01*
X36399414Y14826928D01*
X36276928Y14949414D01*
X36136788Y15051232D01*
X36073252Y15083605D01*
X35982447Y15129872D01*
X35982446Y15129873D01*
X35982445Y15129873D01*
X35817701Y15183402D01*
X35817699Y15183403D01*
X35817698Y15183403D01*
X35672857Y15206343D01*
X35646611Y15210500D01*
X35473389Y15210500D01*
X35447143Y15206343D01*
X35302302Y15183403D01*
X35302299Y15183402D01*
X35137574Y15129879D01*
X35137552Y15129872D01*
X34983211Y15051232D01*
X34936353Y15017187D01*
X34843072Y14949414D01*
X34843070Y14949412D01*
X34843069Y14949412D01*
X34720588Y14826931D01*
X34720588Y14826930D01*
X34720586Y14826928D01*
X34692026Y14787618D01*
X34618768Y14686789D01*
X34540128Y14532448D01*
X34486597Y14367698D01*
X34459500Y14196611D01*
X34120500Y14196611D01*
X34093402Y14367701D01*
X34039873Y14532445D01*
X33961232Y14686788D01*
X33859414Y14826928D01*
X33736928Y14949414D01*
X33596788Y15051232D01*
X33533252Y15083605D01*
X33442447Y15129872D01*
X33442446Y15129873D01*
X33442445Y15129873D01*
X33277701Y15183402D01*
X33277699Y15183403D01*
X33277698Y15183403D01*
X33132857Y15206343D01*
X33106611Y15210500D01*
X32933389Y15210500D01*
X32907143Y15206343D01*
X32762302Y15183403D01*
X32762299Y15183402D01*
X32597574Y15129879D01*
X32597552Y15129872D01*
X32443211Y15051232D01*
X32396353Y15017187D01*
X32303072Y14949414D01*
X32303070Y14949412D01*
X32303069Y14949412D01*
X32180588Y14826931D01*
X32180588Y14826930D01*
X32180586Y14826928D01*
X32152026Y14787618D01*
X32078768Y14686789D01*
X32000128Y14532448D01*
X31946597Y14367698D01*
X31919500Y14196611D01*
X31580500Y14196611D01*
X31553402Y14367701D01*
X31499873Y14532445D01*
X31421232Y14686788D01*
X31319414Y14826928D01*
X31196928Y14949414D01*
X31056788Y15051232D01*
X30993252Y15083605D01*
X30902447Y15129872D01*
X30902446Y15129873D01*
X30902445Y15129873D01*
X30737701Y15183402D01*
X30737699Y15183403D01*
X30737698Y15183403D01*
X30592857Y15206343D01*
X30566611Y15210500D01*
X30393389Y15210500D01*
X30367143Y15206343D01*
X30222302Y15183403D01*
X30222299Y15183402D01*
X30057574Y15129879D01*
X30057552Y15129872D01*
X29903211Y15051232D01*
X29856353Y15017187D01*
X29763072Y14949414D01*
X29763070Y14949412D01*
X29763069Y14949412D01*
X29640588Y14826931D01*
X29640588Y14826930D01*
X29640586Y14826928D01*
X29612026Y14787618D01*
X29538768Y14686789D01*
X29460128Y14532448D01*
X29406597Y14367698D01*
X29379500Y14196611D01*
X29040500Y14196611D01*
X29013402Y14367701D01*
X28959873Y14532445D01*
X28881232Y14686788D01*
X28779414Y14826928D01*
X28656928Y14949414D01*
X28516788Y15051232D01*
X28453252Y15083605D01*
X28362447Y15129872D01*
X28362446Y15129873D01*
X28362445Y15129873D01*
X28197701Y15183402D01*
X28197699Y15183403D01*
X28197698Y15183403D01*
X28052857Y15206343D01*
X28026611Y15210500D01*
X27853389Y15210500D01*
X27827143Y15206343D01*
X27682302Y15183403D01*
X27682299Y15183402D01*
X27517574Y15129879D01*
X27517552Y15129872D01*
X27363211Y15051232D01*
X27316353Y15017187D01*
X27223072Y14949414D01*
X27223070Y14949412D01*
X27223069Y14949412D01*
X27100588Y14826931D01*
X27100588Y14826930D01*
X27100586Y14826928D01*
X27072026Y14787618D01*
X26998768Y14686789D01*
X26920128Y14532448D01*
X26866597Y14367698D01*
X26839500Y14196611D01*
X26500500Y14196611D01*
X26473402Y14367701D01*
X26419873Y14532445D01*
X26341232Y14686788D01*
X26239414Y14826928D01*
X26116928Y14949414D01*
X25976788Y15051232D01*
X25913252Y15083605D01*
X25822447Y15129872D01*
X25822446Y15129873D01*
X25822445Y15129873D01*
X25657701Y15183402D01*
X25657699Y15183403D01*
X25657698Y15183403D01*
X25512857Y15206343D01*
X25486611Y15210500D01*
X25313389Y15210500D01*
X25287143Y15206343D01*
X25142302Y15183403D01*
X25142299Y15183402D01*
X24977574Y15129879D01*
X24977552Y15129872D01*
X24823211Y15051232D01*
X24776353Y15017187D01*
X24683072Y14949414D01*
X24683070Y14949412D01*
X24683069Y14949412D01*
X24560588Y14826931D01*
X24560588Y14826930D01*
X24560586Y14826928D01*
X24532026Y14787618D01*
X24458768Y14686789D01*
X24380128Y14532448D01*
X24326597Y14367698D01*
X24299500Y14196611D01*
X23960500Y14196611D01*
X23933402Y14367701D01*
X23879873Y14532445D01*
X23801232Y14686788D01*
X23699414Y14826928D01*
X23576928Y14949414D01*
X23436788Y15051232D01*
X23373252Y15083605D01*
X23282447Y15129872D01*
X23282446Y15129873D01*
X23282445Y15129873D01*
X23117701Y15183402D01*
X23117699Y15183403D01*
X23117698Y15183403D01*
X22972857Y15206343D01*
X22946611Y15210500D01*
X22773389Y15210500D01*
X22747143Y15206343D01*
X22602302Y15183403D01*
X22602299Y15183402D01*
X22437574Y15129879D01*
X22437552Y15129872D01*
X22283211Y15051232D01*
X22236353Y15017187D01*
X22143072Y14949414D01*
X22143070Y14949412D01*
X22143069Y14949412D01*
X22020588Y14826931D01*
X22020588Y14826930D01*
X22020586Y14826928D01*
X21992026Y14787618D01*
X21918768Y14686789D01*
X21840128Y14532448D01*
X21786597Y14367698D01*
X21759500Y14196611D01*
X21420500Y14196611D01*
X21393402Y14367701D01*
X21339873Y14532445D01*
X21261232Y14686788D01*
X21159414Y14826928D01*
X21036928Y14949414D01*
X20896788Y15051232D01*
X20833252Y15083605D01*
X20742447Y15129872D01*
X20742446Y15129873D01*
X20742445Y15129873D01*
X20577701Y15183402D01*
X20577699Y15183403D01*
X20577698Y15183403D01*
X20432857Y15206343D01*
X20406611Y15210500D01*
X20233389Y15210500D01*
X20207143Y15206343D01*
X20062302Y15183403D01*
X20062299Y15183402D01*
X19897574Y15129879D01*
X19897552Y15129872D01*
X19743211Y15051232D01*
X19696353Y15017187D01*
X19603072Y14949414D01*
X19603070Y14949412D01*
X19603069Y14949412D01*
X19480588Y14826931D01*
X19480588Y14826930D01*
X19480586Y14826928D01*
X19452026Y14787618D01*
X19378768Y14686789D01*
X19300128Y14532448D01*
X19246597Y14367698D01*
X19219500Y14196611D01*
X18880500Y14196611D01*
X18853402Y14367701D01*
X18799873Y14532445D01*
X18721232Y14686788D01*
X18619414Y14826928D01*
X18496928Y14949414D01*
X18356788Y15051232D01*
X18293252Y15083605D01*
X18202447Y15129872D01*
X18202446Y15129873D01*
X18202445Y15129873D01*
X18037701Y15183402D01*
X18037699Y15183403D01*
X18037698Y15183403D01*
X17892857Y15206343D01*
X17866611Y15210500D01*
X17693389Y15210500D01*
X17667143Y15206343D01*
X17522302Y15183403D01*
X17522299Y15183402D01*
X17357574Y15129879D01*
X17357552Y15129872D01*
X17203211Y15051232D01*
X17156353Y15017187D01*
X17063072Y14949414D01*
X17063070Y14949412D01*
X17063069Y14949412D01*
X16940588Y14826931D01*
X16940585Y14826927D01*
X16923676Y14803654D01*
X16868345Y14760989D01*
X16798731Y14755011D01*
X16736937Y14787618D01*
X16715972Y14814541D01*
X16708821Y14826927D01*
X16648959Y14930612D01*
X16490050Y15129877D01*
X16303217Y15303232D01*
X16092634Y15446805D01*
X16092630Y15446807D01*
X16092627Y15446809D01*
X16092626Y15446810D01*
X15863006Y15557388D01*
X15863008Y15557388D01*
X15619466Y15632511D01*
X15619462Y15632512D01*
X15619458Y15632513D01*
X15498231Y15650786D01*
X15367440Y15670500D01*
X15367435Y15670500D01*
X15112565Y15670500D01*
X15112559Y15670500D01*
X14955609Y15646843D01*
X14860542Y15632513D01*
X14860539Y15632512D01*
X14860533Y15632511D01*
X14616992Y15557388D01*
X14387373Y15446810D01*
X14387372Y15446809D01*
X14176782Y15303232D01*
X13989952Y15129879D01*
X13989950Y15129877D01*
X13831041Y14930612D01*
X13703608Y14709891D01*
X13610492Y14472638D01*
X13610490Y14472631D01*
X13553777Y14224155D01*
X13534732Y13970005D01*
X9669915Y13970005D01*
X9039209Y14600711D01*
X9039206Y14600715D01*
X9039206Y14600714D01*
X9032139Y14607781D01*
X9032139Y14607782D01*
X8892782Y14747139D01*
X8892781Y14747140D01*
X8892780Y14747141D01*
X8728920Y14856629D01*
X8728907Y14856636D01*
X8597097Y14911232D01*
X8546836Y14932051D01*
X8546828Y14932053D01*
X8450188Y14951276D01*
X8353544Y14970500D01*
X8353541Y14970500D01*
X3976864Y14970500D01*
X3909825Y14990185D01*
X3879917Y15017187D01*
X3852767Y15051232D01*
X3790050Y15129877D01*
X3603217Y15303232D01*
X3392634Y15446805D01*
X3392630Y15446807D01*
X3392627Y15446809D01*
X3392626Y15446810D01*
X3163006Y15557388D01*
X3163008Y15557388D01*
X2919466Y15632511D01*
X2919462Y15632512D01*
X2919458Y15632513D01*
X2798231Y15650786D01*
X2667440Y15670500D01*
X2667435Y15670500D01*
X2412565Y15670500D01*
X2412559Y15670500D01*
X2255609Y15646843D01*
X2160542Y15632513D01*
X2160539Y15632512D01*
X2160533Y15632511D01*
X1916992Y15557388D01*
X1687373Y15446810D01*
X1687372Y15446809D01*
X1476782Y15303232D01*
X1289952Y15129879D01*
X1289950Y15129877D01*
X1131041Y14930612D01*
X1003608Y14709891D01*
X910492Y14472638D01*
X910490Y14472631D01*
X853777Y14224155D01*
X834732Y13970005D01*
X834732Y13969996D01*
X853777Y13715846D01*
X904503Y13493600D01*
X910492Y13467363D01*
X1003607Y13230112D01*
X1131041Y13009388D01*
X1289950Y12810123D01*
X1476783Y12636768D01*
X1687366Y12493195D01*
X1687371Y12493193D01*
X1687372Y12493192D01*
X1687373Y12493191D01*
X1805867Y12436128D01*
X1916992Y12382613D01*
X1916993Y12382613D01*
X1916996Y12382611D01*
X2160542Y12307487D01*
X2412565Y12269500D01*
X2667435Y12269500D01*
X2919458Y12307487D01*
X3163004Y12382611D01*
X3392634Y12493195D01*
X3603217Y12636768D01*
X3790050Y12810123D01*
X3879917Y12922814D01*
X3937106Y12962953D01*
X3976864Y12969500D01*
X7789218Y12969500D01*
X7856257Y12949815D01*
X7876898Y12933182D01*
X11670261Y9139818D01*
X11703745Y9078497D01*
X11698761Y9008805D01*
X11691414Y8992717D01*
X11691204Y8992333D01*
X11640908Y8857483D01*
X11634501Y8797884D01*
X11634500Y8797865D01*
X11634500Y5202130D01*
X11634501Y5202124D01*
X11640908Y5142517D01*
X11691202Y5007672D01*
X11691206Y5007665D01*
X11777452Y4892456D01*
X11777455Y4892453D01*
X11892664Y4806207D01*
X11892673Y4806202D01*
X11939937Y4788574D01*
X11995871Y4746704D01*
X12020289Y4681240D01*
X12005438Y4612967D01*
X11956033Y4563561D01*
X11890028Y4548567D01*
X11853657Y4550499D01*
X11853628Y4550500D01*
X11853622Y4550500D01*
X11853614Y4550500D01*
X10715783Y4550500D01*
X10648744Y4570185D01*
X10628102Y4586819D01*
X9821341Y5393579D01*
X9787856Y5454902D01*
X9792840Y5524593D01*
X9796115Y5532523D01*
X9820096Y5585317D01*
X9875096Y5803588D01*
X9885500Y5935783D01*
X9885499Y8064216D01*
X9875096Y8196412D01*
X9849540Y8297831D01*
X9820097Y8414679D01*
X9820096Y8414682D01*
X9779941Y8503086D01*
X9727007Y8619626D01*
X9662777Y8712336D01*
X9598825Y8804646D01*
X9598822Y8804650D01*
X9598819Y8804654D01*
X9439654Y8963819D01*
X9439650Y8963822D01*
X9439645Y8963826D01*
X9254632Y9092003D01*
X9254630Y9092005D01*
X9254626Y9092007D01*
X9210286Y9112147D01*
X9049681Y9185097D01*
X9049678Y9185098D01*
X8831420Y9240095D01*
X8831413Y9240096D01*
X8787347Y9243564D01*
X8699217Y9250500D01*
X8699215Y9250500D01*
X7070791Y9250500D01*
X7070776Y9250499D01*
X6938586Y9240096D01*
X6938579Y9240095D01*
X6720321Y9185098D01*
X6720318Y9185097D01*
X6515377Y9092009D01*
X6515367Y9092003D01*
X6330354Y8963826D01*
X6330342Y8963816D01*
X6171184Y8804658D01*
X6171174Y8804646D01*
X6042997Y8619633D01*
X6042991Y8619623D01*
X5949903Y8414682D01*
X5949902Y8414679D01*
X5894905Y8196421D01*
X5894904Y8196414D01*
X5884500Y8064223D01*
X5884500Y5935792D01*
X5884501Y5935777D01*
X5894904Y5803587D01*
X5894905Y5803580D01*
X5949902Y5585322D01*
X5949903Y5585319D01*
X6042991Y5380378D01*
X6042997Y5380368D01*
X6171174Y5195355D01*
X6171178Y5195350D01*
X6171181Y5195346D01*
X6330346Y5036181D01*
X6330350Y5036178D01*
X6330354Y5036175D01*
X6469603Y4939703D01*
X6515374Y4907993D01*
X6720317Y4814904D01*
X6720321Y4814903D01*
X6938579Y4759906D01*
X6938581Y4759906D01*
X6938588Y4759904D01*
X7070783Y4749500D01*
X7584217Y4749501D01*
X7651256Y4729817D01*
X7671898Y4713182D01*
X8666866Y3718214D01*
X8700351Y3656891D01*
X8695367Y3587199D01*
X8695199Y3586752D01*
X8681755Y3551128D01*
X8637295Y3321245D01*
X8637295Y3321244D01*
X8634501Y3268653D01*
X8634500Y3268614D01*
X8634500Y1331387D01*
X8634501Y1331348D01*
X8637295Y1278757D01*
X8637295Y1278756D01*
X8681754Y1048879D01*
X8681755Y1048874D01*
X8730326Y920168D01*
X8764425Y829811D01*
X8848372Y686758D01*
X8865324Y618976D01*
X8842940Y552789D01*
X8788325Y509211D01*
X8741426Y500000D01*
X624000Y500000D01*
X556961Y519685D01*
X511206Y572489D01*
X500000Y624000D01*
X500000Y18070006D01*
X959859Y18070006D01*
X959859Y18069995D01*
X980385Y17822271D01*
X980387Y17822262D01*
X1041412Y17581283D01*
X1141267Y17353633D01*
X1241562Y17200119D01*
X1941212Y17899767D01*
X1952482Y17857708D01*
X2024890Y17732292D01*
X2127292Y17629890D01*
X2252708Y17557482D01*
X2294766Y17546213D01*
X1594943Y16846391D01*
X1641768Y16809945D01*
X1641771Y16809943D01*
X1860385Y16691636D01*
X1860396Y16691631D01*
X2095506Y16610917D01*
X2340707Y16570000D01*
X2589293Y16570000D01*
X2834493Y16610917D01*
X3069603Y16691631D01*
X3069614Y16691636D01*
X3288230Y16809944D01*
X3288236Y16809949D01*
X3335055Y16846390D01*
X3335056Y16846391D01*
X2635233Y17546213D01*
X2677292Y17557482D01*
X2802708Y17629890D01*
X2905110Y17732292D01*
X2977518Y17857708D01*
X2988787Y17899767D01*
X3688435Y17200118D01*
X3788733Y17353636D01*
X3888587Y17581283D01*
X3949612Y17822262D01*
X3949614Y17822271D01*
X3970141Y18069995D01*
X3970141Y18070006D01*
X7459859Y18070006D01*
X7459859Y18069995D01*
X7480385Y17822271D01*
X7480387Y17822262D01*
X7541412Y17581283D01*
X7641267Y17353633D01*
X7741562Y17200119D01*
X8441212Y17899767D01*
X8452482Y17857708D01*
X8524890Y17732292D01*
X8627292Y17629890D01*
X8752708Y17557482D01*
X8794766Y17546213D01*
X8094943Y16846391D01*
X8141768Y16809945D01*
X8141771Y16809943D01*
X8360385Y16691636D01*
X8360396Y16691631D01*
X8595506Y16610917D01*
X8840707Y16570000D01*
X9089293Y16570000D01*
X9334493Y16610917D01*
X9569603Y16691631D01*
X9569614Y16691636D01*
X9788230Y16809944D01*
X9788236Y16809949D01*
X9835055Y16846390D01*
X9835056Y16846391D01*
X9135233Y17546213D01*
X9177292Y17557482D01*
X9302708Y17629890D01*
X9405110Y17732292D01*
X9477518Y17857708D01*
X9488787Y17899766D01*
X10188435Y17200118D01*
X10288733Y17353636D01*
X10388587Y17581283D01*
X10449612Y17822262D01*
X10449614Y17822271D01*
X10470141Y18069995D01*
X10470141Y18070006D01*
X10449614Y18317730D01*
X10449612Y18317739D01*
X10388587Y18558718D01*
X10288732Y18786368D01*
X10188435Y18939884D01*
X9488787Y18240235D01*
X9477518Y18282292D01*
X9405110Y18407708D01*
X9302708Y18510110D01*
X9177292Y18582518D01*
X9135233Y18593788D01*
X9835055Y19293611D01*
X9835055Y19293612D01*
X9788236Y19330053D01*
X9788231Y19330056D01*
X9569614Y19448365D01*
X9569603Y19448370D01*
X9334493Y19529084D01*
X9089293Y19570000D01*
X8840707Y19570000D01*
X8595506Y19529084D01*
X8360396Y19448370D01*
X8360385Y19448365D01*
X8141770Y19330057D01*
X8094943Y19293611D01*
X8794766Y18593788D01*
X8752708Y18582518D01*
X8627292Y18510110D01*
X8524890Y18407708D01*
X8452482Y18282292D01*
X8441212Y18240234D01*
X7741563Y18939883D01*
X7641267Y18786367D01*
X7641265Y18786363D01*
X7541412Y18558718D01*
X7480387Y18317739D01*
X7480385Y18317730D01*
X7459859Y18070006D01*
X3970141Y18070006D01*
X3949614Y18317730D01*
X3949612Y18317739D01*
X3888587Y18558718D01*
X3788732Y18786368D01*
X3688435Y18939884D01*
X2988787Y18240235D01*
X2977518Y18282292D01*
X2905110Y18407708D01*
X2802708Y18510110D01*
X2677292Y18582518D01*
X2635233Y18593788D01*
X3335055Y19293611D01*
X3335055Y19293612D01*
X3288236Y19330053D01*
X3288231Y19330056D01*
X3069614Y19448365D01*
X3069603Y19448370D01*
X2834493Y19529084D01*
X2589293Y19570000D01*
X2340707Y19570000D01*
X2095506Y19529084D01*
X1860396Y19448370D01*
X1860385Y19448365D01*
X1641770Y19330057D01*
X1594943Y19293611D01*
X2294766Y18593788D01*
X2252708Y18582518D01*
X2127292Y18510110D01*
X2024890Y18407708D01*
X1952482Y18282292D01*
X1941212Y18240234D01*
X1241563Y18939883D01*
X1141267Y18786367D01*
X1141265Y18786363D01*
X1041412Y18558718D01*
X980387Y18317739D01*
X980385Y18317730D01*
X959859Y18070006D01*
X500000Y18070006D01*
X500000Y22570006D01*
X959357Y22570006D01*
X959357Y22569995D01*
X979890Y22322188D01*
X979892Y22322176D01*
X1040936Y22081119D01*
X1140826Y21853394D01*
X1276833Y21645218D01*
X1276836Y21645215D01*
X1445256Y21462262D01*
X1641491Y21309526D01*
X1860190Y21191172D01*
X2095386Y21110429D01*
X2340665Y21069500D01*
X2589335Y21069500D01*
X2834614Y21110429D01*
X3069810Y21191172D01*
X3288509Y21309526D01*
X3484744Y21462262D01*
X3653164Y21645215D01*
X3789173Y21853393D01*
X3807560Y21895311D01*
X3852517Y21948796D01*
X3919253Y21969486D01*
X3921116Y21969500D01*
X7508884Y21969500D01*
X7575923Y21949815D01*
X7621678Y21897011D01*
X7622440Y21895311D01*
X7640827Y21853392D01*
X7776833Y21645218D01*
X7776836Y21645215D01*
X7945256Y21462262D01*
X8141491Y21309526D01*
X8360190Y21191172D01*
X8595386Y21110429D01*
X8840665Y21069500D01*
X9089335Y21069500D01*
X9334614Y21110429D01*
X9569810Y21191172D01*
X9788509Y21309526D01*
X9984744Y21462262D01*
X10153164Y21645215D01*
X10289173Y21853393D01*
X10389063Y22081119D01*
X10450108Y22322179D01*
X10470643Y22570000D01*
X10450108Y22817821D01*
X10389063Y23058881D01*
X10340102Y23170500D01*
X10289173Y23286607D01*
X10153166Y23494783D01*
X10131557Y23518256D01*
X9984744Y23677738D01*
X9788509Y23830474D01*
X9788507Y23830475D01*
X9788506Y23830476D01*
X9569811Y23948828D01*
X9569802Y23948831D01*
X9334616Y24029571D01*
X9089335Y24070500D01*
X8840665Y24070500D01*
X8595383Y24029571D01*
X8360197Y23948831D01*
X8360188Y23948828D01*
X8141493Y23830476D01*
X7945257Y23677739D01*
X7776833Y23494783D01*
X7640827Y23286609D01*
X7622440Y23244689D01*
X7577483Y23191204D01*
X7510747Y23170514D01*
X7508884Y23170500D01*
X3921116Y23170500D01*
X3854077Y23190185D01*
X3808322Y23242989D01*
X3807560Y23244689D01*
X3789172Y23286609D01*
X3653166Y23494783D01*
X3631557Y23518256D01*
X3484744Y23677738D01*
X3288509Y23830474D01*
X3288507Y23830475D01*
X3288506Y23830476D01*
X3069811Y23948828D01*
X3069802Y23948831D01*
X2834616Y24029571D01*
X2589335Y24070500D01*
X2340665Y24070500D01*
X2095383Y24029571D01*
X1860197Y23948831D01*
X1860188Y23948828D01*
X1641493Y23830476D01*
X1445257Y23677739D01*
X1276833Y23494783D01*
X1140826Y23286607D01*
X1040936Y23058882D01*
X979892Y22817825D01*
X979890Y22817813D01*
X959357Y22570006D01*
X500000Y22570006D01*
X500000Y26325006D01*
X959859Y26325006D01*
X959859Y26324995D01*
X980385Y26077271D01*
X980387Y26077262D01*
X1041412Y25836283D01*
X1141267Y25608633D01*
X1241562Y25455119D01*
X1941212Y26154767D01*
X1952482Y26112708D01*
X2024890Y25987292D01*
X2127292Y25884890D01*
X2252708Y25812482D01*
X2294766Y25801213D01*
X1594943Y25101391D01*
X1641768Y25064945D01*
X1641771Y25064943D01*
X1860385Y24946636D01*
X1860396Y24946631D01*
X2095506Y24865917D01*
X2340707Y24825000D01*
X2589293Y24825000D01*
X2834493Y24865917D01*
X3069603Y24946631D01*
X3069614Y24946636D01*
X3288230Y25064944D01*
X3288236Y25064949D01*
X3335055Y25101390D01*
X3335056Y25101391D01*
X2635233Y25801213D01*
X2677292Y25812482D01*
X2802708Y25884890D01*
X2905110Y25987292D01*
X2977518Y26112708D01*
X2988787Y26154767D01*
X3688435Y25455118D01*
X3788733Y25608636D01*
X3888587Y25836283D01*
X3949612Y26077262D01*
X3949614Y26077271D01*
X3970141Y26324995D01*
X3970141Y26325006D01*
X7459859Y26325006D01*
X7459859Y26324995D01*
X7480385Y26077271D01*
X7480387Y26077262D01*
X7541412Y25836283D01*
X7641267Y25608633D01*
X7741562Y25455119D01*
X8441212Y26154767D01*
X8452482Y26112708D01*
X8524890Y25987292D01*
X8627292Y25884890D01*
X8752708Y25812482D01*
X8794766Y25801213D01*
X8094943Y25101391D01*
X8141768Y25064945D01*
X8141771Y25064943D01*
X8360385Y24946636D01*
X8360396Y24946631D01*
X8595506Y24865917D01*
X8840707Y24825000D01*
X9089293Y24825000D01*
X9334493Y24865917D01*
X9569603Y24946631D01*
X9569614Y24946636D01*
X9788230Y25064944D01*
X9788236Y25064949D01*
X9835055Y25101390D01*
X9835056Y25101391D01*
X9135233Y25801213D01*
X9177292Y25812482D01*
X9302708Y25884890D01*
X9405110Y25987292D01*
X9477518Y26112708D01*
X9488787Y26154766D01*
X10188435Y25455118D01*
X10288733Y25608636D01*
X10388587Y25836283D01*
X10449612Y26077262D01*
X10449614Y26077271D01*
X10470141Y26324995D01*
X10470141Y26325006D01*
X10449614Y26572730D01*
X10449612Y26572739D01*
X10388587Y26813718D01*
X10288732Y27041368D01*
X10188435Y27194884D01*
X9488787Y26495235D01*
X9477518Y26537292D01*
X9405110Y26662708D01*
X9302708Y26765110D01*
X9177292Y26837518D01*
X9135233Y26848788D01*
X9835055Y27548611D01*
X9835055Y27548612D01*
X9788236Y27585053D01*
X9788231Y27585056D01*
X9569614Y27703365D01*
X9569603Y27703370D01*
X9334493Y27784084D01*
X9089293Y27825000D01*
X8840707Y27825000D01*
X8595506Y27784084D01*
X8360396Y27703370D01*
X8360385Y27703365D01*
X8141770Y27585057D01*
X8094943Y27548611D01*
X8794766Y26848788D01*
X8752708Y26837518D01*
X8627292Y26765110D01*
X8524890Y26662708D01*
X8452482Y26537292D01*
X8441212Y26495234D01*
X7741563Y27194883D01*
X7641267Y27041367D01*
X7641265Y27041363D01*
X7541412Y26813718D01*
X7480387Y26572739D01*
X7480385Y26572730D01*
X7459859Y26325006D01*
X3970141Y26325006D01*
X3949614Y26572730D01*
X3949612Y26572739D01*
X3888587Y26813718D01*
X3788732Y27041368D01*
X3688435Y27194884D01*
X2988787Y26495235D01*
X2977518Y26537292D01*
X2905110Y26662708D01*
X2802708Y26765110D01*
X2677292Y26837518D01*
X2635233Y26848788D01*
X3335055Y27548611D01*
X3335055Y27548612D01*
X3288236Y27585053D01*
X3288231Y27585056D01*
X3069614Y27703365D01*
X3069603Y27703370D01*
X2834493Y27784084D01*
X2589293Y27825000D01*
X2340707Y27825000D01*
X2095506Y27784084D01*
X1860396Y27703370D01*
X1860385Y27703365D01*
X1641770Y27585057D01*
X1594943Y27548611D01*
X2294766Y26848788D01*
X2252708Y26837518D01*
X2127292Y26765110D01*
X2024890Y26662708D01*
X1952482Y26537292D01*
X1941212Y26495234D01*
X1241563Y27194883D01*
X1141267Y27041367D01*
X1141265Y27041363D01*
X1041412Y26813718D01*
X980387Y26572739D01*
X980385Y26572730D01*
X959859Y26325006D01*
X500000Y26325006D01*
X500000Y30825006D01*
X959357Y30825006D01*
X959357Y30824995D01*
X979890Y30577188D01*
X979892Y30577176D01*
X1040936Y30336119D01*
X1140826Y30108394D01*
X1276833Y29900218D01*
X1276836Y29900215D01*
X1445256Y29717262D01*
X1641491Y29564526D01*
X1860190Y29446172D01*
X2095386Y29365429D01*
X2340665Y29324500D01*
X2589335Y29324500D01*
X2834614Y29365429D01*
X3069810Y29446172D01*
X3288509Y29564526D01*
X3484744Y29717262D01*
X3653164Y29900215D01*
X3789173Y30108393D01*
X3807560Y30150311D01*
X3852517Y30203796D01*
X3919253Y30224486D01*
X3921116Y30224500D01*
X7508884Y30224500D01*
X7575923Y30204815D01*
X7621678Y30152011D01*
X7622440Y30150311D01*
X7640827Y30108392D01*
X7776833Y29900218D01*
X7776836Y29900215D01*
X7945256Y29717262D01*
X8141491Y29564526D01*
X8360190Y29446172D01*
X8595386Y29365429D01*
X8840665Y29324500D01*
X9089335Y29324500D01*
X9334614Y29365429D01*
X9569810Y29446172D01*
X9788509Y29564526D01*
X9984744Y29717262D01*
X10153164Y29900215D01*
X10289173Y30108393D01*
X10307560Y30150311D01*
X10352517Y30203796D01*
X10419253Y30224486D01*
X10421116Y30224500D01*
X15788331Y30224500D01*
X15788347Y30224499D01*
X15795943Y30224499D01*
X15954054Y30224499D01*
X15954057Y30224499D01*
X16106785Y30265423D01*
X16156904Y30294361D01*
X16243716Y30344480D01*
X16355520Y30456284D01*
X16355520Y30456286D01*
X16365728Y30466493D01*
X16365730Y30466496D01*
X18148713Y32249479D01*
X18148716Y32249480D01*
X18260520Y32361284D01*
X18310639Y32448096D01*
X18339577Y32498215D01*
X18380501Y32650943D01*
X18380501Y32809057D01*
X18380501Y32816652D01*
X18380500Y32816670D01*
X18380500Y33275399D01*
X18400185Y33342438D01*
X18448206Y33385884D01*
X18461610Y33392713D01*
X18627219Y33513034D01*
X18771966Y33657781D01*
X18771968Y33657785D01*
X18771971Y33657787D01*
X18892284Y33823386D01*
X18892286Y33823389D01*
X18892287Y33823390D01*
X18939516Y33916083D01*
X18987489Y33966877D01*
X19055310Y33983672D01*
X19121445Y33961135D01*
X19160485Y33916081D01*
X19207715Y33823386D01*
X19328028Y33657787D01*
X19472786Y33513029D01*
X19627749Y33400444D01*
X19638390Y33392713D01*
X19737060Y33342438D01*
X19820776Y33299782D01*
X19820778Y33299782D01*
X19820781Y33299780D01*
X19895818Y33275399D01*
X20015465Y33236523D01*
X20074252Y33227212D01*
X20217648Y33204500D01*
X20217649Y33204500D01*
X20422351Y33204500D01*
X20422352Y33204500D01*
X20624534Y33236523D01*
X20819219Y33299780D01*
X21001610Y33392713D01*
X21094590Y33460268D01*
X21167213Y33513029D01*
X21167215Y33513032D01*
X21167219Y33513034D01*
X21311966Y33657781D01*
X21311968Y33657785D01*
X21311971Y33657787D01*
X21432284Y33823386D01*
X21432286Y33823389D01*
X21432287Y33823390D01*
X21479516Y33916083D01*
X21527489Y33966877D01*
X21595310Y33983672D01*
X21661445Y33961135D01*
X21700485Y33916081D01*
X21747715Y33823386D01*
X21868028Y33657787D01*
X22012786Y33513029D01*
X22167749Y33400444D01*
X22178390Y33392713D01*
X22277060Y33342438D01*
X22360776Y33299782D01*
X22360778Y33299782D01*
X22360781Y33299780D01*
X22435818Y33275399D01*
X22555465Y33236523D01*
X22614252Y33227212D01*
X22757648Y33204500D01*
X22757649Y33204500D01*
X22962351Y33204500D01*
X22962352Y33204500D01*
X23164534Y33236523D01*
X23359219Y33299780D01*
X23541610Y33392713D01*
X23634590Y33460268D01*
X23707213Y33513029D01*
X23707215Y33513032D01*
X23707219Y33513034D01*
X23851966Y33657781D01*
X23851968Y33657785D01*
X23851971Y33657787D01*
X23972284Y33823386D01*
X23972286Y33823389D01*
X23972287Y33823390D01*
X24019516Y33916083D01*
X24067489Y33966877D01*
X24135310Y33983672D01*
X24201445Y33961135D01*
X24240485Y33916081D01*
X24287715Y33823386D01*
X24408028Y33657787D01*
X24552786Y33513029D01*
X24707749Y33400444D01*
X24718390Y33392713D01*
X24817060Y33342438D01*
X24900776Y33299782D01*
X24900778Y33299782D01*
X24900781Y33299780D01*
X24975818Y33275399D01*
X25095465Y33236523D01*
X25154252Y33227212D01*
X25297648Y33204500D01*
X25297649Y33204500D01*
X25502351Y33204500D01*
X25502352Y33204500D01*
X25704534Y33236523D01*
X25899219Y33299780D01*
X26081610Y33392713D01*
X26174590Y33460268D01*
X26247213Y33513029D01*
X26247215Y33513032D01*
X26247219Y33513034D01*
X26391966Y33657781D01*
X26391968Y33657785D01*
X26391971Y33657787D01*
X26512284Y33823386D01*
X26512286Y33823389D01*
X26512287Y33823390D01*
X26559516Y33916083D01*
X26607489Y33966877D01*
X26675310Y33983672D01*
X26741445Y33961135D01*
X26780485Y33916081D01*
X26827715Y33823386D01*
X26948028Y33657787D01*
X27092786Y33513029D01*
X27247749Y33400444D01*
X27258390Y33392713D01*
X27357060Y33342438D01*
X27440776Y33299782D01*
X27440778Y33299782D01*
X27440781Y33299780D01*
X27515818Y33275399D01*
X27635465Y33236523D01*
X27694252Y33227212D01*
X27837648Y33204500D01*
X27837649Y33204500D01*
X28042351Y33204500D01*
X28042352Y33204500D01*
X28244534Y33236523D01*
X28439219Y33299780D01*
X28621610Y33392713D01*
X28714590Y33460268D01*
X28787213Y33513029D01*
X28787215Y33513032D01*
X28787219Y33513034D01*
X28931966Y33657781D01*
X28931968Y33657785D01*
X28931971Y33657787D01*
X29052284Y33823386D01*
X29052286Y33823389D01*
X29052287Y33823390D01*
X29099516Y33916083D01*
X29147489Y33966877D01*
X29215310Y33983672D01*
X29281445Y33961135D01*
X29320485Y33916081D01*
X29367715Y33823386D01*
X29488028Y33657787D01*
X29632786Y33513029D01*
X29787749Y33400444D01*
X29798390Y33392713D01*
X29897060Y33342438D01*
X29980776Y33299782D01*
X29980778Y33299782D01*
X29980781Y33299780D01*
X30055818Y33275399D01*
X30175465Y33236523D01*
X30234252Y33227212D01*
X30377648Y33204500D01*
X30377649Y33204500D01*
X30582351Y33204500D01*
X30582352Y33204500D01*
X30784534Y33236523D01*
X30979219Y33299780D01*
X31161610Y33392713D01*
X31254590Y33460268D01*
X31327213Y33513029D01*
X31327215Y33513032D01*
X31327219Y33513034D01*
X31471966Y33657781D01*
X31471968Y33657785D01*
X31471971Y33657787D01*
X31592284Y33823386D01*
X31592286Y33823389D01*
X31592287Y33823390D01*
X31639516Y33916083D01*
X31687489Y33966877D01*
X31755310Y33983672D01*
X31821445Y33961135D01*
X31860485Y33916081D01*
X31907715Y33823386D01*
X32028028Y33657787D01*
X32172786Y33513029D01*
X32327749Y33400444D01*
X32338390Y33392713D01*
X32437060Y33342438D01*
X32520776Y33299782D01*
X32520778Y33299782D01*
X32520781Y33299780D01*
X32595818Y33275399D01*
X32715465Y33236523D01*
X32774252Y33227212D01*
X32917648Y33204500D01*
X32917649Y33204500D01*
X33122351Y33204500D01*
X33122352Y33204500D01*
X33324534Y33236523D01*
X33519219Y33299780D01*
X33701610Y33392713D01*
X33794590Y33460268D01*
X33867213Y33513029D01*
X33867215Y33513032D01*
X33867219Y33513034D01*
X34011966Y33657781D01*
X34011968Y33657785D01*
X34011971Y33657787D01*
X34132284Y33823386D01*
X34132286Y33823389D01*
X34132287Y33823390D01*
X34179516Y33916083D01*
X34227489Y33966877D01*
X34295310Y33983672D01*
X34361445Y33961135D01*
X34400485Y33916081D01*
X34447715Y33823386D01*
X34568028Y33657787D01*
X34712786Y33513029D01*
X34867749Y33400444D01*
X34878390Y33392713D01*
X34977060Y33342438D01*
X35060776Y33299782D01*
X35060778Y33299782D01*
X35060781Y33299780D01*
X35135818Y33275399D01*
X35255465Y33236523D01*
X35314252Y33227212D01*
X35457648Y33204500D01*
X35457649Y33204500D01*
X35662351Y33204500D01*
X35662352Y33204500D01*
X35864534Y33236523D01*
X36059219Y33299780D01*
X36241610Y33392713D01*
X36334590Y33460268D01*
X36407213Y33513029D01*
X36407215Y33513032D01*
X36407219Y33513034D01*
X36551966Y33657781D01*
X36551968Y33657785D01*
X36551971Y33657787D01*
X36672284Y33823386D01*
X36672286Y33823389D01*
X36672287Y33823390D01*
X36719516Y33916083D01*
X36767489Y33966877D01*
X36835310Y33983672D01*
X36901445Y33961135D01*
X36940485Y33916081D01*
X36987715Y33823386D01*
X37108028Y33657787D01*
X37252786Y33513029D01*
X37407749Y33400444D01*
X37418390Y33392713D01*
X37517060Y33342438D01*
X37600776Y33299782D01*
X37600778Y33299782D01*
X37600781Y33299780D01*
X37675818Y33275399D01*
X37795465Y33236523D01*
X37854252Y33227212D01*
X37997648Y33204500D01*
X37997649Y33204500D01*
X38202351Y33204500D01*
X38202352Y33204500D01*
X38404534Y33236523D01*
X38599219Y33299780D01*
X38781610Y33392713D01*
X38874590Y33460268D01*
X38947213Y33513029D01*
X38947215Y33513032D01*
X38947219Y33513034D01*
X39091966Y33657781D01*
X39091968Y33657785D01*
X39091971Y33657787D01*
X39212284Y33823386D01*
X39212286Y33823389D01*
X39212287Y33823390D01*
X39259516Y33916083D01*
X39307489Y33966877D01*
X39375310Y33983672D01*
X39441445Y33961135D01*
X39480485Y33916081D01*
X39527715Y33823386D01*
X39648028Y33657787D01*
X39792786Y33513029D01*
X39947749Y33400444D01*
X39958390Y33392713D01*
X40057060Y33342438D01*
X40140776Y33299782D01*
X40140778Y33299782D01*
X40140781Y33299780D01*
X40215818Y33275399D01*
X40335465Y33236523D01*
X40394252Y33227212D01*
X40537648Y33204500D01*
X40537649Y33204500D01*
X40742351Y33204500D01*
X40742352Y33204500D01*
X40944534Y33236523D01*
X41139219Y33299780D01*
X41321610Y33392713D01*
X41414590Y33460268D01*
X41487213Y33513029D01*
X41487215Y33513032D01*
X41487219Y33513034D01*
X41631966Y33657781D01*
X41631968Y33657785D01*
X41631971Y33657787D01*
X41752284Y33823386D01*
X41752286Y33823389D01*
X41752287Y33823390D01*
X41799516Y33916083D01*
X41847489Y33966877D01*
X41915310Y33983672D01*
X41981445Y33961135D01*
X42020485Y33916081D01*
X42067715Y33823386D01*
X42188028Y33657787D01*
X42332786Y33513029D01*
X42487749Y33400444D01*
X42498390Y33392713D01*
X42597060Y33342438D01*
X42680776Y33299782D01*
X42680778Y33299782D01*
X42680781Y33299780D01*
X42755818Y33275399D01*
X42875465Y33236523D01*
X42934252Y33227212D01*
X43077648Y33204500D01*
X43077649Y33204500D01*
X43282351Y33204500D01*
X43282352Y33204500D01*
X43484534Y33236523D01*
X43679219Y33299780D01*
X43861610Y33392713D01*
X43954590Y33460268D01*
X44027213Y33513029D01*
X44027215Y33513032D01*
X44027219Y33513034D01*
X44171966Y33657781D01*
X44171968Y33657785D01*
X44171971Y33657787D01*
X44292284Y33823386D01*
X44292286Y33823389D01*
X44292287Y33823390D01*
X44339516Y33916083D01*
X44387489Y33966877D01*
X44455310Y33983672D01*
X44521445Y33961135D01*
X44560485Y33916081D01*
X44607715Y33823386D01*
X44728028Y33657787D01*
X44872786Y33513029D01*
X45027749Y33400444D01*
X45038390Y33392713D01*
X45137060Y33342438D01*
X45220776Y33299782D01*
X45220778Y33299782D01*
X45220781Y33299780D01*
X45295818Y33275399D01*
X45415465Y33236523D01*
X45474252Y33227212D01*
X45617648Y33204500D01*
X45617649Y33204500D01*
X45822351Y33204500D01*
X45822352Y33204500D01*
X46024534Y33236523D01*
X46219219Y33299780D01*
X46401610Y33392713D01*
X46494590Y33460268D01*
X46567213Y33513029D01*
X46567215Y33513032D01*
X46567219Y33513034D01*
X46711966Y33657781D01*
X46711968Y33657785D01*
X46711971Y33657787D01*
X46832284Y33823386D01*
X46832286Y33823389D01*
X46832287Y33823390D01*
X46879516Y33916083D01*
X46927489Y33966877D01*
X46995310Y33983672D01*
X47061445Y33961135D01*
X47100485Y33916081D01*
X47147715Y33823386D01*
X47268028Y33657787D01*
X47412786Y33513029D01*
X47567749Y33400444D01*
X47578390Y33392713D01*
X47677060Y33342438D01*
X47760776Y33299782D01*
X47760778Y33299782D01*
X47760781Y33299780D01*
X47835818Y33275399D01*
X47955465Y33236523D01*
X48014252Y33227212D01*
X48157648Y33204500D01*
X48157649Y33204500D01*
X48362351Y33204500D01*
X48362352Y33204500D01*
X48564534Y33236523D01*
X48759219Y33299780D01*
X48941610Y33392713D01*
X49034590Y33460268D01*
X49107213Y33513029D01*
X49107215Y33513032D01*
X49107219Y33513034D01*
X49251966Y33657781D01*
X49251968Y33657785D01*
X49251971Y33657787D01*
X49372284Y33823386D01*
X49372286Y33823389D01*
X49372287Y33823390D01*
X49419516Y33916083D01*
X49467489Y33966877D01*
X49535310Y33983672D01*
X49601445Y33961135D01*
X49640485Y33916081D01*
X49687715Y33823386D01*
X49808028Y33657787D01*
X49952786Y33513029D01*
X50107749Y33400444D01*
X50118390Y33392713D01*
X50217060Y33342438D01*
X50300776Y33299782D01*
X50300778Y33299782D01*
X50300781Y33299780D01*
X50375818Y33275399D01*
X50495465Y33236523D01*
X50554252Y33227212D01*
X50697648Y33204500D01*
X50697649Y33204500D01*
X50902351Y33204500D01*
X50902352Y33204500D01*
X51104534Y33236523D01*
X51299219Y33299780D01*
X51481610Y33392713D01*
X51574590Y33460268D01*
X51647213Y33513029D01*
X51647215Y33513032D01*
X51647219Y33513034D01*
X51791966Y33657781D01*
X51791968Y33657785D01*
X51791971Y33657787D01*
X51912284Y33823386D01*
X51912286Y33823389D01*
X51912287Y33823390D01*
X51959516Y33916083D01*
X52007489Y33966877D01*
X52075310Y33983672D01*
X52141445Y33961135D01*
X52180485Y33916081D01*
X52227715Y33823386D01*
X52348028Y33657787D01*
X52492786Y33513029D01*
X52647749Y33400444D01*
X52658390Y33392713D01*
X52757060Y33342438D01*
X52840776Y33299782D01*
X52840778Y33299782D01*
X52840781Y33299780D01*
X52915818Y33275399D01*
X53035465Y33236523D01*
X53094252Y33227212D01*
X53237648Y33204500D01*
X53237649Y33204500D01*
X53442351Y33204500D01*
X53442352Y33204500D01*
X53644534Y33236523D01*
X53839219Y33299780D01*
X54021610Y33392713D01*
X54114590Y33460268D01*
X54187213Y33513029D01*
X54187215Y33513032D01*
X54187219Y33513034D01*
X54331966Y33657781D01*
X54331968Y33657785D01*
X54331971Y33657787D01*
X54452284Y33823386D01*
X54452286Y33823389D01*
X54452287Y33823390D01*
X54499516Y33916083D01*
X54547489Y33966877D01*
X54615310Y33983672D01*
X54681445Y33961135D01*
X54720485Y33916081D01*
X54767715Y33823386D01*
X54888028Y33657787D01*
X55032786Y33513029D01*
X55187749Y33400444D01*
X55198390Y33392713D01*
X55297060Y33342438D01*
X55380776Y33299782D01*
X55380778Y33299782D01*
X55380781Y33299780D01*
X55455818Y33275399D01*
X55575465Y33236523D01*
X55634252Y33227212D01*
X55777648Y33204500D01*
X55777649Y33204500D01*
X55982351Y33204500D01*
X55982352Y33204500D01*
X56184534Y33236523D01*
X56379219Y33299780D01*
X56561610Y33392713D01*
X56654590Y33460268D01*
X56727213Y33513029D01*
X56727215Y33513032D01*
X56727219Y33513034D01*
X56871966Y33657781D01*
X56871968Y33657785D01*
X56871971Y33657787D01*
X56992284Y33823386D01*
X56992286Y33823389D01*
X56992287Y33823390D01*
X57039516Y33916083D01*
X57087489Y33966877D01*
X57155310Y33983672D01*
X57221445Y33961135D01*
X57260485Y33916081D01*
X57307715Y33823386D01*
X57428028Y33657787D01*
X57572786Y33513029D01*
X57727749Y33400444D01*
X57738390Y33392713D01*
X57837060Y33342438D01*
X57920776Y33299782D01*
X57920778Y33299782D01*
X57920781Y33299780D01*
X57995818Y33275399D01*
X58115465Y33236523D01*
X58174252Y33227212D01*
X58317648Y33204500D01*
X58317649Y33204500D01*
X58522351Y33204500D01*
X58522352Y33204500D01*
X58631664Y33221814D01*
X58700957Y33212860D01*
X58738743Y33187022D01*
X61730139Y30195626D01*
X61730149Y30195615D01*
X61734479Y30191285D01*
X61734480Y30191284D01*
X61846284Y30079480D01*
X61846286Y30079479D01*
X61846290Y30079476D01*
X61983209Y30000427D01*
X61983216Y30000423D01*
X62095019Y29970466D01*
X62135942Y29959500D01*
X62135943Y29959500D01*
X62230943Y29959500D01*
X67013512Y29959500D01*
X67080551Y29939815D01*
X67126306Y29887011D01*
X67128073Y29882952D01*
X67149532Y29831144D01*
X67149533Y29831142D01*
X67281160Y29616347D01*
X67281161Y29616344D01*
X67444778Y29424774D01*
X67621031Y29274240D01*
X67659225Y29215734D01*
X67664500Y29179950D01*
X67664500Y28970120D01*
X67644815Y28903081D01*
X67619169Y28874271D01*
X67554117Y28820883D01*
X67554114Y28820881D01*
X67554112Y28820878D01*
X67429090Y28668540D01*
X67429086Y28668533D01*
X67336188Y28494734D01*
X67278975Y28306130D01*
X67259659Y28110000D01*
X67278975Y27913871D01*
X67336188Y27725267D01*
X67429086Y27551468D01*
X67429090Y27551461D01*
X67554116Y27399117D01*
X67706460Y27274091D01*
X67706467Y27274087D01*
X67880266Y27181189D01*
X67880269Y27181189D01*
X67880273Y27181186D01*
X68068868Y27123976D01*
X68265000Y27104659D01*
X68461132Y27123976D01*
X68649727Y27181186D01*
X68675353Y27194883D01*
X68823532Y27274087D01*
X68823538Y27274090D01*
X68975883Y27399117D01*
X69100910Y27551462D01*
X69105640Y27560313D01*
X69154602Y27610157D01*
X69222739Y27625619D01*
X69288419Y27601789D01*
X69324360Y27560312D01*
X69329091Y27551461D01*
X69454116Y27399117D01*
X69606460Y27274091D01*
X69606467Y27274087D01*
X69780266Y27181189D01*
X69780269Y27181189D01*
X69780273Y27181186D01*
X69968868Y27123976D01*
X70165000Y27104659D01*
X70361132Y27123976D01*
X70549727Y27181186D01*
X70575353Y27194883D01*
X70723532Y27274087D01*
X70723538Y27274090D01*
X70875883Y27399117D01*
X71000910Y27551462D01*
X71093814Y27725273D01*
X71151024Y27913868D01*
X71170341Y28110000D01*
X71151024Y28306132D01*
X71093814Y28494727D01*
X71093811Y28494731D01*
X71093811Y28494734D01*
X71000913Y28668533D01*
X71000909Y28668540D01*
X70875887Y28820878D01*
X70875883Y28820883D01*
X70810832Y28874270D01*
X70771500Y28932013D01*
X70765500Y28970120D01*
X70765500Y31345940D01*
X70765501Y31345953D01*
X70765501Y31514056D01*
X70753199Y31559968D01*
X70724577Y31666784D01*
X70708157Y31695224D01*
X70645524Y31803710D01*
X70645518Y31803718D01*
X69722590Y32726645D01*
X69722588Y32726648D01*
X69603717Y32845519D01*
X69603716Y32845520D01*
X69516904Y32895640D01*
X69516904Y32895641D01*
X69516900Y32895642D01*
X69466785Y32924577D01*
X69314057Y32965501D01*
X69155943Y32965501D01*
X69148347Y32965501D01*
X69148331Y32965500D01*
X63800097Y32965500D01*
X63733058Y32985185D01*
X63712416Y33001819D01*
X63694045Y33020190D01*
X63660560Y33081513D01*
X63665544Y33151205D01*
X63707416Y33207138D01*
X63762329Y33230345D01*
X63804423Y33237012D01*
X63999031Y33300245D01*
X64181349Y33393141D01*
X64346894Y33513418D01*
X64346895Y33513418D01*
X64491582Y33658105D01*
X64491582Y33658106D01*
X64611859Y33823651D01*
X64704755Y34005969D01*
X64767990Y34200583D01*
X64800000Y34402683D01*
X64800000Y34655000D01*
X63815686Y34655000D01*
X63820080Y34659394D01*
X63872741Y34750606D01*
X63900000Y34852339D01*
X63900000Y34957661D01*
X63872741Y35059394D01*
X63820080Y35150606D01*
X63815686Y35155000D01*
X64800000Y35155000D01*
X64800000Y35407318D01*
X64775817Y35560000D01*
X66974551Y35560000D01*
X66994317Y35308849D01*
X67053126Y35063890D01*
X67149533Y34831141D01*
X67281160Y34616347D01*
X67281161Y34616344D01*
X67281164Y34616341D01*
X67444776Y34424776D01*
X67553096Y34332262D01*
X67636343Y34261162D01*
X67636346Y34261161D01*
X67851140Y34129534D01*
X67943487Y34091283D01*
X68083889Y34033127D01*
X68328852Y33974317D01*
X68580000Y33954551D01*
X68831148Y33974317D01*
X69076111Y34033127D01*
X69308859Y34129534D01*
X69523659Y34261164D01*
X69715224Y34424776D01*
X69878836Y34616341D01*
X70010466Y34831141D01*
X70106873Y35063889D01*
X70165683Y35308852D01*
X70185449Y35560000D01*
X70165683Y35811148D01*
X70106873Y36056111D01*
X70010466Y36288859D01*
X70010466Y36288860D01*
X69878839Y36503654D01*
X69878838Y36503657D01*
X69819205Y36573478D01*
X69715224Y36695224D01*
X69588571Y36803396D01*
X69523656Y36858839D01*
X69523653Y36858840D01*
X69308859Y36990467D01*
X69076110Y37086874D01*
X68831151Y37145683D01*
X68580000Y37165449D01*
X68328848Y37145683D01*
X68083889Y37086874D01*
X67851140Y36990467D01*
X67636346Y36858840D01*
X67636343Y36858839D01*
X67444776Y36695224D01*
X67281161Y36503657D01*
X67281160Y36503654D01*
X67149533Y36288860D01*
X67053126Y36056111D01*
X66994317Y35811152D01*
X66974551Y35560000D01*
X64775817Y35560000D01*
X64767990Y35609418D01*
X64704755Y35804032D01*
X64611859Y35986350D01*
X64491582Y36151895D01*
X64491582Y36151896D01*
X64346895Y36296583D01*
X64181349Y36416860D01*
X63999029Y36509756D01*
X63804413Y36572991D01*
X63750000Y36581610D01*
X63750000Y35220686D01*
X63745606Y35225080D01*
X63654394Y35277741D01*
X63552661Y35305000D01*
X63447339Y35305000D01*
X63345606Y35277741D01*
X63254394Y35225080D01*
X63250000Y35220686D01*
X63250000Y36581610D01*
X63195586Y36572991D01*
X63000970Y36509756D01*
X62818650Y36416860D01*
X62653105Y36296583D01*
X62653104Y36296583D01*
X62508417Y36151896D01*
X62508417Y36151895D01*
X62388140Y35986350D01*
X62340765Y35893371D01*
X62292790Y35842575D01*
X62224969Y35825780D01*
X62158834Y35848318D01*
X62119795Y35893371D01*
X62108990Y35914576D01*
X62072287Y35986610D01*
X62004436Y36080000D01*
X61951971Y36152214D01*
X61807217Y36296968D01*
X61807212Y36296972D01*
X61651615Y36410019D01*
X61608949Y36465348D01*
X61600500Y36510337D01*
X61600500Y37483308D01*
X61620185Y37550347D01*
X61653374Y37584881D01*
X61839139Y37714953D01*
X62000047Y37875861D01*
X62130568Y38062266D01*
X62226739Y38268504D01*
X62285635Y38488308D01*
X62305468Y38715000D01*
X62305468Y38715002D01*
X64694532Y38715002D01*
X64694532Y38714999D01*
X64714364Y38488314D01*
X64714366Y38488303D01*
X64773258Y38268512D01*
X64773261Y38268503D01*
X64869431Y38062268D01*
X64869432Y38062266D01*
X64999954Y37875859D01*
X65160858Y37714955D01*
X65160861Y37714953D01*
X65347266Y37584432D01*
X65553504Y37488261D01*
X65773308Y37429365D01*
X65935230Y37415199D01*
X65999998Y37409532D01*
X66000000Y37409532D01*
X66000002Y37409532D01*
X66056673Y37414491D01*
X66226692Y37429365D01*
X66446496Y37488261D01*
X66652734Y37584432D01*
X66839139Y37714953D01*
X67000047Y37875861D01*
X67130568Y38062266D01*
X67226739Y38268504D01*
X67285635Y38488308D01*
X67305468Y38715000D01*
X67285635Y38941692D01*
X67226739Y39161496D01*
X67130568Y39367734D01*
X67000047Y39554139D01*
X67000045Y39554142D01*
X66839141Y39715046D01*
X66652734Y39845568D01*
X66652732Y39845569D01*
X66446497Y39941739D01*
X66446488Y39941742D01*
X66226697Y40000634D01*
X66226693Y40000635D01*
X66226692Y40000635D01*
X66226691Y40000636D01*
X66226686Y40000636D01*
X66000002Y40020468D01*
X65999998Y40020468D01*
X65773313Y40000636D01*
X65773302Y40000634D01*
X65553511Y39941742D01*
X65553502Y39941739D01*
X65347267Y39845569D01*
X65347265Y39845568D01*
X65160858Y39715046D01*
X64999954Y39554142D01*
X64869432Y39367735D01*
X64869431Y39367733D01*
X64773261Y39161498D01*
X64773258Y39161489D01*
X64714366Y38941698D01*
X64714364Y38941687D01*
X64694532Y38715002D01*
X62305468Y38715002D01*
X62285635Y38941692D01*
X62226739Y39161496D01*
X62130568Y39367734D01*
X62000047Y39554139D01*
X62000045Y39554142D01*
X61839141Y39715046D01*
X61652734Y39845568D01*
X61652732Y39845569D01*
X61446497Y39941739D01*
X61446488Y39941742D01*
X61226697Y40000634D01*
X61226693Y40000635D01*
X61226692Y40000635D01*
X61226691Y40000636D01*
X61226686Y40000636D01*
X61000002Y40020468D01*
X60999998Y40020468D01*
X60773313Y40000636D01*
X60773302Y40000634D01*
X60553511Y39941742D01*
X60553502Y39941739D01*
X60347267Y39845569D01*
X60347265Y39845568D01*
X60160858Y39715046D01*
X59999954Y39554142D01*
X59869432Y39367735D01*
X59869431Y39367733D01*
X59773261Y39161498D01*
X59773258Y39161489D01*
X59714366Y38941698D01*
X59714364Y38941687D01*
X59694532Y38715002D01*
X59694532Y38714999D01*
X59714364Y38488314D01*
X59714366Y38488303D01*
X59773258Y38268512D01*
X59773261Y38268503D01*
X59869431Y38062268D01*
X59869432Y38062266D01*
X59999954Y37875859D01*
X60160858Y37714955D01*
X60160861Y37714953D01*
X60346624Y37584882D01*
X60390248Y37530307D01*
X60399500Y37483308D01*
X60399500Y36554984D01*
X60379815Y36487945D01*
X60331796Y36444500D01*
X60278388Y36417287D01*
X60112786Y36296972D01*
X59968028Y36152214D01*
X59847715Y35986614D01*
X59800485Y35893920D01*
X59752510Y35843124D01*
X59684689Y35826329D01*
X59618554Y35848866D01*
X59579515Y35893920D01*
X59578883Y35895160D01*
X59532287Y35986610D01*
X59464436Y36080000D01*
X59411971Y36152214D01*
X59267213Y36296972D01*
X59101613Y36417285D01*
X59101612Y36417286D01*
X59101610Y36417287D01*
X59044653Y36446309D01*
X58919223Y36510219D01*
X58724534Y36573478D01*
X58549995Y36601122D01*
X58522352Y36605500D01*
X58317648Y36605500D01*
X58293329Y36601649D01*
X58115465Y36573478D01*
X57920776Y36510219D01*
X57738386Y36417285D01*
X57572786Y36296972D01*
X57428028Y36152214D01*
X57307715Y35986614D01*
X57260485Y35893920D01*
X57212510Y35843124D01*
X57144689Y35826329D01*
X57078554Y35848866D01*
X57039515Y35893920D01*
X57038883Y35895160D01*
X56992287Y35986610D01*
X56924436Y36080000D01*
X56871971Y36152214D01*
X56727213Y36296972D01*
X56561613Y36417285D01*
X56561612Y36417286D01*
X56561610Y36417287D01*
X56504653Y36446309D01*
X56379223Y36510219D01*
X56184534Y36573478D01*
X56009995Y36601122D01*
X55982352Y36605500D01*
X55777648Y36605500D01*
X55753329Y36601649D01*
X55575465Y36573478D01*
X55380776Y36510219D01*
X55198386Y36417285D01*
X55032786Y36296972D01*
X54888028Y36152214D01*
X54767715Y35986614D01*
X54720485Y35893920D01*
X54672510Y35843124D01*
X54604689Y35826329D01*
X54538554Y35848866D01*
X54499515Y35893920D01*
X54498883Y35895160D01*
X54452287Y35986610D01*
X54384436Y36080000D01*
X54331971Y36152214D01*
X54187213Y36296972D01*
X54021613Y36417285D01*
X54021612Y36417286D01*
X54021610Y36417287D01*
X53964653Y36446309D01*
X53839223Y36510219D01*
X53644534Y36573478D01*
X53469995Y36601122D01*
X53442352Y36605500D01*
X53237648Y36605500D01*
X53213329Y36601649D01*
X53035465Y36573478D01*
X52840776Y36510219D01*
X52658386Y36417285D01*
X52492786Y36296972D01*
X52348028Y36152214D01*
X52227715Y35986614D01*
X52180485Y35893920D01*
X52132510Y35843124D01*
X52064689Y35826329D01*
X51998554Y35848866D01*
X51959515Y35893920D01*
X51958883Y35895160D01*
X51912287Y35986610D01*
X51844436Y36080000D01*
X51791971Y36152214D01*
X51647213Y36296972D01*
X51481613Y36417285D01*
X51481612Y36417286D01*
X51481610Y36417287D01*
X51424653Y36446309D01*
X51299223Y36510219D01*
X51104534Y36573478D01*
X50929995Y36601122D01*
X50902352Y36605500D01*
X50697648Y36605500D01*
X50673329Y36601649D01*
X50495465Y36573478D01*
X50300776Y36510219D01*
X50118386Y36417285D01*
X49952786Y36296972D01*
X49808028Y36152214D01*
X49687715Y35986614D01*
X49640485Y35893920D01*
X49592510Y35843124D01*
X49524689Y35826329D01*
X49458554Y35848866D01*
X49419515Y35893920D01*
X49418883Y35895160D01*
X49372287Y35986610D01*
X49304436Y36080000D01*
X49251971Y36152214D01*
X49107213Y36296972D01*
X48941613Y36417285D01*
X48941612Y36417286D01*
X48941610Y36417287D01*
X48884653Y36446309D01*
X48759223Y36510219D01*
X48564534Y36573478D01*
X48389995Y36601122D01*
X48362352Y36605500D01*
X48157648Y36605500D01*
X48133329Y36601649D01*
X47955465Y36573478D01*
X47760776Y36510219D01*
X47578386Y36417285D01*
X47412786Y36296972D01*
X47268028Y36152214D01*
X47147715Y35986614D01*
X47100485Y35893920D01*
X47052510Y35843124D01*
X46984689Y35826329D01*
X46918554Y35848866D01*
X46879515Y35893920D01*
X46878883Y35895160D01*
X46832287Y35986610D01*
X46764436Y36080000D01*
X46711971Y36152214D01*
X46567213Y36296972D01*
X46401613Y36417285D01*
X46401612Y36417286D01*
X46401610Y36417287D01*
X46344653Y36446309D01*
X46219223Y36510219D01*
X46024534Y36573478D01*
X45849995Y36601122D01*
X45822352Y36605500D01*
X45617648Y36605500D01*
X45593329Y36601649D01*
X45415465Y36573478D01*
X45220776Y36510219D01*
X45038386Y36417285D01*
X44872786Y36296972D01*
X44728028Y36152214D01*
X44607715Y35986614D01*
X44560485Y35893920D01*
X44512510Y35843124D01*
X44444689Y35826329D01*
X44378554Y35848866D01*
X44339515Y35893920D01*
X44338883Y35895160D01*
X44292287Y35986610D01*
X44224436Y36080000D01*
X44171971Y36152214D01*
X44027213Y36296972D01*
X43861613Y36417285D01*
X43861612Y36417286D01*
X43861610Y36417287D01*
X43804653Y36446309D01*
X43679223Y36510219D01*
X43484534Y36573478D01*
X43309995Y36601122D01*
X43282352Y36605500D01*
X43077648Y36605500D01*
X43053329Y36601649D01*
X42875465Y36573478D01*
X42680776Y36510219D01*
X42498386Y36417285D01*
X42332786Y36296972D01*
X42188028Y36152214D01*
X42067715Y35986614D01*
X42020485Y35893920D01*
X41972510Y35843124D01*
X41904689Y35826329D01*
X41838554Y35848866D01*
X41799515Y35893920D01*
X41798883Y35895160D01*
X41752287Y35986610D01*
X41684436Y36080000D01*
X41631971Y36152214D01*
X41487213Y36296972D01*
X41321613Y36417285D01*
X41321612Y36417286D01*
X41321610Y36417287D01*
X41264653Y36446309D01*
X41139223Y36510219D01*
X40944534Y36573478D01*
X40769995Y36601122D01*
X40742352Y36605500D01*
X40537648Y36605500D01*
X40513329Y36601649D01*
X40335465Y36573478D01*
X40140776Y36510219D01*
X39958386Y36417285D01*
X39792786Y36296972D01*
X39648028Y36152214D01*
X39527715Y35986614D01*
X39480485Y35893920D01*
X39432510Y35843124D01*
X39364689Y35826329D01*
X39298554Y35848866D01*
X39259515Y35893920D01*
X39258883Y35895160D01*
X39212287Y35986610D01*
X39144436Y36080000D01*
X39091971Y36152214D01*
X38947213Y36296972D01*
X38781613Y36417285D01*
X38781612Y36417286D01*
X38781610Y36417287D01*
X38724653Y36446309D01*
X38599223Y36510219D01*
X38404534Y36573478D01*
X38229995Y36601122D01*
X38202352Y36605500D01*
X37997648Y36605500D01*
X37973329Y36601649D01*
X37795465Y36573478D01*
X37600776Y36510219D01*
X37418386Y36417285D01*
X37252786Y36296972D01*
X37108028Y36152214D01*
X36987715Y35986614D01*
X36940485Y35893920D01*
X36892510Y35843124D01*
X36824689Y35826329D01*
X36758554Y35848866D01*
X36719515Y35893920D01*
X36718883Y35895160D01*
X36672287Y35986610D01*
X36604436Y36080000D01*
X36551971Y36152214D01*
X36407213Y36296972D01*
X36241613Y36417285D01*
X36241612Y36417286D01*
X36241610Y36417287D01*
X36184653Y36446309D01*
X36059223Y36510219D01*
X35864534Y36573478D01*
X35689995Y36601122D01*
X35662352Y36605500D01*
X35457648Y36605500D01*
X35433329Y36601649D01*
X35255465Y36573478D01*
X35060776Y36510219D01*
X34878386Y36417285D01*
X34712786Y36296972D01*
X34568028Y36152214D01*
X34447715Y35986614D01*
X34400485Y35893920D01*
X34352510Y35843124D01*
X34284689Y35826329D01*
X34218554Y35848866D01*
X34179515Y35893920D01*
X34178883Y35895160D01*
X34132287Y35986610D01*
X34064436Y36080000D01*
X34011971Y36152214D01*
X33867213Y36296972D01*
X33701613Y36417285D01*
X33701612Y36417286D01*
X33701610Y36417287D01*
X33644653Y36446309D01*
X33519223Y36510219D01*
X33324534Y36573478D01*
X33149995Y36601122D01*
X33122352Y36605500D01*
X32917648Y36605500D01*
X32893329Y36601649D01*
X32715465Y36573478D01*
X32520776Y36510219D01*
X32338386Y36417285D01*
X32172786Y36296972D01*
X32028028Y36152214D01*
X31907715Y35986614D01*
X31860485Y35893920D01*
X31812510Y35843124D01*
X31744689Y35826329D01*
X31678554Y35848866D01*
X31639515Y35893920D01*
X31638883Y35895160D01*
X31592287Y35986610D01*
X31524436Y36080000D01*
X31471971Y36152214D01*
X31327213Y36296972D01*
X31161613Y36417285D01*
X31161612Y36417286D01*
X31161610Y36417287D01*
X31104653Y36446309D01*
X30979223Y36510219D01*
X30784534Y36573478D01*
X30609995Y36601122D01*
X30582352Y36605500D01*
X30377648Y36605500D01*
X30353329Y36601649D01*
X30175465Y36573478D01*
X29980776Y36510219D01*
X29798386Y36417285D01*
X29632786Y36296972D01*
X29488028Y36152214D01*
X29367715Y35986614D01*
X29320485Y35893920D01*
X29272510Y35843124D01*
X29204689Y35826329D01*
X29138554Y35848866D01*
X29099515Y35893920D01*
X29098883Y35895160D01*
X29052287Y35986610D01*
X28984436Y36080000D01*
X28931971Y36152214D01*
X28787213Y36296972D01*
X28621613Y36417285D01*
X28621612Y36417286D01*
X28621610Y36417287D01*
X28564653Y36446309D01*
X28439223Y36510219D01*
X28244534Y36573478D01*
X28069995Y36601122D01*
X28042352Y36605500D01*
X27837648Y36605500D01*
X27813329Y36601649D01*
X27635465Y36573478D01*
X27440776Y36510219D01*
X27258386Y36417285D01*
X27092786Y36296972D01*
X26948028Y36152214D01*
X26827715Y35986614D01*
X26780485Y35893920D01*
X26732510Y35843124D01*
X26664689Y35826329D01*
X26598554Y35848866D01*
X26559515Y35893920D01*
X26558883Y35895160D01*
X26512287Y35986610D01*
X26444436Y36080000D01*
X26391971Y36152214D01*
X26247213Y36296972D01*
X26081613Y36417285D01*
X26081612Y36417286D01*
X26081610Y36417287D01*
X26024653Y36446309D01*
X25899223Y36510219D01*
X25704534Y36573478D01*
X25529995Y36601122D01*
X25502352Y36605500D01*
X25297648Y36605500D01*
X25273329Y36601649D01*
X25095465Y36573478D01*
X24900776Y36510219D01*
X24718386Y36417285D01*
X24552786Y36296972D01*
X24408028Y36152214D01*
X24287715Y35986614D01*
X24240485Y35893920D01*
X24192510Y35843124D01*
X24124689Y35826329D01*
X24058554Y35848866D01*
X24019515Y35893920D01*
X24018883Y35895160D01*
X23972287Y35986610D01*
X23904436Y36080000D01*
X23851971Y36152214D01*
X23707213Y36296972D01*
X23541613Y36417285D01*
X23541612Y36417286D01*
X23541610Y36417287D01*
X23484653Y36446309D01*
X23359223Y36510219D01*
X23164534Y36573478D01*
X22989995Y36601122D01*
X22962352Y36605500D01*
X22757648Y36605500D01*
X22733329Y36601649D01*
X22555465Y36573478D01*
X22360776Y36510219D01*
X22178386Y36417285D01*
X22012786Y36296972D01*
X21868028Y36152214D01*
X21747715Y35986614D01*
X21700485Y35893920D01*
X21652510Y35843124D01*
X21584689Y35826329D01*
X21518554Y35848866D01*
X21479515Y35893920D01*
X21478883Y35895160D01*
X21432287Y35986610D01*
X21364436Y36080000D01*
X21311971Y36152214D01*
X21167213Y36296972D01*
X21001613Y36417285D01*
X21001612Y36417286D01*
X21001610Y36417287D01*
X20944653Y36446309D01*
X20819223Y36510219D01*
X20624534Y36573478D01*
X20449995Y36601122D01*
X20422352Y36605500D01*
X20217648Y36605500D01*
X20193329Y36601649D01*
X20015465Y36573478D01*
X19820776Y36510219D01*
X19638386Y36417285D01*
X19472786Y36296972D01*
X19328028Y36152214D01*
X19207715Y35986614D01*
X19160485Y35893920D01*
X19112510Y35843124D01*
X19044689Y35826329D01*
X18978554Y35848866D01*
X18939515Y35893920D01*
X18938883Y35895160D01*
X18892287Y35986610D01*
X18824436Y36080000D01*
X18771971Y36152214D01*
X18627213Y36296972D01*
X18461613Y36417285D01*
X18461612Y36417286D01*
X18461610Y36417287D01*
X18404653Y36446309D01*
X18279223Y36510219D01*
X18084534Y36573478D01*
X17909995Y36601122D01*
X17882352Y36605500D01*
X17677648Y36605500D01*
X17653329Y36601649D01*
X17475465Y36573478D01*
X17280776Y36510219D01*
X17098386Y36417285D01*
X16932786Y36296972D01*
X16788028Y36152214D01*
X16667715Y35986614D01*
X16620485Y35893920D01*
X16572510Y35843124D01*
X16504689Y35826329D01*
X16438554Y35848866D01*
X16399515Y35893920D01*
X16398883Y35895160D01*
X16352287Y35986610D01*
X16284436Y36080000D01*
X16231971Y36152214D01*
X16087213Y36296972D01*
X15921613Y36417285D01*
X15921612Y36417286D01*
X15921610Y36417287D01*
X15864653Y36446309D01*
X15739223Y36510219D01*
X15544534Y36573478D01*
X15369995Y36601122D01*
X15342352Y36605500D01*
X15137648Y36605500D01*
X15113329Y36601649D01*
X14935465Y36573478D01*
X14740776Y36510219D01*
X14558386Y36417285D01*
X14392786Y36296972D01*
X14248028Y36152214D01*
X14127713Y35986612D01*
X14080203Y35893370D01*
X14032228Y35842574D01*
X13964407Y35825780D01*
X13898272Y35848318D01*
X13859234Y35893372D01*
X13811861Y35986348D01*
X13691582Y36151895D01*
X13691582Y36151896D01*
X13546895Y36296583D01*
X13381349Y36416860D01*
X13199029Y36509756D01*
X13004413Y36572991D01*
X12950000Y36581610D01*
X12950000Y35220686D01*
X12945606Y35225080D01*
X12854394Y35277741D01*
X12752661Y35305000D01*
X12647339Y35305000D01*
X12545606Y35277741D01*
X12454394Y35225080D01*
X12450000Y35220686D01*
X12450000Y36581610D01*
X12395586Y36572991D01*
X12200970Y36509756D01*
X12018650Y36416860D01*
X11853105Y36296583D01*
X11853104Y36296583D01*
X11708417Y36151896D01*
X11708417Y36151895D01*
X11588140Y35986350D01*
X11495244Y35804032D01*
X11432009Y35609418D01*
X11400000Y35407318D01*
X11400000Y35155000D01*
X12384314Y35155000D01*
X12379920Y35150606D01*
X12327259Y35059394D01*
X12300000Y34957661D01*
X12300000Y34852339D01*
X12327259Y34750606D01*
X12379920Y34659394D01*
X12384314Y34655000D01*
X11400000Y34655000D01*
X11400000Y34402683D01*
X11432009Y34200583D01*
X11495244Y34005969D01*
X11588140Y33823651D01*
X11708417Y33658106D01*
X11708417Y33658105D01*
X11853104Y33513418D01*
X12018650Y33393141D01*
X12200968Y33300246D01*
X12395578Y33237012D01*
X12450000Y33228393D01*
X12450000Y34589314D01*
X12454394Y34584920D01*
X12545606Y34532259D01*
X12647339Y34505000D01*
X12752661Y34505000D01*
X12854394Y34532259D01*
X12945606Y34584920D01*
X12950000Y34589314D01*
X12950000Y33228394D01*
X13004421Y33237012D01*
X13199031Y33300246D01*
X13381349Y33393141D01*
X13546894Y33513418D01*
X13546895Y33513418D01*
X13691582Y33658105D01*
X13691582Y33658106D01*
X13811861Y33823653D01*
X13859234Y33916629D01*
X13907208Y33967425D01*
X13975028Y33984221D01*
X14041164Y33961684D01*
X14080203Y33916631D01*
X14127713Y33823389D01*
X14248028Y33657787D01*
X14392786Y33513029D01*
X14547749Y33400444D01*
X14558390Y33392713D01*
X14657060Y33342438D01*
X14740776Y33299782D01*
X14740778Y33299782D01*
X14740781Y33299780D01*
X14815818Y33275399D01*
X14935465Y33236523D01*
X14994252Y33227212D01*
X15137648Y33204500D01*
X15137649Y33204500D01*
X15342351Y33204500D01*
X15342352Y33204500D01*
X15544534Y33236523D01*
X15739219Y33299780D01*
X15921610Y33392713D01*
X16014590Y33460268D01*
X16087213Y33513029D01*
X16087215Y33513032D01*
X16087219Y33513034D01*
X16231966Y33657781D01*
X16231968Y33657785D01*
X16231971Y33657787D01*
X16352284Y33823386D01*
X16352286Y33823389D01*
X16352287Y33823390D01*
X16399516Y33916083D01*
X16447489Y33966877D01*
X16515310Y33983672D01*
X16581445Y33961135D01*
X16620485Y33916081D01*
X16667715Y33823386D01*
X16788028Y33657787D01*
X16788034Y33657781D01*
X16932781Y33513034D01*
X17098390Y33392713D01*
X17111793Y33385884D01*
X17162589Y33337912D01*
X17179500Y33275399D01*
X17179500Y33030097D01*
X17159815Y32963058D01*
X17143181Y32942416D01*
X15662584Y31461819D01*
X15601261Y31428334D01*
X15574903Y31425500D01*
X10421116Y31425500D01*
X10354077Y31445185D01*
X10308322Y31497989D01*
X10307560Y31499689D01*
X10289172Y31541609D01*
X10153166Y31749783D01*
X10129518Y31775471D01*
X9984744Y31932738D01*
X9788509Y32085474D01*
X9788507Y32085475D01*
X9788506Y32085476D01*
X9569811Y32203828D01*
X9569802Y32203831D01*
X9334616Y32284571D01*
X9089335Y32325500D01*
X8840665Y32325500D01*
X8595383Y32284571D01*
X8360197Y32203831D01*
X8360188Y32203828D01*
X8141493Y32085476D01*
X7945257Y31932739D01*
X7776833Y31749783D01*
X7640827Y31541609D01*
X7622440Y31499689D01*
X7577483Y31446204D01*
X7510747Y31425514D01*
X7508884Y31425500D01*
X3921116Y31425500D01*
X3854077Y31445185D01*
X3808322Y31497989D01*
X3807560Y31499689D01*
X3789172Y31541609D01*
X3653166Y31749783D01*
X3629518Y31775471D01*
X3484744Y31932738D01*
X3288509Y32085474D01*
X3288507Y32085475D01*
X3288506Y32085476D01*
X3069811Y32203828D01*
X3069802Y32203831D01*
X2834616Y32284571D01*
X2589335Y32325500D01*
X2340665Y32325500D01*
X2095383Y32284571D01*
X1860197Y32203831D01*
X1860188Y32203828D01*
X1641493Y32085476D01*
X1445257Y31932739D01*
X1276833Y31749783D01*
X1140826Y31541607D01*
X1040936Y31313882D01*
X979892Y31072825D01*
X979890Y31072813D01*
X959357Y30825006D01*
X500000Y30825006D01*
X500000Y34580006D01*
X959859Y34580006D01*
X959859Y34579995D01*
X980385Y34332271D01*
X980387Y34332262D01*
X1041412Y34091283D01*
X1141267Y33863633D01*
X1241562Y33710119D01*
X1941212Y34409767D01*
X1952482Y34367708D01*
X2024890Y34242292D01*
X2127292Y34139890D01*
X2252708Y34067482D01*
X2294766Y34056213D01*
X1594943Y33356391D01*
X1641768Y33319945D01*
X1641771Y33319943D01*
X1860385Y33201636D01*
X1860396Y33201631D01*
X2095506Y33120917D01*
X2340707Y33080000D01*
X2589293Y33080000D01*
X2834493Y33120917D01*
X3069603Y33201631D01*
X3069614Y33201636D01*
X3288230Y33319944D01*
X3288236Y33319949D01*
X3335055Y33356390D01*
X3335056Y33356391D01*
X2635233Y34056213D01*
X2677292Y34067482D01*
X2802708Y34139890D01*
X2905110Y34242292D01*
X2977518Y34367708D01*
X2988787Y34409767D01*
X3688435Y33710118D01*
X3788733Y33863636D01*
X3888587Y34091283D01*
X3949612Y34332262D01*
X3949614Y34332271D01*
X3970141Y34579995D01*
X3970141Y34580006D01*
X7459859Y34580006D01*
X7459859Y34579995D01*
X7480385Y34332271D01*
X7480387Y34332262D01*
X7541412Y34091283D01*
X7641267Y33863633D01*
X7741562Y33710119D01*
X8441212Y34409767D01*
X8452482Y34367708D01*
X8524890Y34242292D01*
X8627292Y34139890D01*
X8752708Y34067482D01*
X8794766Y34056213D01*
X8094943Y33356391D01*
X8141768Y33319945D01*
X8141771Y33319943D01*
X8360385Y33201636D01*
X8360396Y33201631D01*
X8595506Y33120917D01*
X8840707Y33080000D01*
X9089293Y33080000D01*
X9334493Y33120917D01*
X9569603Y33201631D01*
X9569614Y33201636D01*
X9788230Y33319944D01*
X9788236Y33319949D01*
X9835055Y33356390D01*
X9835056Y33356391D01*
X9135233Y34056213D01*
X9177292Y34067482D01*
X9302708Y34139890D01*
X9405110Y34242292D01*
X9477518Y34367708D01*
X9488787Y34409766D01*
X10188435Y33710118D01*
X10288733Y33863636D01*
X10388587Y34091283D01*
X10449612Y34332262D01*
X10449614Y34332271D01*
X10470141Y34579995D01*
X10470141Y34580006D01*
X10449614Y34827730D01*
X10449612Y34827739D01*
X10388587Y35068718D01*
X10288732Y35296368D01*
X10188435Y35449884D01*
X9488787Y34750235D01*
X9477518Y34792292D01*
X9405110Y34917708D01*
X9302708Y35020110D01*
X9177292Y35092518D01*
X9135233Y35103788D01*
X9835055Y35803611D01*
X9835055Y35803612D01*
X9788236Y35840053D01*
X9788231Y35840056D01*
X9569614Y35958365D01*
X9569603Y35958370D01*
X9334493Y36039084D01*
X9089293Y36080000D01*
X8840707Y36080000D01*
X8595506Y36039084D01*
X8360396Y35958370D01*
X8360385Y35958365D01*
X8141770Y35840057D01*
X8094943Y35803611D01*
X8794766Y35103788D01*
X8752708Y35092518D01*
X8627292Y35020110D01*
X8524890Y34917708D01*
X8452482Y34792292D01*
X8441212Y34750234D01*
X7741563Y35449883D01*
X7641267Y35296367D01*
X7641265Y35296363D01*
X7541412Y35068718D01*
X7480387Y34827739D01*
X7480385Y34827730D01*
X7459859Y34580006D01*
X3970141Y34580006D01*
X3949614Y34827730D01*
X3949612Y34827739D01*
X3888587Y35068718D01*
X3788732Y35296368D01*
X3688435Y35449884D01*
X2988787Y34750235D01*
X2977518Y34792292D01*
X2905110Y34917708D01*
X2802708Y35020110D01*
X2677292Y35092518D01*
X2635233Y35103788D01*
X3335055Y35803611D01*
X3335055Y35803612D01*
X3288236Y35840053D01*
X3288231Y35840056D01*
X3069614Y35958365D01*
X3069603Y35958370D01*
X2834493Y36039084D01*
X2589293Y36080000D01*
X2340707Y36080000D01*
X2095506Y36039084D01*
X1860396Y35958370D01*
X1860385Y35958365D01*
X1641770Y35840057D01*
X1594943Y35803611D01*
X2294766Y35103788D01*
X2252708Y35092518D01*
X2127292Y35020110D01*
X2024890Y34917708D01*
X1952482Y34792292D01*
X1941212Y34750234D01*
X1241563Y35449883D01*
X1141267Y35296367D01*
X1141265Y35296363D01*
X1041412Y35068718D01*
X980387Y34827739D01*
X980385Y34827730D01*
X959859Y34580006D01*
X500000Y34580006D01*
X500000Y39080006D01*
X959357Y39080006D01*
X959357Y39079995D01*
X979890Y38832188D01*
X979892Y38832176D01*
X1040936Y38591119D01*
X1140826Y38363394D01*
X1276833Y38155218D01*
X1276836Y38155215D01*
X1445256Y37972262D01*
X1641491Y37819526D01*
X1860190Y37701172D01*
X2095386Y37620429D01*
X2340665Y37579500D01*
X2589335Y37579500D01*
X2834614Y37620429D01*
X3069810Y37701172D01*
X3288509Y37819526D01*
X3484744Y37972262D01*
X3653164Y38155215D01*
X3789173Y38363393D01*
X3807560Y38405311D01*
X3852517Y38458796D01*
X3919253Y38479486D01*
X3921116Y38479500D01*
X7508884Y38479500D01*
X7575923Y38459815D01*
X7621678Y38407011D01*
X7622440Y38405311D01*
X7640827Y38363392D01*
X7776833Y38155218D01*
X7776836Y38155215D01*
X7945256Y37972262D01*
X8141491Y37819526D01*
X8360190Y37701172D01*
X8595386Y37620429D01*
X8840665Y37579500D01*
X9089335Y37579500D01*
X9334614Y37620429D01*
X9569810Y37701172D01*
X9788509Y37819526D01*
X9984744Y37972262D01*
X10153164Y38155215D01*
X10289173Y38363393D01*
X10389063Y38591119D01*
X10450108Y38832179D01*
X10459182Y38941687D01*
X10470643Y39079995D01*
X10470643Y39080006D01*
X10450109Y39327813D01*
X10450107Y39327825D01*
X10389063Y39568882D01*
X10289173Y39796607D01*
X10153166Y40004783D01*
X10035068Y40133071D01*
X9984744Y40187738D01*
X9788509Y40340474D01*
X9788507Y40340475D01*
X9788506Y40340476D01*
X9569811Y40458828D01*
X9569802Y40458831D01*
X9334616Y40539571D01*
X9089335Y40580500D01*
X8840665Y40580500D01*
X8595383Y40539571D01*
X8360197Y40458831D01*
X8360188Y40458828D01*
X8141493Y40340476D01*
X7945257Y40187739D01*
X7776833Y40004783D01*
X7640827Y39796609D01*
X7622440Y39754689D01*
X7577483Y39701204D01*
X7510747Y39680514D01*
X7508884Y39680500D01*
X3921116Y39680500D01*
X3854077Y39700185D01*
X3808322Y39752989D01*
X3807560Y39754689D01*
X3789172Y39796609D01*
X3653166Y40004783D01*
X3535068Y40133071D01*
X3484744Y40187738D01*
X3288509Y40340474D01*
X3288507Y40340475D01*
X3288506Y40340476D01*
X3069811Y40458828D01*
X3069802Y40458831D01*
X2834616Y40539571D01*
X2589335Y40580500D01*
X2340665Y40580500D01*
X2095383Y40539571D01*
X1860197Y40458831D01*
X1860188Y40458828D01*
X1641493Y40340476D01*
X1445257Y40187739D01*
X1276833Y40004783D01*
X1140826Y39796607D01*
X1040936Y39568882D01*
X979892Y39327825D01*
X979890Y39327813D01*
X959357Y39080006D01*
X500000Y39080006D01*
X500000Y41736611D01*
X19219500Y41736611D01*
X19219500Y40763389D01*
X19246598Y40592299D01*
X19300127Y40427555D01*
X19378768Y40273212D01*
X19480586Y40133072D01*
X19603072Y40010586D01*
X19743212Y39908768D01*
X19897555Y39830127D01*
X20062299Y39776598D01*
X20233389Y39749500D01*
X20233390Y39749500D01*
X20406610Y39749500D01*
X20406611Y39749500D01*
X20577701Y39776598D01*
X20742445Y39830127D01*
X20896788Y39908768D01*
X21036928Y40010586D01*
X21159414Y40133072D01*
X21261232Y40273212D01*
X21339873Y40427555D01*
X21393402Y40592299D01*
X21420500Y40763389D01*
X21420500Y41736611D01*
X21759500Y41736611D01*
X21759500Y40763389D01*
X21786598Y40592299D01*
X21840127Y40427555D01*
X21918768Y40273212D01*
X22020586Y40133072D01*
X22143072Y40010586D01*
X22283212Y39908768D01*
X22437555Y39830127D01*
X22602299Y39776598D01*
X22773389Y39749500D01*
X22773390Y39749500D01*
X22946610Y39749500D01*
X22946611Y39749500D01*
X23117701Y39776598D01*
X23282445Y39830127D01*
X23436788Y39908768D01*
X23576928Y40010586D01*
X23699414Y40133072D01*
X23801232Y40273212D01*
X23879873Y40427555D01*
X23933402Y40592299D01*
X23960500Y40763389D01*
X23960500Y41736611D01*
X24299500Y41736611D01*
X24299500Y40763389D01*
X24326598Y40592299D01*
X24380127Y40427555D01*
X24458768Y40273212D01*
X24560586Y40133072D01*
X24683072Y40010586D01*
X24823212Y39908768D01*
X24977555Y39830127D01*
X25142299Y39776598D01*
X25313389Y39749500D01*
X25313390Y39749500D01*
X25486610Y39749500D01*
X25486611Y39749500D01*
X25657701Y39776598D01*
X25822445Y39830127D01*
X25976788Y39908768D01*
X26116928Y40010586D01*
X26239414Y40133072D01*
X26341232Y40273212D01*
X26419873Y40427555D01*
X26473402Y40592299D01*
X26500500Y40763389D01*
X26500500Y41736611D01*
X26839500Y41736611D01*
X26839500Y40763389D01*
X26866598Y40592299D01*
X26920127Y40427555D01*
X26998768Y40273212D01*
X27100586Y40133072D01*
X27223072Y40010586D01*
X27363212Y39908768D01*
X27517555Y39830127D01*
X27682299Y39776598D01*
X27853389Y39749500D01*
X27853390Y39749500D01*
X28026610Y39749500D01*
X28026611Y39749500D01*
X28197701Y39776598D01*
X28362445Y39830127D01*
X28516788Y39908768D01*
X28656928Y40010586D01*
X28779414Y40133072D01*
X28881232Y40273212D01*
X28959873Y40427555D01*
X29013402Y40592299D01*
X29040500Y40763389D01*
X29040500Y41736611D01*
X29379500Y41736611D01*
X29379500Y40763389D01*
X29406598Y40592299D01*
X29460127Y40427555D01*
X29538768Y40273212D01*
X29640586Y40133072D01*
X29763072Y40010586D01*
X29903212Y39908768D01*
X30057555Y39830127D01*
X30222299Y39776598D01*
X30393389Y39749500D01*
X30393390Y39749500D01*
X30566610Y39749500D01*
X30566611Y39749500D01*
X30737701Y39776598D01*
X30902445Y39830127D01*
X31056788Y39908768D01*
X31196928Y40010586D01*
X31319414Y40133072D01*
X31421232Y40273212D01*
X31499873Y40427555D01*
X31553402Y40592299D01*
X31580500Y40763389D01*
X31580500Y41736611D01*
X31919500Y41736611D01*
X31919500Y40763389D01*
X31946598Y40592299D01*
X32000127Y40427555D01*
X32078768Y40273212D01*
X32180586Y40133072D01*
X32303072Y40010586D01*
X32443212Y39908768D01*
X32597555Y39830127D01*
X32762299Y39776598D01*
X32933389Y39749500D01*
X32933390Y39749500D01*
X33106610Y39749500D01*
X33106611Y39749500D01*
X33277701Y39776598D01*
X33442445Y39830127D01*
X33596788Y39908768D01*
X33736928Y40010586D01*
X33859414Y40133072D01*
X33961232Y40273212D01*
X34039873Y40427555D01*
X34093402Y40592299D01*
X34120500Y40763389D01*
X34120500Y41736611D01*
X34459500Y41736611D01*
X34459500Y40763389D01*
X34486598Y40592299D01*
X34540127Y40427555D01*
X34618768Y40273212D01*
X34720586Y40133072D01*
X34843072Y40010586D01*
X34983212Y39908768D01*
X35137555Y39830127D01*
X35302299Y39776598D01*
X35473389Y39749500D01*
X35473390Y39749500D01*
X35646610Y39749500D01*
X35646611Y39749500D01*
X35817701Y39776598D01*
X35982445Y39830127D01*
X36136788Y39908768D01*
X36276928Y40010586D01*
X36399414Y40133072D01*
X36501232Y40273212D01*
X36579873Y40427555D01*
X36633402Y40592299D01*
X36660500Y40763389D01*
X36660500Y41736611D01*
X36999500Y41736611D01*
X36999500Y40763389D01*
X37026598Y40592299D01*
X37080127Y40427555D01*
X37158768Y40273212D01*
X37260586Y40133072D01*
X37383072Y40010586D01*
X37523212Y39908768D01*
X37677555Y39830127D01*
X37842299Y39776598D01*
X38013389Y39749500D01*
X38013390Y39749500D01*
X38186610Y39749500D01*
X38186611Y39749500D01*
X38357701Y39776598D01*
X38522445Y39830127D01*
X38676788Y39908768D01*
X38816928Y40010586D01*
X38939414Y40133072D01*
X39041232Y40273212D01*
X39119873Y40427555D01*
X39173402Y40592299D01*
X39200500Y40763389D01*
X39200500Y41736611D01*
X39539500Y41736611D01*
X39539500Y40763389D01*
X39566598Y40592299D01*
X39620127Y40427555D01*
X39698768Y40273212D01*
X39800586Y40133072D01*
X39923072Y40010586D01*
X40063212Y39908768D01*
X40217555Y39830127D01*
X40382299Y39776598D01*
X40553389Y39749500D01*
X40553390Y39749500D01*
X40726610Y39749500D01*
X40726611Y39749500D01*
X40897701Y39776598D01*
X41062445Y39830127D01*
X41216788Y39908768D01*
X41356928Y40010586D01*
X41479414Y40133072D01*
X41581232Y40273212D01*
X41659873Y40427555D01*
X41713402Y40592299D01*
X41740500Y40763389D01*
X41740500Y41736611D01*
X42079500Y41736611D01*
X42079500Y40763389D01*
X42106598Y40592299D01*
X42160127Y40427555D01*
X42238768Y40273212D01*
X42340586Y40133072D01*
X42463072Y40010586D01*
X42603212Y39908768D01*
X42757555Y39830127D01*
X42922299Y39776598D01*
X43093389Y39749500D01*
X43093390Y39749500D01*
X43266610Y39749500D01*
X43266611Y39749500D01*
X43437701Y39776598D01*
X43602445Y39830127D01*
X43756788Y39908768D01*
X43896928Y40010586D01*
X44019414Y40133072D01*
X44121232Y40273212D01*
X44199873Y40427555D01*
X44253402Y40592299D01*
X44280500Y40763389D01*
X44280500Y41736611D01*
X44619500Y41736611D01*
X44619500Y40763389D01*
X44646598Y40592299D01*
X44700127Y40427555D01*
X44778768Y40273212D01*
X44880586Y40133072D01*
X45003072Y40010586D01*
X45143212Y39908768D01*
X45297555Y39830127D01*
X45462299Y39776598D01*
X45633389Y39749500D01*
X45633390Y39749500D01*
X45806610Y39749500D01*
X45806611Y39749500D01*
X45977701Y39776598D01*
X46142445Y39830127D01*
X46296788Y39908768D01*
X46436928Y40010586D01*
X46559414Y40133072D01*
X46661232Y40273212D01*
X46739873Y40427555D01*
X46793402Y40592299D01*
X46820500Y40763389D01*
X46820500Y41736611D01*
X47159500Y41736611D01*
X47159500Y40763389D01*
X47186598Y40592299D01*
X47240127Y40427555D01*
X47318768Y40273212D01*
X47420586Y40133072D01*
X47543072Y40010586D01*
X47683212Y39908768D01*
X47837555Y39830127D01*
X48002299Y39776598D01*
X48173389Y39749500D01*
X48173390Y39749500D01*
X48346610Y39749500D01*
X48346611Y39749500D01*
X48517701Y39776598D01*
X48682445Y39830127D01*
X48836788Y39908768D01*
X48976928Y40010586D01*
X49099414Y40133072D01*
X49201232Y40273212D01*
X49279873Y40427555D01*
X49333402Y40592299D01*
X49360500Y40763389D01*
X49360500Y41736611D01*
X49699500Y41736611D01*
X49699500Y40763389D01*
X49726598Y40592299D01*
X49780127Y40427555D01*
X49858768Y40273212D01*
X49960586Y40133072D01*
X50083072Y40010586D01*
X50223212Y39908768D01*
X50377555Y39830127D01*
X50542299Y39776598D01*
X50713389Y39749500D01*
X50713390Y39749500D01*
X50886610Y39749500D01*
X50886611Y39749500D01*
X51057701Y39776598D01*
X51222445Y39830127D01*
X51376788Y39908768D01*
X51516928Y40010586D01*
X51639414Y40133072D01*
X51741232Y40273212D01*
X51819873Y40427555D01*
X51873402Y40592299D01*
X51900500Y40763389D01*
X51900500Y41736611D01*
X52239500Y41736611D01*
X52239500Y40763389D01*
X52266598Y40592299D01*
X52320127Y40427555D01*
X52398768Y40273212D01*
X52500586Y40133072D01*
X52623072Y40010586D01*
X52763212Y39908768D01*
X52917555Y39830127D01*
X53082299Y39776598D01*
X53253389Y39749500D01*
X53253390Y39749500D01*
X53426610Y39749500D01*
X53426611Y39749500D01*
X53597701Y39776598D01*
X53762445Y39830127D01*
X53916788Y39908768D01*
X54056928Y40010586D01*
X54179414Y40133072D01*
X54281232Y40273212D01*
X54359873Y40427555D01*
X54413402Y40592299D01*
X54440500Y40763389D01*
X54440500Y41736611D01*
X54779500Y41736611D01*
X54779500Y40763389D01*
X54806598Y40592299D01*
X54860127Y40427555D01*
X54938768Y40273212D01*
X55040586Y40133072D01*
X55163072Y40010586D01*
X55303212Y39908768D01*
X55457555Y39830127D01*
X55622299Y39776598D01*
X55793389Y39749500D01*
X55793390Y39749500D01*
X55966610Y39749500D01*
X55966611Y39749500D01*
X56137701Y39776598D01*
X56302445Y39830127D01*
X56456788Y39908768D01*
X56596928Y40010586D01*
X56719414Y40133072D01*
X56821232Y40273212D01*
X56899873Y40427555D01*
X56953402Y40592299D01*
X56980500Y40763389D01*
X56980500Y41736611D01*
X57319500Y41736611D01*
X57319500Y40763389D01*
X57346598Y40592299D01*
X57400127Y40427555D01*
X57478768Y40273212D01*
X57580586Y40133072D01*
X57703072Y40010586D01*
X57843212Y39908768D01*
X57997555Y39830127D01*
X58162299Y39776598D01*
X58333389Y39749500D01*
X58333390Y39749500D01*
X58506610Y39749500D01*
X58506611Y39749500D01*
X58677701Y39776598D01*
X58842445Y39830127D01*
X58996788Y39908768D01*
X59136928Y40010586D01*
X59259414Y40133072D01*
X59361232Y40273212D01*
X59439873Y40427555D01*
X59493402Y40592299D01*
X59520500Y40763389D01*
X59520500Y41736611D01*
X59493402Y41907701D01*
X59439873Y42072445D01*
X59361232Y42226788D01*
X59259414Y42366928D01*
X59136928Y42489414D01*
X58996788Y42591232D01*
X58842445Y42669873D01*
X58677701Y42723402D01*
X58677699Y42723403D01*
X58677698Y42723403D01*
X58546223Y42744226D01*
X58506611Y42750500D01*
X58333389Y42750500D01*
X58293777Y42744226D01*
X58162302Y42723403D01*
X57997552Y42669872D01*
X57843211Y42591232D01*
X57763256Y42533141D01*
X57703072Y42489414D01*
X57703070Y42489412D01*
X57703069Y42489412D01*
X57580588Y42366931D01*
X57580588Y42366930D01*
X57580586Y42366928D01*
X57536859Y42306744D01*
X57478768Y42226789D01*
X57400128Y42072448D01*
X57346597Y41907698D01*
X57319500Y41736611D01*
X56980500Y41736611D01*
X56953402Y41907701D01*
X56899873Y42072445D01*
X56821232Y42226788D01*
X56719414Y42366928D01*
X56596928Y42489414D01*
X56456788Y42591232D01*
X56302445Y42669873D01*
X56137701Y42723402D01*
X56137699Y42723403D01*
X56137698Y42723403D01*
X56006223Y42744226D01*
X55966611Y42750500D01*
X55793389Y42750500D01*
X55753777Y42744226D01*
X55622302Y42723403D01*
X55457552Y42669872D01*
X55303211Y42591232D01*
X55223256Y42533141D01*
X55163072Y42489414D01*
X55163070Y42489412D01*
X55163069Y42489412D01*
X55040588Y42366931D01*
X55040588Y42366930D01*
X55040586Y42366928D01*
X54996859Y42306744D01*
X54938768Y42226789D01*
X54860128Y42072448D01*
X54806597Y41907698D01*
X54779500Y41736611D01*
X54440500Y41736611D01*
X54413402Y41907701D01*
X54359873Y42072445D01*
X54281232Y42226788D01*
X54179414Y42366928D01*
X54056928Y42489414D01*
X53916788Y42591232D01*
X53762445Y42669873D01*
X53597701Y42723402D01*
X53597699Y42723403D01*
X53597698Y42723403D01*
X53466223Y42744226D01*
X53426611Y42750500D01*
X53253389Y42750500D01*
X53213777Y42744226D01*
X53082302Y42723403D01*
X52917552Y42669872D01*
X52763211Y42591232D01*
X52683256Y42533141D01*
X52623072Y42489414D01*
X52623070Y42489412D01*
X52623069Y42489412D01*
X52500588Y42366931D01*
X52500588Y42366930D01*
X52500586Y42366928D01*
X52456859Y42306744D01*
X52398768Y42226789D01*
X52320128Y42072448D01*
X52266597Y41907698D01*
X52239500Y41736611D01*
X51900500Y41736611D01*
X51873402Y41907701D01*
X51819873Y42072445D01*
X51741232Y42226788D01*
X51639414Y42366928D01*
X51516928Y42489414D01*
X51376788Y42591232D01*
X51222445Y42669873D01*
X51057701Y42723402D01*
X51057699Y42723403D01*
X51057698Y42723403D01*
X50926223Y42744226D01*
X50886611Y42750500D01*
X50713389Y42750500D01*
X50673777Y42744226D01*
X50542302Y42723403D01*
X50377552Y42669872D01*
X50223211Y42591232D01*
X50143256Y42533141D01*
X50083072Y42489414D01*
X50083070Y42489412D01*
X50083069Y42489412D01*
X49960588Y42366931D01*
X49960588Y42366930D01*
X49960586Y42366928D01*
X49916859Y42306744D01*
X49858768Y42226789D01*
X49780128Y42072448D01*
X49726597Y41907698D01*
X49699500Y41736611D01*
X49360500Y41736611D01*
X49333402Y41907701D01*
X49279873Y42072445D01*
X49201232Y42226788D01*
X49099414Y42366928D01*
X48976928Y42489414D01*
X48836788Y42591232D01*
X48682445Y42669873D01*
X48517701Y42723402D01*
X48517699Y42723403D01*
X48517698Y42723403D01*
X48386223Y42744226D01*
X48346611Y42750500D01*
X48173389Y42750500D01*
X48133777Y42744226D01*
X48002302Y42723403D01*
X47837552Y42669872D01*
X47683211Y42591232D01*
X47603256Y42533141D01*
X47543072Y42489414D01*
X47543070Y42489412D01*
X47543069Y42489412D01*
X47420588Y42366931D01*
X47420588Y42366930D01*
X47420586Y42366928D01*
X47376859Y42306744D01*
X47318768Y42226789D01*
X47240128Y42072448D01*
X47186597Y41907698D01*
X47159500Y41736611D01*
X46820500Y41736611D01*
X46793402Y41907701D01*
X46739873Y42072445D01*
X46661232Y42226788D01*
X46559414Y42366928D01*
X46436928Y42489414D01*
X46296788Y42591232D01*
X46142445Y42669873D01*
X45977701Y42723402D01*
X45977699Y42723403D01*
X45977698Y42723403D01*
X45846223Y42744226D01*
X45806611Y42750500D01*
X45633389Y42750500D01*
X45593777Y42744226D01*
X45462302Y42723403D01*
X45297552Y42669872D01*
X45143211Y42591232D01*
X45063256Y42533141D01*
X45003072Y42489414D01*
X45003070Y42489412D01*
X45003069Y42489412D01*
X44880588Y42366931D01*
X44880588Y42366930D01*
X44880586Y42366928D01*
X44836859Y42306744D01*
X44778768Y42226789D01*
X44700128Y42072448D01*
X44646597Y41907698D01*
X44619500Y41736611D01*
X44280500Y41736611D01*
X44253402Y41907701D01*
X44199873Y42072445D01*
X44121232Y42226788D01*
X44019414Y42366928D01*
X43896928Y42489414D01*
X43756788Y42591232D01*
X43602445Y42669873D01*
X43437701Y42723402D01*
X43437699Y42723403D01*
X43437698Y42723403D01*
X43306223Y42744226D01*
X43266611Y42750500D01*
X43093389Y42750500D01*
X43053777Y42744226D01*
X42922302Y42723403D01*
X42757552Y42669872D01*
X42603211Y42591232D01*
X42523256Y42533141D01*
X42463072Y42489414D01*
X42463070Y42489412D01*
X42463069Y42489412D01*
X42340588Y42366931D01*
X42340588Y42366930D01*
X42340586Y42366928D01*
X42296859Y42306744D01*
X42238768Y42226789D01*
X42160128Y42072448D01*
X42106597Y41907698D01*
X42079500Y41736611D01*
X41740500Y41736611D01*
X41713402Y41907701D01*
X41659873Y42072445D01*
X41581232Y42226788D01*
X41479414Y42366928D01*
X41356928Y42489414D01*
X41216788Y42591232D01*
X41062445Y42669873D01*
X40897701Y42723402D01*
X40897699Y42723403D01*
X40897698Y42723403D01*
X40766223Y42744226D01*
X40726611Y42750500D01*
X40553389Y42750500D01*
X40513777Y42744226D01*
X40382302Y42723403D01*
X40217552Y42669872D01*
X40063211Y42591232D01*
X39983256Y42533141D01*
X39923072Y42489414D01*
X39923070Y42489412D01*
X39923069Y42489412D01*
X39800588Y42366931D01*
X39800588Y42366930D01*
X39800586Y42366928D01*
X39756859Y42306744D01*
X39698768Y42226789D01*
X39620128Y42072448D01*
X39566597Y41907698D01*
X39539500Y41736611D01*
X39200500Y41736611D01*
X39173402Y41907701D01*
X39119873Y42072445D01*
X39041232Y42226788D01*
X38939414Y42366928D01*
X38816928Y42489414D01*
X38676788Y42591232D01*
X38522445Y42669873D01*
X38357701Y42723402D01*
X38357699Y42723403D01*
X38357698Y42723403D01*
X38226223Y42744226D01*
X38186611Y42750500D01*
X38013389Y42750500D01*
X37973777Y42744226D01*
X37842302Y42723403D01*
X37677552Y42669872D01*
X37523211Y42591232D01*
X37443256Y42533141D01*
X37383072Y42489414D01*
X37383070Y42489412D01*
X37383069Y42489412D01*
X37260588Y42366931D01*
X37260588Y42366930D01*
X37260586Y42366928D01*
X37216859Y42306744D01*
X37158768Y42226789D01*
X37080128Y42072448D01*
X37026597Y41907698D01*
X36999500Y41736611D01*
X36660500Y41736611D01*
X36633402Y41907701D01*
X36579873Y42072445D01*
X36501232Y42226788D01*
X36399414Y42366928D01*
X36276928Y42489414D01*
X36136788Y42591232D01*
X35982445Y42669873D01*
X35817701Y42723402D01*
X35817699Y42723403D01*
X35817698Y42723403D01*
X35686223Y42744226D01*
X35646611Y42750500D01*
X35473389Y42750500D01*
X35433777Y42744226D01*
X35302302Y42723403D01*
X35137552Y42669872D01*
X34983211Y42591232D01*
X34903256Y42533141D01*
X34843072Y42489414D01*
X34843070Y42489412D01*
X34843069Y42489412D01*
X34720588Y42366931D01*
X34720588Y42366930D01*
X34720586Y42366928D01*
X34676859Y42306744D01*
X34618768Y42226789D01*
X34540128Y42072448D01*
X34486597Y41907698D01*
X34459500Y41736611D01*
X34120500Y41736611D01*
X34093402Y41907701D01*
X34039873Y42072445D01*
X33961232Y42226788D01*
X33859414Y42366928D01*
X33736928Y42489414D01*
X33596788Y42591232D01*
X33442445Y42669873D01*
X33277701Y42723402D01*
X33277699Y42723403D01*
X33277698Y42723403D01*
X33146223Y42744226D01*
X33106611Y42750500D01*
X32933389Y42750500D01*
X32893777Y42744226D01*
X32762302Y42723403D01*
X32597552Y42669872D01*
X32443211Y42591232D01*
X32363256Y42533141D01*
X32303072Y42489414D01*
X32303070Y42489412D01*
X32303069Y42489412D01*
X32180588Y42366931D01*
X32180588Y42366930D01*
X32180586Y42366928D01*
X32136859Y42306744D01*
X32078768Y42226789D01*
X32000128Y42072448D01*
X31946597Y41907698D01*
X31919500Y41736611D01*
X31580500Y41736611D01*
X31553402Y41907701D01*
X31499873Y42072445D01*
X31421232Y42226788D01*
X31319414Y42366928D01*
X31196928Y42489414D01*
X31056788Y42591232D01*
X30902445Y42669873D01*
X30737701Y42723402D01*
X30737699Y42723403D01*
X30737698Y42723403D01*
X30606223Y42744226D01*
X30566611Y42750500D01*
X30393389Y42750500D01*
X30353777Y42744226D01*
X30222302Y42723403D01*
X30057552Y42669872D01*
X29903211Y42591232D01*
X29823256Y42533141D01*
X29763072Y42489414D01*
X29763070Y42489412D01*
X29763069Y42489412D01*
X29640588Y42366931D01*
X29640588Y42366930D01*
X29640586Y42366928D01*
X29596859Y42306744D01*
X29538768Y42226789D01*
X29460128Y42072448D01*
X29406597Y41907698D01*
X29379500Y41736611D01*
X29040500Y41736611D01*
X29013402Y41907701D01*
X28959873Y42072445D01*
X28881232Y42226788D01*
X28779414Y42366928D01*
X28656928Y42489414D01*
X28516788Y42591232D01*
X28362445Y42669873D01*
X28197701Y42723402D01*
X28197699Y42723403D01*
X28197698Y42723403D01*
X28066223Y42744226D01*
X28026611Y42750500D01*
X27853389Y42750500D01*
X27813777Y42744226D01*
X27682302Y42723403D01*
X27517552Y42669872D01*
X27363211Y42591232D01*
X27283256Y42533141D01*
X27223072Y42489414D01*
X27223070Y42489412D01*
X27223069Y42489412D01*
X27100588Y42366931D01*
X27100588Y42366930D01*
X27100586Y42366928D01*
X27056859Y42306744D01*
X26998768Y42226789D01*
X26920128Y42072448D01*
X26866597Y41907698D01*
X26839500Y41736611D01*
X26500500Y41736611D01*
X26473402Y41907701D01*
X26419873Y42072445D01*
X26341232Y42226788D01*
X26239414Y42366928D01*
X26116928Y42489414D01*
X25976788Y42591232D01*
X25822445Y42669873D01*
X25657701Y42723402D01*
X25657699Y42723403D01*
X25657698Y42723403D01*
X25526223Y42744226D01*
X25486611Y42750500D01*
X25313389Y42750500D01*
X25273777Y42744226D01*
X25142302Y42723403D01*
X24977552Y42669872D01*
X24823211Y42591232D01*
X24743256Y42533141D01*
X24683072Y42489414D01*
X24683070Y42489412D01*
X24683069Y42489412D01*
X24560588Y42366931D01*
X24560588Y42366930D01*
X24560586Y42366928D01*
X24516859Y42306744D01*
X24458768Y42226789D01*
X24380128Y42072448D01*
X24326597Y41907698D01*
X24299500Y41736611D01*
X23960500Y41736611D01*
X23933402Y41907701D01*
X23879873Y42072445D01*
X23801232Y42226788D01*
X23699414Y42366928D01*
X23576928Y42489414D01*
X23436788Y42591232D01*
X23282445Y42669873D01*
X23117701Y42723402D01*
X23117699Y42723403D01*
X23117698Y42723403D01*
X22986223Y42744226D01*
X22946611Y42750500D01*
X22773389Y42750500D01*
X22733777Y42744226D01*
X22602302Y42723403D01*
X22437552Y42669872D01*
X22283211Y42591232D01*
X22203256Y42533141D01*
X22143072Y42489414D01*
X22143070Y42489412D01*
X22143069Y42489412D01*
X22020588Y42366931D01*
X22020588Y42366930D01*
X22020586Y42366928D01*
X21976859Y42306744D01*
X21918768Y42226789D01*
X21840128Y42072448D01*
X21786597Y41907698D01*
X21759500Y41736611D01*
X21420500Y41736611D01*
X21393402Y41907701D01*
X21339873Y42072445D01*
X21261232Y42226788D01*
X21159414Y42366928D01*
X21036928Y42489414D01*
X20896788Y42591232D01*
X20742445Y42669873D01*
X20577701Y42723402D01*
X20577699Y42723403D01*
X20577698Y42723403D01*
X20446223Y42744226D01*
X20406611Y42750500D01*
X20233389Y42750500D01*
X20193777Y42744226D01*
X20062302Y42723403D01*
X19897552Y42669872D01*
X19743211Y42591232D01*
X19663256Y42533141D01*
X19603072Y42489414D01*
X19603070Y42489412D01*
X19603069Y42489412D01*
X19480588Y42366931D01*
X19480588Y42366930D01*
X19480586Y42366928D01*
X19436859Y42306744D01*
X19378768Y42226789D01*
X19300128Y42072448D01*
X19246597Y41907698D01*
X19219500Y41736611D01*
X500000Y41736611D01*
X500000Y44124559D01*
X1099500Y44124559D01*
X1099500Y43875442D01*
X1099501Y43875425D01*
X1132017Y43628439D01*
X1196498Y43387793D01*
X1291830Y43157639D01*
X1291837Y43157624D01*
X1416400Y42941874D01*
X1568060Y42744226D01*
X1568066Y42744219D01*
X1744218Y42568067D01*
X1744225Y42568061D01*
X1941873Y42416401D01*
X2157623Y42291838D01*
X2157638Y42291831D01*
X2256825Y42250747D01*
X2387793Y42196498D01*
X2628435Y42132018D01*
X2875435Y42099500D01*
X2875442Y42099500D01*
X3124558Y42099500D01*
X3124565Y42099500D01*
X3371565Y42132018D01*
X3612207Y42196498D01*
X3842373Y42291836D01*
X4058127Y42416401D01*
X4255776Y42568062D01*
X4431938Y42744224D01*
X4583599Y42941873D01*
X4708164Y43157627D01*
X4803502Y43387793D01*
X4867982Y43628435D01*
X4900500Y43875435D01*
X4900500Y44124559D01*
X67099500Y44124559D01*
X67099500Y43875442D01*
X67099501Y43875425D01*
X67132017Y43628439D01*
X67196498Y43387793D01*
X67291830Y43157639D01*
X67291837Y43157624D01*
X67416400Y42941874D01*
X67568060Y42744226D01*
X67568066Y42744219D01*
X67744218Y42568067D01*
X67744225Y42568061D01*
X67941873Y42416401D01*
X68157623Y42291838D01*
X68157638Y42291831D01*
X68256825Y42250747D01*
X68387793Y42196498D01*
X68628435Y42132018D01*
X68875435Y42099500D01*
X68875442Y42099500D01*
X69124558Y42099500D01*
X69124565Y42099500D01*
X69371565Y42132018D01*
X69612207Y42196498D01*
X69842373Y42291836D01*
X70058127Y42416401D01*
X70255776Y42568062D01*
X70431938Y42744224D01*
X70583599Y42941873D01*
X70708164Y43157627D01*
X70803502Y43387793D01*
X70867982Y43628435D01*
X70900500Y43875435D01*
X70900500Y44124565D01*
X70867982Y44371565D01*
X70803502Y44612207D01*
X70708164Y44842373D01*
X70583599Y45058127D01*
X70431938Y45255776D01*
X70431933Y45255782D01*
X70255781Y45431934D01*
X70255774Y45431940D01*
X70058126Y45583600D01*
X69842376Y45708163D01*
X69842361Y45708170D01*
X69612207Y45803502D01*
X69371561Y45867983D01*
X69124575Y45900499D01*
X69124570Y45900500D01*
X69124565Y45900500D01*
X68875435Y45900500D01*
X68875429Y45900500D01*
X68875424Y45900499D01*
X68628438Y45867983D01*
X68387792Y45803502D01*
X68157638Y45708170D01*
X68157623Y45708163D01*
X67941873Y45583600D01*
X67744225Y45431940D01*
X67744218Y45431934D01*
X67568066Y45255782D01*
X67568060Y45255775D01*
X67416400Y45058127D01*
X67291837Y44842377D01*
X67291830Y44842362D01*
X67196498Y44612208D01*
X67132017Y44371562D01*
X67099501Y44124576D01*
X67099500Y44124559D01*
X4900500Y44124559D01*
X4900500Y44124565D01*
X4867982Y44371565D01*
X4803502Y44612207D01*
X4708164Y44842373D01*
X4583599Y45058127D01*
X4431938Y45255776D01*
X4431933Y45255782D01*
X4255781Y45431934D01*
X4255774Y45431940D01*
X4058126Y45583600D01*
X3842376Y45708163D01*
X3842361Y45708170D01*
X3612207Y45803502D01*
X3371561Y45867983D01*
X3124575Y45900499D01*
X3124570Y45900500D01*
X3124565Y45900500D01*
X2875435Y45900500D01*
X2875429Y45900500D01*
X2875424Y45900499D01*
X2628438Y45867983D01*
X2387792Y45803502D01*
X2157638Y45708170D01*
X2157623Y45708163D01*
X1941873Y45583600D01*
X1744225Y45431940D01*
X1744218Y45431934D01*
X1568066Y45255782D01*
X1568060Y45255775D01*
X1416400Y45058127D01*
X1291837Y44842377D01*
X1291830Y44842362D01*
X1196498Y44612208D01*
X1132017Y44371562D01*
X1099501Y44124576D01*
X1099500Y44124559D01*
X500000Y44124559D01*
X500000Y46376000D01*
X519685Y46443039D01*
X572489Y46488794D01*
X624000Y46500000D01*
X71376000Y46500000D01*
X71443039Y46480315D01*
G37*
G04 #@! TD.AperFunction*
G04 #@! TA.AperFunction,Conductor*
G36*
X53570450Y7605698D02*
G01*
X53625621Y7562827D01*
X53648855Y7496933D01*
X53632777Y7428939D01*
X53612713Y7402634D01*
X52326899Y6116819D01*
X52265576Y6083334D01*
X52239218Y6080500D01*
X48796456Y6080500D01*
X48603171Y6042053D01*
X48603163Y6042051D01*
X48553557Y6021503D01*
X48553556Y6021503D01*
X48421092Y5966636D01*
X48421080Y5966629D01*
X48323548Y5901459D01*
X48323547Y5901458D01*
X48257215Y5857138D01*
X48257214Y5857137D01*
X45976899Y3576819D01*
X45915576Y3543334D01*
X45889218Y3540500D01*
X35414500Y3540500D01*
X35347461Y3560185D01*
X35301706Y3612989D01*
X35290500Y3664500D01*
X35290500Y4561786D01*
X35310185Y4628825D01*
X35326819Y4649467D01*
X35358592Y4681240D01*
X35398286Y4720934D01*
X35459992Y4805866D01*
X35515319Y4848530D01*
X35584932Y4854509D01*
X35646727Y4821904D01*
X35660626Y4805865D01*
X35722097Y4721259D01*
X35722097Y4721258D01*
X35883757Y4559598D01*
X36068723Y4425212D01*
X36272429Y4321418D01*
X36489871Y4250766D01*
X36580000Y4236491D01*
X36580000Y5166518D01*
X36598409Y5155889D01*
X36751009Y5115000D01*
X36908991Y5115000D01*
X37061591Y5155889D01*
X37080000Y5166518D01*
X37080000Y4236492D01*
X37170128Y4250766D01*
X37387570Y4321418D01*
X37591276Y4425212D01*
X37776242Y4559598D01*
X37937902Y4721258D01*
X38072288Y4906224D01*
X38176082Y5109930D01*
X38246734Y5327372D01*
X38268532Y5465000D01*
X37378482Y5465000D01*
X37389111Y5483409D01*
X37430000Y5636009D01*
X37430000Y5658359D01*
X42599311Y5658359D01*
X42687585Y5603702D01*
X42877678Y5530060D01*
X43078072Y5492599D01*
X43281928Y5492599D01*
X43482322Y5530060D01*
X43672412Y5603700D01*
X43672416Y5603702D01*
X43760686Y5658358D01*
X43760686Y5658359D01*
X43180001Y6239046D01*
X43180000Y6239046D01*
X42599311Y5658359D01*
X37430000Y5658359D01*
X37430000Y5793991D01*
X37389111Y5946591D01*
X37378482Y5965000D01*
X38268532Y5965000D01*
X38246734Y6102629D01*
X38176082Y6320071D01*
X38072288Y6523777D01*
X38022285Y6592600D01*
X42075287Y6592600D01*
X42075287Y6592599D01*
X42094096Y6389610D01*
X42094097Y6389607D01*
X42149883Y6193536D01*
X42149886Y6193530D01*
X42240751Y6011048D01*
X42242533Y6008688D01*
X42826446Y6592599D01*
X42786950Y6632095D01*
X42880000Y6632095D01*
X42880000Y6553103D01*
X42900444Y6476803D01*
X42939940Y6408394D01*
X42995795Y6352539D01*
X43064204Y6313043D01*
X43140504Y6292599D01*
X43219496Y6292599D01*
X43295796Y6313043D01*
X43364205Y6352539D01*
X43420060Y6408394D01*
X43459556Y6476803D01*
X43480000Y6553103D01*
X43480000Y6592599D01*
X43533553Y6592599D01*
X44117465Y6008687D01*
X44119247Y6011046D01*
X44119248Y6011048D01*
X44210113Y6193530D01*
X44210116Y6193536D01*
X44265902Y6389607D01*
X44265903Y6389610D01*
X44284713Y6592599D01*
X44284713Y6592600D01*
X44265903Y6795589D01*
X44265902Y6795592D01*
X44210116Y6991663D01*
X44210113Y6991669D01*
X44119249Y7174150D01*
X44119247Y7174152D01*
X44117465Y7176512D01*
X43533553Y6592599D01*
X43480000Y6592599D01*
X43480000Y6632095D01*
X43459556Y6708395D01*
X43420060Y6776804D01*
X43364205Y6832659D01*
X43295796Y6872155D01*
X43219496Y6892599D01*
X43140504Y6892599D01*
X43064204Y6872155D01*
X42995795Y6832659D01*
X42939940Y6776804D01*
X42900444Y6708395D01*
X42880000Y6632095D01*
X42786950Y6632095D01*
X42242533Y7176512D01*
X42240755Y7174157D01*
X42240754Y7174156D01*
X42149886Y6991669D01*
X42149883Y6991663D01*
X42094097Y6795592D01*
X42094096Y6795589D01*
X42075287Y6592600D01*
X38022285Y6592600D01*
X37937902Y6708743D01*
X37776242Y6870403D01*
X37591276Y7004789D01*
X37387568Y7108583D01*
X37170124Y7179235D01*
X37080000Y7193510D01*
X37080000Y6263483D01*
X37061591Y6274111D01*
X36908991Y6315000D01*
X36751009Y6315000D01*
X36598409Y6274111D01*
X36580000Y6263483D01*
X36580000Y7193510D01*
X36579999Y7193510D01*
X36489875Y7179235D01*
X36272431Y7108583D01*
X36068723Y7004789D01*
X35883757Y6870403D01*
X35722097Y6708743D01*
X35660627Y6624136D01*
X35605297Y6581471D01*
X35535684Y6575492D01*
X35473889Y6608098D01*
X35459991Y6624136D01*
X35398286Y6709066D01*
X35236566Y6870786D01*
X35051538Y7005217D01*
X35049691Y7006158D01*
X34847755Y7109050D01*
X34630248Y7179722D01*
X34444818Y7209091D01*
X34404354Y7215500D01*
X34175646Y7215500D01*
X34135182Y7209091D01*
X33949753Y7179722D01*
X33949750Y7179722D01*
X33732244Y7109050D01*
X33528461Y7005217D01*
X33345759Y6872475D01*
X33279952Y6848995D01*
X33211898Y6864820D01*
X33163203Y6914926D01*
X33156690Y6929462D01*
X33151950Y6942170D01*
X33146296Y6957331D01*
X33146295Y6957332D01*
X33146293Y6957336D01*
X33060047Y7072545D01*
X33060044Y7072548D01*
X32944835Y7158794D01*
X32944830Y7158797D01*
X32831166Y7201191D01*
X32775233Y7243063D01*
X32750816Y7308527D01*
X32750500Y7317373D01*
X32750500Y7468099D01*
X32770185Y7535138D01*
X32822989Y7580893D01*
X32874500Y7592099D01*
X42238561Y7592099D01*
X42305600Y7572414D01*
X42312872Y7567366D01*
X42337668Y7548804D01*
X42337671Y7548802D01*
X42472516Y7498508D01*
X42487166Y7496933D01*
X42532127Y7492099D01*
X42582692Y7492100D01*
X42649729Y7472417D01*
X42670372Y7455781D01*
X43180000Y6946153D01*
X43689628Y7455781D01*
X43750951Y7489266D01*
X43777308Y7492100D01*
X43827872Y7492100D01*
X43887483Y7498508D01*
X44022331Y7548803D01*
X44047128Y7567366D01*
X44112592Y7591783D01*
X44121439Y7592099D01*
X53401141Y7592099D01*
X53469504Y7605698D01*
X53497786Y7611324D01*
X53497786Y7611321D01*
X53497798Y7611327D01*
X53500862Y7611936D01*
X53570450Y7605698D01*
G37*
G04 #@! TD.AperFunction*
M02*
