M48
; DRILL file {KiCad 8.0.8-8.0.8-0~ubuntu22.04.1} date 2025-01-22T21:02:37+0900
; FORMAT={-:-/ absolute / metric / decimal}
; #@! TF.CreationDate,2025-01-22T21:02:37+09:00
; #@! TF.GenerationSoftware,Kicad,Pcbnew,8.0.8-8.0.8-0~ubuntu22.04.1
; #@! TF.FileFunction,MixedPlating,1,2
FMAT,2
METRIC
; #@! TA.AperFunction,Plated,PTH,ViaDrill
T1C0.300
; #@! TA.AperFunction,Plated,PTH,ComponentDrill
T2C0.500
; #@! TA.AperFunction,Plated,PTH,ComponentDrill
T3C0.600
; #@! TA.AperFunction,Plated,PTH,ComponentDrill
T4C0.800
; #@! TA.AperFunction,Plated,PTH,ComponentDrill
T5C0.900
; #@! TA.AperFunction,Plated,PTH,ComponentDrill
T6C1.000
; #@! TA.AperFunction,Plated,PTH,ComponentDrill
T7C1.100
; #@! TA.AperFunction,Plated,PTH,ComponentDrill
T8C1.200
; #@! TA.AperFunction,Plated,PTH,ComponentDrill
T9C1.300
; #@! TA.AperFunction,NonPlated,NPTH,ComponentDrill
T10C3.200
%
G90
G05
T1
X14.605Y41.89
X18.5Y27.92
X37.55Y27.92
X55.33Y27.92
X68.58Y9.525
T2
X68.265Y28.11
X70.165Y28.11
T3
X24.13Y8.255
X24.13Y6.255
X43.18Y8.593
X43.18Y6.593
T4
X12.7Y34.905
X12.7Y19.665
X15.24Y34.905
X15.24Y19.665
X17.78Y34.905
X17.78Y19.665
X17.78Y13.71
X20.32Y41.25
X20.32Y34.905
X20.32Y19.665
X20.32Y13.71
X22.86Y41.25
X22.86Y34.905
X22.86Y19.665
X22.86Y13.71
X25.4Y41.25
X25.4Y34.905
X25.4Y19.665
X25.4Y13.71
X27.94Y41.25
X27.94Y34.905
X27.94Y19.665
X27.94Y13.71
X30.48Y41.25
X30.48Y34.905
X30.48Y19.665
X30.48Y13.71
X33.02Y41.25
X33.02Y34.905
X33.02Y19.665
X33.02Y13.71
X35.56Y41.25
X35.56Y34.905
X35.56Y19.665
X35.56Y13.71
X38.1Y41.25
X38.1Y34.905
X38.1Y19.665
X38.1Y13.71
X40.64Y41.25
X40.64Y34.905
X40.64Y19.665
X40.64Y13.71
X43.18Y41.25
X43.18Y34.905
X43.18Y19.665
X43.18Y13.71
X45.72Y41.25
X45.72Y34.905
X45.72Y19.665
X45.72Y13.71
X48.26Y41.25
X48.26Y34.905
X48.26Y19.665
X48.26Y13.71
X49.53Y10.795
X49.53Y3.175
X50.8Y41.25
X50.8Y34.905
X50.8Y19.665
X50.8Y13.71
X53.34Y41.25
X53.34Y34.905
X53.34Y19.665
X53.34Y13.71
X55.88Y41.25
X55.88Y34.905
X55.88Y19.665
X55.88Y13.71
X58.42Y41.25
X58.42Y34.905
X58.42Y19.665
X58.42Y13.71
X60.96Y34.905
X60.96Y19.665
X60.96Y13.71
X61.0Y38.715
X63.5Y34.905
X63.5Y19.665
X65.405Y15.855
X65.405Y13.355
X66.0Y38.715
T5
X16.51Y3.175
X24.13Y3.175
T6
X58.42Y7.62
X58.42Y2.54
X60.96Y7.62
X60.96Y2.54
X63.5Y7.62
X63.5Y2.54
T7
X2.465Y39.08
X2.465Y34.58
X2.465Y30.825
X2.465Y26.325
X2.465Y22.57
X2.465Y18.07
X8.965Y39.08
X8.965Y34.58
X8.965Y30.825
X8.965Y26.325
X8.965Y22.57
X8.965Y18.07
T8
X2.54Y13.97
X15.24Y13.97
X31.75Y5.715
X34.29Y5.715
X36.83Y5.715
T9
X68.58Y35.56
X68.58Y30.56
T10
X3.0Y44.0
X69.0Y44.0
X69.0Y3.175
T6
G00X7.885Y8.0
M15
G01X7.885Y6.0
M16
G05
G00X9.885Y2.3
M15
G01X11.885Y2.3
M16
G05
G00X13.885Y8.0
M15
G01X13.885Y6.0
M16
G05
M30
